<?xml version="1.0" encoding="utf-8"?>
<!-- Generator: Adobe Illustrator 25.2.3, SVG Export Plug-In . SVG Version: 6.00 Build 0)  -->
<svg version="1.1" id="Layer_1" xmlns="http://www.w3.org/2000/svg" xmlns:xlink="http://www.w3.org/1999/xlink" x="0px" y="0px"
	 viewBox="0 0 45.7 46.4" style="enable-background:new 0 0 45.7 46.4;" xml:space="preserve">
<style type="text/css">
	.st0{fill:#1C202E;}
	.st1{opacity:0.4;fill:url(#SVGID_7_);}
	.st2{fill:#FFFFFF;}
	.st3{opacity:0.1;fill:none;stroke:#FFFFFF;stroke-miterlimit:10;}
	.st4{clip-path:url(#SVGID_9_);fill:url(#SVGID_10_);}
	.st5{clip-path:url(#SVGID_12_);fill:url(#SVGID_13_);}
	.st6{fill:#959595;}
	.st7{fill:none;stroke:#FFFFFF;stroke-miterlimit:10;}
	.st8{fill:none;stroke:#FFFFFF;stroke-linecap:round;stroke-miterlimit:10;}
	.st9{fill:none;stroke:#FFFFFF;stroke-width:1.3;stroke-linecap:round;stroke-linejoin:round;stroke-miterlimit:10;}
	.st10{opacity:0.6;}
	.st11{fill:#C3AD86;}
	.st12{opacity:0.44;clip-path:url(#SVGID_15_);fill:#FFFFFF;}
	.st13{fill:none;stroke:#C3AD86;stroke-linecap:round;stroke-linejoin:round;stroke-miterlimit:10;}
	.st14{opacity:0.4;}
	.st15{fill:#262B3E;}
	.st16{fill:url(#SVGID_16_);}
	.st17{opacity:0.5;}
	.st18{fill:#E7E7E7;}
	.st19{fill:none;stroke:#F3F1F1;stroke-width:1.7;stroke-miterlimit:10;}
	.st20{opacity:0.15;clip-path:url(#SVGID_18_);}
	.st21{fill:url(#SVGID_19_);}
	.st22{fill:url(#SVGID_20_);}
	.st23{fill:#EEEAE2;}
	.st24{fill:#C4AE87;}
	.st25{opacity:0.72;}
	.st26{opacity:0.7;fill:#262B3E;}
	.st27{opacity:0.9;fill:url(#SVGID_33_);}
	.st28{fill:none;stroke:#1C202E;stroke-width:1.5;stroke-linecap:round;stroke-linejoin:round;stroke-miterlimit:10;}
	.st29{opacity:0.44;}
	.st30{opacity:0.55;fill:#FFFFFF;}
	.st31{opacity:0.55;}
	.st32{fill:#C3AD86;stroke:#C3AD86;stroke-width:0.25;stroke-miterlimit:10;}
	.st33{clip-path:url(#SVGID_35_);fill:url(#SVGID_36_);}
	.st34{clip-path:url(#SVGID_38_);fill:url(#SVGID_39_);}
	.st35{fill:#30364E;stroke:#3C4157;stroke-miterlimit:10;}
</style>
<g>
	<path class="st11" d="M3,46.4c-0.5-0.2-1.1-0.4-1.6-0.7c-0.9-0.6-1.3-1.5-1.4-2.6c0-0.2,0-0.4,0-0.6C0,29.6,0,16.8,0,3.9
		c0-0.5,0-1,0.2-1.5C0.6,1,2,0,3.6,0c2.7,0,5.3,0,8,0c6.5,0,13.1,0,19.6,0c1.8,0,3.2,1.1,3.6,2.8c0.1,0.4,0.1,0.7,0.1,1.1
		c0,1,0,2,0.1,3c0.1-0.1,0.1-0.2,0.2-0.3c0.4-0.9,0.8-1.8,1.1-2.7c0.3-0.6,0.7-1,1.4-1c0.1,0,0.3-0.1,0.3-0.2c0.2-0.3,0.3-0.7,0.5-1
		c0.7-1.4,2.2-2,3.6-1.4c1.4,0.6,2,2.2,1.5,3.6c-0.2,0.4-0.3,0.8-0.5,1.3c0.5,0.2,0.8,0.5,0.7,1.1c0.5,0.2,1,0.4,1.5,0.6
		c0.6,0.2,0.7,0.6,0.5,1.1c-1.8,4.2-3.6,8.4-5.4,12.6c-0.2,0.5-0.6,0.7-1,0.5c-0.4-0.2-0.5-0.6-0.3-1.1c1.7-3.9,3.3-7.7,5-11.6
		C44,8.2,44,8.1,44.1,7.9c-0.3-0.1-0.6-0.3-1-0.4C43,7.6,43,7.8,42.9,8c-4.3,10.1-8.7,20.1-13,30.2c-0.1,0.3-0.4,0.6-0.6,0.9
		c-1.3,1.2-2.6,2.4-3.9,3.6c-0.5,0.5-1.1,0.7-1.9,0.4c-0.7-0.3-0.9-0.9-0.9-1.6c0-1.8,0-3.5,0-5.3c0-0.4,0.1-0.8,0.2-1.1
		c3.5-8.1,7-16.2,10.5-24.3c0.1-0.2,0.2-0.5,0.2-0.7c0-2.1,0-4.1,0-6.2c0-1.6-0.8-2.4-2.4-2.4c-5.2,0-10.4,0-15.5,0
		c-3.9,0-7.8,0-11.6,0c-0.5,0-1,0.1-1.5,0.3c-0.7,0.4-1,1.1-1,1.8c0,1.3,0,2.5,0,3.8c0,11.7,0,23.5,0,35.2c0,0.9,0.3,1.7,1.1,2.1
		C2.9,44.9,3.3,45,3.7,45c9.1,0,18.3,0,27.4,0c1.4,0,2.3-0.9,2.3-2.3c0-3.1,0-6.2,0-9.3c0-0.2,0-0.3,0-0.5c0.1-0.4,0.3-0.6,0.7-0.6
		c0.4,0,0.6,0.2,0.7,0.6c0,0.2,0,0.4,0,0.5c0,2.9-0.1,5.8,0,8.7c0.1,2.2-0.8,3.8-3.1,4.3C22.2,46.4,12.6,46.4,3,46.4z M28.7,37.3
		c2.4-5.6,4.8-11.1,7.2-16.6c-1.5-0.7-3-1.3-4.5-1.9c-2.4,5.5-4.8,11.1-7.2,16.6C25.7,36,27.2,36.6,28.7,37.3z M36.4,19.4
		c1.9-4.4,3.8-8.7,5.7-13.1c-1.5-0.7-3-1.3-4.5-1.9c-1.9,4.4-3.8,8.7-5.7,13.1C33.5,18.1,34.9,18.8,36.4,19.4z M24.1,41.7
		c0,0,0.1,0.1,0.1,0.1c1.2-1.1,2.4-2.2,3.6-3.4c-1.3-0.5-2.5-1.1-3.7-1.6C24.1,38.5,24.1,40.1,24.1,41.7z M41.7,4.6
		c0.2-0.5,0.4-1,0.6-1.5c0.2-0.6-0.2-1.3-0.8-1.5c-0.6-0.2-1.3-0.1-1.6,0.4c-0.3,0.5-0.5,1-0.7,1.5C40,3.8,40.8,4.2,41.7,4.6z"/>
	<path class="st11" d="M24.5,7.4c0-0.7,0-1.4,0-2.1c-4.7,0-9.5,0-14.2,0c0,0.7,0,1.3,0,2.1c0.2,0,0.3,0,0.5,0c2.4,0,4.7,0,7.1,0
		c0.2,0,0.3,0,0.5,0c0.4,0.1,0.6,0.3,0.6,0.7c0,0.3-0.2,0.6-0.6,0.7c-0.2,0-0.3,0-0.5,0c-2.5,0-4.9,0-7.4,0c-1.2,0-1.6-0.4-1.6-1.6
		c0-0.7,0-1.3,0-2c0-0.8,0.5-1.3,1.3-1.3c4.8,0,9.6,0,14.4,0c0.8,0,1.3,0.5,1.3,1.3c0,0.8,0,1.5,0,2.3c0,0.8-0.5,1.3-1.3,1.3
		c-1,0-2,0-3,0c-0.5,0-0.8-0.3-0.8-0.7c0-0.4,0.3-0.7,0.8-0.7C22.5,7.4,23.5,7.4,24.5,7.4z"/>
	<path class="st11" d="M17.4,13.2c-3.5,0-7.1,0-10.6,0c-0.2,0-0.3,0-0.5,0c-0.4,0-0.7-0.3-0.6-0.7c0-0.4,0.2-0.6,0.6-0.7
		c0.1,0,0.3,0,0.5,0c7.1,0,14.2,0,21.4,0c0.7,0,1.1,0.2,1.1,0.7c0,0.5-0.3,0.7-1.1,0.7C24.5,13.2,21,13.2,17.4,13.2z"/>
	<path class="st11" d="M17.5,16.2c3.5,0,7.1,0,10.6,0c0.2,0,0.3,0,0.5,0c0.4,0,0.6,0.3,0.6,0.7c0,0.4-0.3,0.7-0.6,0.7
		c-0.1,0-0.2,0-0.4,0c-7.2,0-14.3,0-21.5,0c-0.1,0-0.2,0-0.4,0c-0.4,0-0.7-0.3-0.6-0.7c0-0.4,0.2-0.6,0.6-0.7c0.2,0,0.3,0,0.5,0
		C10.4,16.2,13.9,16.2,17.5,16.2z"/>
	<path class="st11" d="M14.9,22c-2.7,0-5.5,0-8.2,0c-0.2,0-0.3,0-0.5,0c-0.4-0.1-0.6-0.3-0.6-0.7c0-0.3,0.2-0.6,0.6-0.7
		c0.1,0,0.3,0,0.5,0c5.5,0,10.9,0,16.4,0c0.1,0,0.1,0,0.2,0c0.5,0,0.9,0.3,0.9,0.7c0,0.4-0.3,0.7-0.9,0.7C20.5,22,17.7,22,14.9,22z"
		/>
	<path class="st11" d="M8.7,36.7c0.9,0,1.7,0.3,2.3,0.8c0.3,0.2,0.6,0.5,0.9,0.7c1.3,1,2.6,0.7,3.5-0.6c0.1-0.1,0.1-0.2,0.2-0.3
		c0.3-0.4,0.6-0.5,1-0.2c0.3,0.2,0.4,0.6,0.2,1c-1.2,2.1-3,2.8-5.1,1.7c-0.5-0.2-0.9-0.6-1.4-1c-1.4-1.1-3.1-0.7-3.9,0.9
		c-0.2,0.5-0.5,0.6-0.9,0.5c-0.4-0.2-0.5-0.5-0.4-1C5.6,37.7,7.1,36.7,8.7,36.7z"/>
	<path class="st11" d="M10.8,26.5c-1.4,0-2.9,0-4.3,0c-0.6,0-1-0.5-0.7-1c0.1-0.2,0.4-0.4,0.7-0.4c2.9,0,5.8,0,8.7,0
		c0.5,0,0.8,0.3,0.8,0.7c0,0.4-0.3,0.7-0.8,0.7C13.7,26.5,12.2,26.5,10.8,26.5z"/>
</g>
</svg>
