<?xml version="1.0" encoding="utf-8"?>
<!-- Generator: Adobe Illustrator 25.2.3, SVG Export Plug-In . SVG Version: 6.00 Build 0)  -->
<svg version="1.1" id="Layer_1" xmlns="http://www.w3.org/2000/svg" xmlns:xlink="http://www.w3.org/1999/xlink" x="0px" y="0px"
	 viewBox="0 0 44.9 44.9" style="enable-background:new 0 0 44.9 44.9;" xml:space="preserve">
<style type="text/css">
	.st0{fill:#1C202E;}
	.st1{opacity:0.4;fill:url(#SVGID_7_);}
	.st2{fill:#FFFFFF;}
	.st3{opacity:0.1;fill:none;stroke:#FFFFFF;stroke-miterlimit:10;}
	.st4{clip-path:url(#SVGID_9_);fill:url(#SVGID_10_);}
	.st5{clip-path:url(#SVGID_12_);fill:url(#SVGID_13_);}
	.st6{fill:#959595;}
	.st7{fill:none;stroke:#FFFFFF;stroke-miterlimit:10;}
	.st8{fill:none;stroke:#FFFFFF;stroke-linecap:round;stroke-miterlimit:10;}
	.st9{fill:none;stroke:#FFFFFF;stroke-width:1.3;stroke-linecap:round;stroke-linejoin:round;stroke-miterlimit:10;}
	.st10{opacity:0.6;}
	.st11{fill:#C3AD86;}
	.st12{opacity:0.44;clip-path:url(#SVGID_15_);fill:#FFFFFF;}
	.st13{fill:none;stroke:#C3AD86;stroke-linecap:round;stroke-linejoin:round;stroke-miterlimit:10;}
	.st14{opacity:0.4;}
	.st15{fill:#262B3E;}
	.st16{fill:url(#SVGID_16_);}
	.st17{opacity:0.5;}
	.st18{fill:#E7E7E7;}
	.st19{fill:none;stroke:#F3F1F1;stroke-width:1.7;stroke-miterlimit:10;}
	.st20{opacity:0.15;clip-path:url(#SVGID_18_);}
	.st21{fill:url(#SVGID_19_);}
	.st22{fill:url(#SVGID_20_);}
	.st23{fill:#EEEAE2;}
	.st24{fill:#C4AE87;}
	.st25{opacity:0.72;}
	.st26{opacity:0.7;fill:#262B3E;}
	.st27{opacity:0.9;fill:url(#SVGID_33_);}
	.st28{fill:none;stroke:#1C202E;stroke-width:1.5;stroke-linecap:round;stroke-linejoin:round;stroke-miterlimit:10;}
	.st29{opacity:0.44;}
	.st30{opacity:0.55;fill:#FFFFFF;}
	.st31{opacity:0.55;}
	.st32{fill:#C3AD86;stroke:#C3AD86;stroke-width:0.25;stroke-miterlimit:10;}
	.st33{clip-path:url(#SVGID_35_);fill:url(#SVGID_36_);}
	.st34{clip-path:url(#SVGID_38_);fill:url(#SVGID_39_);}
	.st35{fill:#30364E;stroke:#3C4157;stroke-miterlimit:10;}
</style>
<g>
	<path class="st11" d="M43.5,29.4c0-8.2,0-16.3,0-24.6c-0.8,0-1.7,0-2.5,0c-0.5,0-1,0.1-1.5,0c-0.3-0.1-0.5-0.4-0.8-0.6
		C39,4,39.3,3.6,39.6,3.5c1.3-0.1,2.6,0,3.9,0c0-0.4,0.1-0.7,0.1-1c0-1-0.2-1.2-1.2-1.2c-13.2,0-26.5,0-39.7,0
		c-1.3,0-1.5,0.4-1.2,2.2c0.3,0,0.7,0,1,0c11,0,22,0,33,0c0.5,0,1.4-0.2,1.4,0.6c0,0.9-0.8,0.7-1.3,0.7c-11,0-21.9,0-32.9,0
		c-0.4,0-0.8,0-1.2,0c0,0.4,0,0.7,0,1c0,3.4,0,6.8,0,10.3c0,0.2,0.1,0.5,0,0.7c-0.2,0.3-0.4,0.5-0.7,0.7c-0.2-0.2-0.4-0.5-0.6-0.7
		c-0.1-0.1,0-0.3,0-0.5c0-4.6,0-9.2,0-13.8C0,0.8,0.8,0,2.5,0c13.3,0,26.6,0,39.9,0c1.8,0,2.5,0.7,2.5,2.5c0,10,0,20,0,30.1
		c0,1.7-0.8,2.5-2.5,2.5c-5,0-9.9,0-15,0c0,1.5,0,2.9,0,4.4c0,0.2,0.3,0.4,0.5,0.5c0.7,0.5,1.4,0.9,2.2,1.3c0.6,0.3,0.8,0.7,0.8,1.4
		c0,2.5,0.1,2.2-2.2,2.2c-4.5,0-8.9,0-13.4,0c-1,0-1.1-0.1-1.2-1.1c-0.2-1.5,0.3-2.5,1.7-3c1.6-0.6,2.1-1.7,1.9-3.3
		c-0.1-0.7,0-1.5,0-2.4c-0.4,0-0.7,0-1,0c-4.7,0-9.3,0-14,0c-1.8,0-2.5-0.8-2.5-2.6c0-4,0-7.9,0-11.9C0,20.4,0,20.1,0,20
		c0.2-0.3,0.4-0.5,0.6-0.7c0.2,0.2,0.5,0.4,0.6,0.7c0.1,0.2,0,0.6,0,0.9c0,2.8,0,5.7,0,8.6C15.4,29.4,29.5,29.4,43.5,29.4z
		 M43.5,30.9c-14.1,0-28.1,0-42.2,0c0,0.4,0,0.8,0,1.2c0,1.6,0,1.6,1.6,1.6c12.7,0,25.4,0,38.1,0C43.6,33.7,43.7,34.3,43.5,30.9z
		 M26,35.1c-2.4,0-4.7,0-7.1,0c0,1.4,0,2.8,0,4.2c0,0.2,0.2,0.5,0.5,0.6c2,1,4.1,1,6.1,0c0.2-0.1,0.5-0.4,0.5-0.6
		C26,38,26,36.6,26,35.1z M29.4,43.5c0.2-0.7,0.1-1.2-0.6-1.5c-0.6-0.3-1-0.7-1.6-0.9c-0.3-0.1-0.7-0.1-1,0
		c-2.1,1.1-4.4,1.4-6.5,0.4c-1.4-0.6-2.4-0.5-3.4,0.4c-0.1,0.1-0.2,0.1-0.3,0.2c-0.7,0.3-0.8,0.8-0.5,1.4
		C20.2,43.5,24.8,43.5,29.4,43.5z"/>
	<path class="st11" d="M22.4,6.3c4,0,8.1,0,12.1,0c1.2,0,1.3,0.1,1.3,1.2c0,6.4,0,12.8,0,19.2c0,1.2-0.1,1.3-1.2,1.3
		c-8.1,0-16.1,0-24.2,0c-1.1,0-1.2-0.1-1.2-1.2c0-6.4,0-12.8,0-19.3c0-1.1,0.1-1.2,1.3-1.2C14.4,6.3,18.4,6.3,22.4,6.3z M34.4,11.9
		c-8,0-15.9,0-23.8,0c0,4.9,0,9.8,0,14.7c8,0,15.9,0,23.8,0C34.4,21.7,34.4,16.9,34.4,11.9z M34.4,7.7c-8,0-15.9,0-23.9,0
		c0,0.9,0,1.8,0,2.8c8,0,15.9,0,23.9,0C34.4,9.5,34.4,8.7,34.4,7.7z"/>
	<path class="st11" d="M19.8,22.4c-0.6,0-1-0.5-0.7-1c0.2-0.2,0.4-0.4,0.6-0.6c1.6-1.6,3.3-3.3,4.9-4.9c0.3-0.3,0.7-0.6,1.1-0.2
		c0.4,0.4,0.2,0.8-0.2,1.1c-1.7,1.7-3.5,3.5-5.2,5.2C20.2,22.2,19.9,22.3,19.8,22.4z"/>
	<path class="st11" d="M30.1,18.9c-0.9-0.8-1.6-1.5-2.3-2.2c-0.2-0.2-0.1-0.7-0.2-1c0.4,0,0.8-0.1,1,0.1c0.9,0.8,1.7,1.7,2.6,2.5
		c0.4,0.4,0.4,0.8,0,1.2c-0.9,0.8-1.7,1.7-2.6,2.5c-0.2,0.2-0.7,0.1-1.1,0.1c0.1-0.4,0-0.8,0.2-1C28.5,20.4,29.2,19.7,30.1,18.9z"/>
	<path class="st11" d="M14.9,18.9c0.8,0.8,1.5,1.4,2.2,2.1c0.3,0.3,0.6,0.7,0.2,1.1c-0.4,0.5-0.8,0.2-1.2-0.2
		c-0.8-0.8-1.6-1.6-2.4-2.3c-0.5-0.5-0.5-0.9,0-1.3c0.8-0.8,1.6-1.7,2.5-2.4c0.2-0.2,0.7-0.1,1-0.2c0,0.4,0,0.8-0.2,1
		C16.5,17.5,15.7,18.1,14.9,18.9z"/>
	<path class="st11" d="M26.7,10.1c-0.3-0.5-0.7-0.8-0.7-1c0-0.2,0.4-0.6,0.6-0.6c0.2,0,0.6,0.4,0.7,0.6C27.3,9.3,27,9.6,26.7,10.1z"
		/>
	<path class="st11" d="M30.5,9.1c-0.4,0.3-0.7,0.7-0.9,0.6c-0.3-0.1-0.5-0.4-0.7-0.7c0.2-0.2,0.5-0.6,0.7-0.6
		C29.8,8.4,30,8.8,30.5,9.1z"/>
	<path class="st11" d="M32.3,8.1c0.3,0.5,0.6,0.7,0.6,1c-0.1,0.3-0.4,0.5-0.7,0.7c-0.2-0.3-0.6-0.5-0.6-0.8
		C31.6,8.8,32,8.5,32.3,8.1z"/>
</g>
</svg>
