<?xml version="1.0" encoding="utf-8"?>
<!-- Generator: Adobe Illustrator 25.2.3, SVG Export Plug-In . SVG Version: 6.00 Build 0)  -->
<svg version="1.1" id="Layer_1" xmlns="http://www.w3.org/2000/svg" xmlns:xlink="http://www.w3.org/1999/xlink" x="0px" y="0px"
	 viewBox="0 0 45.1 46.1" style="enable-background:new 0 0 45.1 46.1;" xml:space="preserve">
<style type="text/css">
	.st0{fill:#1C202E;}
	.st1{opacity:0.4;fill:url(#SVGID_7_);}
	.st2{fill:#FFFFFF;}
	.st3{opacity:0.1;fill:none;stroke:#FFFFFF;stroke-miterlimit:10;}
	.st4{clip-path:url(#SVGID_9_);fill:url(#SVGID_10_);}
	.st5{clip-path:url(#SVGID_12_);fill:url(#SVGID_13_);}
	.st6{fill:#959595;}
	.st7{fill:none;stroke:#FFFFFF;stroke-miterlimit:10;}
	.st8{fill:none;stroke:#FFFFFF;stroke-linecap:round;stroke-miterlimit:10;}
	.st9{fill:none;stroke:#FFFFFF;stroke-width:1.3;stroke-linecap:round;stroke-linejoin:round;stroke-miterlimit:10;}
	.st10{opacity:0.6;}
	.st11{fill:#C3AD86;}
	.st12{opacity:0.44;clip-path:url(#SVGID_15_);fill:#FFFFFF;}
	.st13{fill:none;stroke:#C3AD86;stroke-linecap:round;stroke-linejoin:round;stroke-miterlimit:10;}
	.st14{opacity:0.4;}
	.st15{fill:#262B3E;}
	.st16{fill:url(#SVGID_16_);}
	.st17{opacity:0.5;}
	.st18{fill:#E7E7E7;}
	.st19{fill:none;stroke:#F3F1F1;stroke-width:1.7;stroke-miterlimit:10;}
	.st20{opacity:0.15;clip-path:url(#SVGID_18_);}
	.st21{fill:url(#SVGID_19_);}
	.st22{fill:url(#SVGID_20_);}
	.st23{fill:#EEEAE2;}
	.st24{fill:#C4AE87;}
	.st25{opacity:0.72;}
	.st26{opacity:0.7;fill:#262B3E;}
	.st27{opacity:0.9;fill:url(#SVGID_33_);}
	.st28{fill:none;stroke:#1C202E;stroke-width:1.5;stroke-linecap:round;stroke-linejoin:round;stroke-miterlimit:10;}
	.st29{opacity:0.44;}
	.st30{opacity:0.55;fill:#FFFFFF;}
	.st31{opacity:0.55;}
	.st32{fill:#C3AD86;stroke:#C3AD86;stroke-width:0.25;stroke-miterlimit:10;}
	.st33{clip-path:url(#SVGID_35_);fill:url(#SVGID_36_);}
	.st34{clip-path:url(#SVGID_38_);fill:url(#SVGID_39_);}
	.st35{fill:#30364E;stroke:#3C4157;stroke-miterlimit:10;}
</style>
<g>
	<path class="st32" d="M2.8,5.5c0-0.3,0-0.5,0-0.8c0-1,0.6-1.6,1.6-1.6c0.5,0,0.9,0,1.4,0c0-0.5,0-0.9,0-1.4c0-1,0.6-1.6,1.6-1.6
		c6.3,0,12.7,0,19,0c0.5,0,0.9,0.2,1.3,0.5c2.2,2.3,4.4,4.6,6.7,6.8c0.4,0.4,0.5,0.8,0.5,1.4c0,3.7,0,7.4,0,11c0,0.2,0,0.4,0,0.6
		c0.2,0,0.4,0,0.5,0c2.2,0,4.4,0,6.7,0c1.8,0,2.9,1.2,2.9,2.9c0,6.5,0,13.1,0,19.6c0,1.8-1.2,2.9-2.9,2.9c-4.8,0-9.6,0-14.5,0
		c-0.8,0-1.5-0.3-2.2-0.8C25.3,45,25,45,24.8,45c-4.1,0-8.1,0-12.2,0c-3.6,0-7.1,0-10.7,0c-1.2,0-1.8-0.6-1.8-1.8
		c0-12,0-23.9,0-35.9c0-1.2,0.6-1.8,1.8-1.8C2.2,5.5,2.4,5.5,2.8,5.5z M24.6,38.6c0-1.7,0-3.3,0-4.9c-1.2,0-2.5,0-3.7,0
		c-0.4,0-0.6-0.2-0.6-0.6c0-0.4,0.3-0.5,0.6-0.5c0.8,0,1.6,0,2.4,0c0.4,0,0.8,0,1.3,0c0-1.3,0-2.5,0-3.6c-0.9,0-1.7,0-2.6,0
		c-0.2,0-0.4-0.3-0.4-0.5c0-0.2,0.3-0.5,0.4-0.5c0.9-0.1,1.7,0,2.6,0c0,0.1,0,0,0,0c0-1.5,0-3,0-4.5c0-1.7,1.2-2.9,2.9-2.9
		c1.9,0,3.8,0,5.7,0c0.2,0,0.3,0,0.5,0c0-3.9,0-7.7,0-11.6c-1.2,0-2.5,0-3.7,0c-1.9,0-3.5-1.3-3.8-3.2c-0.1-0.8-0.1-1.6-0.1-2.5
		c0-0.6,0-1.3,0-2c-0.2,0-0.4,0-0.5,0c-6,0-12,0-17.9,0C6.9,1.2,6.9,1.3,6.9,2c0,11.9,0,23.8,0,35.8c0,0.7,0,0.8,0.8,0.8
		c5.5,0,11,0,16.4,0C24.2,38.6,24.4,38.6,24.6,38.6z M25.7,29c0,0.2,0,0.4,0,0.5c0,4.5,0,8.9,0,13.4c0,1.3,0.7,2,2,2
		c4.8,0,9.6,0,14.4,0c1.3,0,1.9-0.7,1.9-1.9c0-4.5,0-9,0-13.5c0-0.1,0-0.3,0-0.5C37.9,29,31.8,29,25.7,29z M5.8,4.2
		c-0.4,0-0.8,0-1.1,0C3.9,4.2,3.9,4.3,3.9,5c0,11.9,0,23.7,0,35.6c0,0.7,0.1,0.8,0.8,0.8c6.5,0,12.9,0,19.4,0c0.2,0,0.3,0,0.5,0
		c0-0.6,0-1.2,0-1.7c-0.2,0-0.4,0-0.6,0c-5.4,0-10.9,0-16.3,0c-1.3,0-1.8-0.5-1.8-1.8c0-11,0-21.9,0-32.9C5.8,4.7,5.8,4.5,5.8,4.2z
		 M2.8,6.6c-0.3,0-0.5,0-0.7,0c-0.8,0-0.8,0-0.8,0.8c0,11.9,0,23.8,0,35.6c0,0.7,0.1,0.8,0.8,0.8c7.4,0,14.8,0,22.2,0
		c0.2,0,0.3,0,0.5,0c0-0.5,0-0.9-0.1-1.4c-0.2,0-0.4,0-0.6,0c-6.4,0-12.9,0-19.3,0c-1.4,0-1.9-0.6-1.9-1.9c0-11.1,0-22.2,0-33.3
		C2.8,7,2.8,6.8,2.8,6.6z M44,27.9c0-1.5,0-3,0-4.5c0-1.1-0.7-1.8-1.8-1.8c-4.9,0-9.7,0-14.6,0c-1.1,0-1.8,0.7-1.8,1.8
		c0,1.4,0,2.7,0,4.1c0,0.1,0,0.3,0,0.4C31.8,27.9,37.9,27.9,44,27.9z M27.2,1.9c0,1.1,0,2.1,0,3.2c0,1.4,1,2.6,2.4,2.7
		c1.1,0.1,2.1,0,3.3,0C31.1,5.8,29.2,3.9,27.2,1.9z"/>
	<path class="st32" d="M20.3,5.6c4.4,0,8.1,3.6,8.1,8c0,4.5-3.6,8.1-8,8.1c-4.5,0-8.1-3.6-8.1-8.1C12.2,9.2,15.8,5.6,20.3,5.6z
		 M15.8,8.3c-2.4,1.8-3.2,5.4-1.9,8.3c1.4,3,4.6,4.6,7.9,3.9c2.9-0.6,5.4-3.4,5.4-6.1c-0.2,0-0.3,0-0.5,0c-2,0-4,0-6,0
		c-0.5,0-0.8-0.2-1.1-0.6C18.3,12,17.1,10.2,15.8,8.3z M16.7,7.7c1.2,1.7,2.3,3.4,3.5,5.1c1.5-1.5,3-3,4.5-4.5
		C22.9,6.5,18.9,6.1,16.7,7.7z M25.6,9.2c-1.4,1.4-2.7,2.7-4,4c1.8,0,3.7,0,5.6,0C27.1,11.7,26.6,10.3,25.6,9.2z"/>
	<path class="st32" d="M8.4,10.5c0-1.1,0-2.3,0-3.4c0-0.5,0.2-0.7,0.5-0.7c0.4,0,0.6,0.2,0.6,0.7c0,2.3,0,4.6,0,6.9
		c0,0.5-0.2,0.7-0.6,0.7c-0.4,0-0.5-0.2-0.5-0.7C8.4,12.8,8.4,11.6,8.4,10.5z"/>
	<path class="st32" d="M16.6,29c-0.9,0-1.7,0-2.6,0c-0.5,0-0.8-0.2-0.8-0.6c0-0.4,0.3-0.5,0.7-0.5c1.8,0,3.5,0,5.3,0
		c0.5,0,0.7,0.2,0.7,0.5c0,0.4-0.3,0.6-0.8,0.6C18.4,29,17.5,29,16.6,29z"/>
	<path class="st32" d="M17.2,33.6c-0.5,0-0.9,0-1.4,0c-0.4,0-0.6-0.2-0.6-0.6c0-0.4,0.3-0.5,0.6-0.5c0.9,0,1.8,0,2.8,0
		c0.4,0,0.6,0.2,0.6,0.6c0,0.4-0.3,0.5-0.6,0.5C18.1,33.6,17.7,33.6,17.2,33.6z"/>
	<path class="st32" d="M12.4,32.5c0.4,0,0.8,0,1.1,0c0.4,0,0.6,0.2,0.6,0.5c0,0.4-0.2,0.5-0.6,0.5c-0.8,0-1.5,0-2.3,0
		c-0.4,0-0.6-0.2-0.6-0.5c0-0.4,0.2-0.5,0.6-0.5C11.6,32.5,12,32.5,12.4,32.5z"/>
	<path class="st32" d="M11.4,29c-0.1,0-0.2,0-0.4,0c-0.3-0.1-0.5-0.3-0.4-0.6c0-0.4,0.3-0.5,0.9-0.5c0.4,0,0.7,0.1,0.7,0.5
		c0,0.3-0.2,0.5-0.5,0.6C11.7,29,11.6,29,11.4,29C11.4,29,11.4,29,11.4,29z"/>
	<path class="st32" d="M9.5,4.6c0,0.4-0.1,0.7-0.5,0.7C8.7,5.3,8.4,5,8.4,4.6C8.4,4.2,8.6,3.9,9,4C9.4,4,9.5,4.2,9.5,4.6z"/>
	<path class="st11" d="M29.6,43.7c-1.2,0-2.2-1-2.1-2.2c0-1.2,1-2.2,2.2-2.2c1.2,0,2.2,1,2.2,2.2C31.8,42.7,30.9,43.7,29.6,43.7z
		 M29.7,42.6c0.6,0,1.1-0.5,1.1-1.1c0-0.6-0.5-1.1-1.1-1.1c-0.6,0-1.1,0.5-1.1,1.1C28.6,42.1,29,42.6,29.7,42.6z"/>
	<path class="st11" d="M40,43.7c-1.2,0-2.2-1-2.2-2.2c0-1.2,1-2.2,2.2-2.2c1.2,0,2.2,1,2.1,2.2C42.2,42.7,41.3,43.7,40,43.7z
		 M40.1,42.6c0.6,0,1.1-0.5,1.1-1.1c0-0.6-0.5-1.1-1.1-1.1c-0.6,0-1.1,0.5-1.1,1.1C39,42.1,39.4,42.6,40.1,42.6z"/>
	<path class="st11" d="M42.2,36.7c0,1.2-1,2.2-2.3,2.1c-1.2,0-2.1-1-2.1-2.2c0-1.2,1-2.2,2.2-2.2C41.3,34.5,42.3,35.5,42.2,36.7z
		 M41.2,36.7c0-0.6-0.5-1.1-1.1-1.1c-0.6,0-1.1,0.5-1.1,1.1c0,0.6,0.5,1.1,1.1,1.1C40.7,37.8,41.2,37.3,41.2,36.7z"/>
	<path class="st11" d="M29.6,38.9c-1.2,0-2.2-1-2.2-2.2c0-1.2,1-2.2,2.2-2.2c1.2,0,2.2,1,2.2,2.2C31.9,37.9,30.9,38.9,29.6,38.9z
		 M29.7,37.8c0.6,0,1.1-0.5,1.1-1.1c0-0.6-0.5-1.1-1.1-1.1c-0.6,0-1.1,0.5-1.1,1.1C28.6,37.3,29.1,37.8,29.7,37.8z"/>
	<path class="st11" d="M42.3,31.8c0,1.2-0.9,2.2-2.2,2.2c-1.2,0-2.2-0.9-2.2-2.1c0-1.2,0.9-2.2,2.2-2.2
		C41.2,29.6,42.2,30.6,42.3,31.8z M40.1,32.9c0.6,0,1.1-0.5,1.1-1.1c0-0.6-0.5-1.1-1.1-1.1c-0.6,0-1.1,0.5-1.1,1.1
		C39,32.4,39.5,32.9,40.1,32.9z"/>
	<path class="st11" d="M32.7,31.8c0-1.2,1-2.2,2.3-2.1c1.2,0,2.1,1,2.1,2.2c0,1.2-1,2.2-2.3,2.1C33.6,34,32.7,33,32.7,31.8z
		 M34.9,32.9c0.6,0,1.1-0.5,1.1-1.1c0-0.6-0.5-1.1-1.1-1.1c-0.6,0-1.1,0.5-1.1,1.1C33.8,32.4,34.3,32.9,34.9,32.9z"/>
	<path class="st11" d="M34.9,43.7c-1.2,0-2.2-1-2.2-2.2c0-1.2,1-2.2,2.2-2.2c1.2,0,2.2,1,2.2,2.2C37.1,42.7,36.1,43.7,34.9,43.7z
		 M36,41.5c0-0.6-0.5-1.1-1.1-1.1c-0.6,0-1.1,0.5-1.1,1.1c0,0.6,0.5,1.1,1.1,1.1C35.5,42.6,36,42.1,36,41.5z"/>
	<path class="st11" d="M34.9,38.9c-1.2,0-2.2-1-2.2-2.2c0-1.2,1-2.2,2.2-2.2c1.2,0,2.2,1,2.2,2.2C37.1,37.9,36.1,38.9,34.9,38.9z
		 M36,36.7c0-0.6-0.5-1.1-1.1-1.1c-0.6,0-1.1,0.5-1.1,1.1c0,0.6,0.5,1.1,1.1,1.1C35.5,37.8,36,37.3,36,36.7z"/>
	<path class="st11" d="M29.7,34c-1.2,0-2.2-1-2.2-2.2c0-1.2,1-2.2,2.2-2.2c1.2,0,2.2,1,2.2,2.2C31.9,33,30.9,34,29.7,34z M29.7,32.9
		c0.6,0,1.1-0.5,1.1-1.1c0-0.6-0.5-1.1-1.1-1.1c-0.6,0-1.1,0.5-1.1,1.1C28.6,32.5,29.1,32.9,29.7,32.9z"/>
	<path class="st11" d="M34.9,22.8c2.3,0,4.5,0,6.8,0c0.7,0,0.8,0.2,0.8,0.8c0,0.9,0,1.8,0,2.7c0,0.5-0.2,0.7-0.7,0.7
		c-4.6,0-9.2,0-13.8,0c-0.5,0-0.7-0.2-0.7-0.7c0-0.9,0-1.9,0-2.8c0-0.6,0.2-0.8,0.8-0.8C30.3,22.8,32.6,22.8,34.9,22.8z M28.4,25.9
		c4.3,0,8.6,0,12.9,0c0-0.7,0-1.4,0-2c-4.3,0-8.6,0-12.9,0C28.4,24.6,28.4,25.2,28.4,25.9z"/>
</g>
</svg>
