<?xml version="1.0" encoding="utf-8"?>
<!-- Generator: Adobe Illustrator 25.2.3, SVG Export Plug-In . SVG Version: 6.00 Build 0)  -->
<svg version="1.1" id="Layer_1" xmlns="http://www.w3.org/2000/svg" xmlns:xlink="http://www.w3.org/1999/xlink" x="0px" y="0px"
	 viewBox="0 0 20.9 26.1" style="enable-background:new 0 0 20.9 26.1;" xml:space="preserve">
<style type="text/css">
	.st0{fill:#1C202E;}
	.st1{opacity:0.4;fill:url(#SVGID_7_);}
	.st2{fill:#FFFFFF;}
	.st3{opacity:0.1;fill:none;stroke:#FFFFFF;stroke-miterlimit:10;}
	.st4{clip-path:url(#SVGID_9_);fill:url(#SVGID_10_);}
	.st5{clip-path:url(#SVGID_12_);fill:url(#SVGID_13_);}
	.st6{fill:#959595;}
	.st7{fill:none;stroke:#FFFFFF;stroke-miterlimit:10;}
	.st8{fill:none;stroke:#FFFFFF;stroke-linecap:round;stroke-miterlimit:10;}
	.st9{fill:none;stroke:#FFFFFF;stroke-width:1.3;stroke-linecap:round;stroke-linejoin:round;stroke-miterlimit:10;}
	.st10{opacity:0.6;}
	.st11{fill:#C3AD86;}
	.st12{opacity:0.44;clip-path:url(#SVGID_15_);fill:#FFFFFF;}
	.st13{fill:none;stroke:#C3AD86;stroke-linecap:round;stroke-linejoin:round;stroke-miterlimit:10;}
	.st14{opacity:0.4;}
	.st15{fill:#262B3E;}
	.st16{fill:url(#SVGID_16_);}
	.st17{opacity:0.5;}
	.st18{fill:#E7E7E7;}
	.st19{fill:none;stroke:#F3F1F1;stroke-width:1.7;stroke-miterlimit:10;}
	.st20{opacity:0.15;clip-path:url(#SVGID_18_);}
	.st21{fill:url(#SVGID_19_);}
	.st22{fill:url(#SVGID_20_);}
	.st23{fill:#EEEAE2;}
	.st24{fill:#C4AE87;}
	.st25{opacity:0.72;}
	.st26{opacity:0.7;fill:#262B3E;}
	.st27{opacity:0.9;fill:url(#SVGID_33_);}
	.st28{fill:none;stroke:#1C202E;stroke-width:1.5;stroke-linecap:round;stroke-linejoin:round;stroke-miterlimit:10;}
	.st29{opacity:0.44;}
	.st30{opacity:0.55;fill:#FFFFFF;}
	.st31{opacity:0.55;}
	.st32{fill:#C3AD86;stroke:#C3AD86;stroke-width:0.25;stroke-miterlimit:10;}
	.st33{clip-path:url(#SVGID_35_);fill:url(#SVGID_36_);}
	.st34{clip-path:url(#SVGID_38_);fill:url(#SVGID_39_);}
	.st35{fill:#30364E;stroke:#3C4157;stroke-miterlimit:10;}
</style>
<g>
	<path class="st23" d="M10.2,26.1C9.7,26,9.3,25.8,9,25.5c-0.3-0.3-0.3-0.5-0.1-0.7c0.2-0.2,0.4-0.2,0.7,0.1c0.6,0.5,1.3,0.5,1.8,0
		c0.1-0.1,0.2-0.3,0.4-0.5c-0.4,0-0.7,0-1,0c-0.2,0-0.5,0-0.7,0c-0.3,0-0.5-0.2-0.4-0.5c0-0.2,0.2-0.4,0.5-0.4c0.7,0,1.3,0,2,0
		c0.1,0,0.2,0,0.3,0c0.2-0.1,0.3-0.2,0.3-0.4c0-0.2-0.1-0.4-0.4-0.4c-0.2,0-0.3,0-0.5,0c-0.3,0-0.5-0.2-0.5-0.4
		c0-0.3,0.2-0.4,0.5-0.4c0.2,0,0.3,0,0.5,0c0.2,0,0.3-0.2,0.3-0.4c0-0.2-0.1-0.4-0.4-0.4c-0.2,0-0.3,0-0.5,0c-0.3,0-0.5-0.2-0.5-0.4
		c0-0.2,0.2-0.4,0.5-0.4c0,0,0.1,0,0.1,0c0.6,0,0.8-0.2,0.7-0.9c-0.1,0-0.1,0-0.2,0c-0.2,0-0.4,0-0.6,0c-0.3,0-0.4-0.2-0.4-0.4
		c0-0.2,0.2-0.4,0.4-0.4c0.3,0,0.7,0,1,0c0.6,0,0.7-0.1,0.7-0.7c0-0.2,0-0.3,0-0.5c0-0.8,0.3-1.5,0.9-2c0.6-0.5,1.1-1.1,1.4-1.8
		c1-2.1,0.9-4.2-0.4-6.2c-1.1-1.6-2.7-2.5-4.6-2.7C9,4.3,7.4,4.9,6.1,6.2C4.8,7.5,4.2,9.1,4.4,11c0.1,1.5,0.7,2.8,1.8,3.9
		c0,0,0,0,0.1,0.1c0.9,0.6,1.2,1.5,1.1,2.5c-0.1,0.8,0,0.9,0.8,0.9c0.7,0,1.3,0,2,0c0.1,0,0.2,0,0.3,0c0.2,0.1,0.3,0.2,0.3,0.4
		c0,0.2-0.1,0.4-0.4,0.4c-0.1,0-0.2,0-0.4,0c-0.6,0-1.2,0-1.9,0c0,0.1,0,0.2,0,0.3c0,0.4,0.2,0.5,0.5,0.5c0.3,0,0.6,0,0.9,0
		c0.2,0,0.4,0,0.7,0c0.3,0,0.5,0.2,0.5,0.4c0,0.3-0.2,0.4-0.5,0.4c-0.5,0-1,0-1.5,0c-0.1,0-0.2,0-0.3,0c-0.2,0-0.3,0.2-0.4,0.4
		c0,0.2,0.1,0.4,0.3,0.4c0.1,0,0.3,0,0.4,0c0.5,0,0.9,0,1.4,0c0.3,0,0.5,0.2,0.5,0.4c0,0.3-0.2,0.4-0.5,0.4c-0.5,0-1,0-1.5,0
		c-0.1,0-0.2,0-0.3,0c-0.2,0-0.3,0.2-0.3,0.4c0,0.2,0.1,0.4,0.3,0.4c0.1,0,0.1,0,0.2,0C9,23.6,9.2,23.7,9.1,24
		c0,0.2-0.2,0.4-0.5,0.4c-1-0.1-1.5-1.2-1-2c0-0.1,0.1-0.1,0.1-0.2c-0.4-0.8-0.4-1.1,0-1.8c-0.3-0.3-0.3-0.8-0.3-1.2
		c0-0.1-0.1-0.2-0.1-0.2c-0.5-0.3-0.7-0.7-0.7-1.2c0-0.3,0-0.5,0-0.8c0-0.5-0.2-0.9-0.5-1.2c-0.6-0.5-1-1-1.4-1.6
		c-0.8-1.3-1.2-2.8-1-4.4c0.2-2.2,1.3-4,3.2-5.2c1.9-1.2,4-1.5,6.1-0.6c2.3,0.9,3.8,2.6,4.4,5c0.4,1.9,0.1,3.7-1,5.3
		c-0.4,0.5-0.8,1-1.3,1.4c-0.4,0.4-0.6,0.8-0.6,1.3c0,0.3,0,0.5,0,0.8c0,0.5-0.2,0.9-0.7,1.2c-0.1,0.1-0.2,0.2-0.2,0.3
		c0,0.4,0,0.8-0.3,1.2c0.4,0.8,0.4,1.1,0,1.8c0.2,0.3,0.4,0.7,0.3,1.1c-0.1,0.4-0.3,0.8-0.7,1c-0.1,0-0.2,0.1-0.2,0.2
		c-0.2,0.9-0.8,1.4-1.7,1.6c0,0-0.1,0-0.1,0C10.6,26.1,10.4,26.1,10.2,26.1z"/>
	<path class="st23" d="M10,11.3c0.3,0,0.6,0,0.9,0c0-0.4,0-0.7,0-1c0.1-0.8,0.8-1.5,1.7-1.5c0.9,0,1.6,0.6,1.8,1.4
		c0.2,1.1-0.6,2-1.7,2c-0.3,0-0.5,0-0.8,0c0,0.1,0,0.2,0,0.3c0,1.4,0,2.8,0,4.2c0,0.1,0,0.2,0,0.4c-0.1,0.2-0.2,0.3-0.4,0.3
		c-0.2,0-0.4-0.1-0.4-0.3c0-0.1,0-0.2,0-0.3c0-1.4,0-2.8,0-4.2c0-0.1,0-0.2,0-0.3c-0.3,0-0.6,0-0.9,0c0,0.1,0,0.2,0,0.3
		c0,1.4,0,2.8,0,4.2c0,0.5-0.1,0.7-0.4,0.7c-0.3,0-0.4-0.2-0.4-0.7c0-1.4,0-2.8,0-4.2c0-0.1,0-0.2,0-0.3c-0.3,0-0.6,0-0.9,0
		c-0.7,0-1.3-0.4-1.6-1.1C6.4,10.5,6.5,9.8,7,9.3c0.4-0.5,1.2-0.7,1.8-0.5C9.5,9,9.9,9.6,10,10.3C10,10.6,10,10.9,10,11.3z
		 M9.1,11.3c0-0.3,0-0.6,0-0.9c0-0.5-0.4-0.8-0.9-0.8c-0.5,0-0.8,0.3-0.9,0.8c0,0.5,0.3,0.9,0.8,0.9C8.5,11.3,8.8,11.3,9.1,11.3z
		 M11.8,11.3c0.4,0,0.7,0,1.1-0.1c0.4-0.1,0.7-0.5,0.6-0.9c-0.1-0.4-0.4-0.7-0.8-0.8c-0.4,0-0.8,0.3-0.9,0.7
		C11.7,10.6,11.8,10.9,11.8,11.3z"/>
	<path class="st23" d="M10.9,1.3c0,0.3,0,0.5,0,0.8c0,0.3-0.2,0.5-0.4,0.5c-0.3,0-0.4-0.2-0.4-0.5c0-0.5,0-1.1,0-1.6
		C10,0.2,10.2,0,10.4,0c0.3,0,0.4,0.2,0.4,0.5C10.9,0.8,10.9,1,10.9,1.3z"/>
	<path class="st23" d="M14.6,3.7c-0.4,0-0.6-0.3-0.4-0.6c0.3-0.5,0.6-1,0.9-1.6c0.1-0.2,0.4-0.3,0.6-0.1c0.2,0.1,0.3,0.4,0.2,0.6
		c-0.3,0.5-0.6,1-0.9,1.6C14.8,3.6,14.7,3.7,14.6,3.7z"/>
	<path class="st23" d="M1.7,5C1.9,5,2,5,2,5.1C2.5,5.4,3,5.6,3.4,5.9C3.6,6,3.8,6.2,3.7,6.4C3.6,6.7,3.4,6.8,3.1,6.7
		C2.6,6.4,2,6.1,1.5,5.8C1.3,5.7,1.3,5.5,1.4,5.3C1.4,5.2,1.6,5.1,1.7,5z"/>
	<path class="st23" d="M6.7,3.3c0,0.2-0.1,0.4-0.3,0.4C6.2,3.8,6,3.7,5.9,3.5C5.6,3,5.4,2.5,5.1,2c0,0,0-0.1-0.1-0.1
		C5,1.7,5,1.5,5.2,1.4c0.2-0.1,0.4-0.1,0.5,0.1c0.3,0.5,0.6,1.1,1,1.6C6.7,3.2,6.7,3.2,6.7,3.3z"/>
	<path class="st23" d="M19.1,4.9c0.1,0.1,0.3,0.2,0.4,0.3c0.1,0.2,0,0.4-0.2,0.5c-0.3,0.2-0.5,0.3-0.8,0.5c-0.2,0.1-0.5,0.3-0.7,0.4
		c-0.2,0.1-0.5,0.1-0.6-0.1c-0.1-0.2-0.1-0.4,0.1-0.6c0.5-0.3,1-0.6,1.6-0.9C19,5,19,5,19.1,4.9C19.1,5,19.1,5,19.1,4.9z"/>
	<path class="st23" d="M1.7,15.9c-0.1-0.1-0.3-0.2-0.3-0.3c-0.1-0.2,0-0.4,0.1-0.5c0.2-0.1,0.4-0.2,0.6-0.4c0.3-0.2,0.6-0.3,0.9-0.5
		c0.3-0.2,0.5-0.1,0.7,0.1c0.1,0.2,0.1,0.5-0.2,0.6c-0.5,0.3-0.9,0.5-1.4,0.8C2,15.8,1.9,15.8,1.7,15.9z"/>
	<path class="st23" d="M19.5,15.4c0,0.4-0.3,0.6-0.6,0.5c-0.5-0.3-1.1-0.6-1.6-0.9c-0.2-0.1-0.2-0.3-0.1-0.5
		c0.1-0.2,0.3-0.3,0.5-0.2c0.6,0.3,1.1,0.6,1.6,0.9C19.5,15.2,19.5,15.3,19.5,15.4z"/>
	<path class="st23" d="M1.3,10.9c-0.3,0-0.6,0-0.8,0c-0.3,0-0.4-0.2-0.5-0.4C0,10.2,0.2,10,0.4,10c0.6,0,1.2,0,1.8,0
		c0.3,0,0.4,0.2,0.4,0.5c0,0.2-0.2,0.4-0.5,0.4C1.9,10.9,1.6,10.9,1.3,10.9z"/>
	<path class="st23" d="M19.6,10.9c-0.3,0-0.6,0-0.8,0c-0.3,0-0.4-0.2-0.5-0.4c0-0.2,0.2-0.4,0.4-0.4c0.6,0,1.2,0,1.7,0
		c0.3,0,0.5,0.2,0.4,0.5c0,0.2-0.2,0.4-0.5,0.4C20.1,10.9,19.8,10.9,19.6,10.9z"/>
</g>
</svg>
