<?xml version="1.0" encoding="utf-8"?>
<!-- Generator: Adobe Illustrator 25.2.3, SVG Export Plug-In . SVG Version: 6.00 Build 0)  -->
<svg version="1.1" id="Layer_1" xmlns="http://www.w3.org/2000/svg" xmlns:xlink="http://www.w3.org/1999/xlink" x="0px" y="0px"
	 viewBox="0 0 50.6 41.1" style="enable-background:new 0 0 50.6 41.1;" xml:space="preserve">
<style type="text/css">
	.st0{fill:#1C202E;}
	.st1{opacity:0.4;fill:url(#SVGID_7_);}
	.st2{fill:#FFFFFF;}
	.st3{opacity:0.1;fill:none;stroke:#FFFFFF;stroke-miterlimit:10;}
	.st4{clip-path:url(#SVGID_9_);fill:url(#SVGID_10_);}
	.st5{clip-path:url(#SVGID_12_);fill:url(#SVGID_13_);}
	.st6{fill:#959595;}
	.st7{fill:none;stroke:#FFFFFF;stroke-miterlimit:10;}
	.st8{fill:none;stroke:#FFFFFF;stroke-linecap:round;stroke-miterlimit:10;}
	.st9{fill:none;stroke:#FFFFFF;stroke-width:1.3;stroke-linecap:round;stroke-linejoin:round;stroke-miterlimit:10;}
	.st10{opacity:0.6;}
	.st11{fill:#C3AD86;}
	.st12{opacity:0.44;clip-path:url(#SVGID_15_);fill:#FFFFFF;}
	.st13{fill:none;stroke:#C3AD86;stroke-linecap:round;stroke-linejoin:round;stroke-miterlimit:10;}
	.st14{opacity:0.4;}
	.st15{fill:#262B3E;}
	.st16{fill:url(#SVGID_16_);}
	.st17{opacity:0.5;}
	.st18{fill:#E7E7E7;}
	.st19{fill:none;stroke:#F3F1F1;stroke-width:1.7;stroke-miterlimit:10;}
	.st20{opacity:0.15;clip-path:url(#SVGID_18_);}
	.st21{fill:url(#SVGID_19_);}
	.st22{fill:url(#SVGID_20_);}
	.st23{fill:#EEEAE2;}
	.st24{fill:#C4AE87;}
	.st25{opacity:0.72;}
	.st26{opacity:0.7;fill:#262B3E;}
	.st27{opacity:0.9;fill:url(#SVGID_33_);}
	.st28{fill:none;stroke:#1C202E;stroke-width:1.5;stroke-linecap:round;stroke-linejoin:round;stroke-miterlimit:10;}
	.st29{opacity:0.44;}
	.st30{opacity:0.55;fill:#FFFFFF;}
	.st31{opacity:0.55;}
	.st32{fill:#C3AD86;stroke:#C3AD86;stroke-width:0.25;stroke-miterlimit:10;}
	.st33{clip-path:url(#SVGID_35_);fill:url(#SVGID_36_);}
	.st34{clip-path:url(#SVGID_38_);fill:url(#SVGID_39_);}
	.st35{fill:#30364E;stroke:#3C4157;stroke-miterlimit:10;}
</style>
<g>
	<path class="st11" d="M0,11.6c0.8-1.4,1.7-2.8,2.5-4.3c1.1-2,2.3-3.9,3.4-5.9C6.4,0.4,7.2,0,8.3,0c11.3,0,22.6,0,34,0
		c1.2,0,2,0.5,2.5,1.5c1.8,3.2,3.6,6.4,5.5,9.6c0.4,0.7,0.3,1.5,0.2,2.2c-0.4,1.8-1.3,3.1-2.7,4.2c-0.2,0.1-0.3,0.4-0.3,0.5
		c0,7.1,0,14.2,0,21.3c0,0.1,0,0.2,0,0.3c0.3,0,0.5,0,0.8,0c0.5,0,0.8,0.3,0.8,0.7c0,0.4-0.3,0.7-0.8,0.8c-0.1,0-0.3,0-0.4,0
		c-15,0-30,0-45,0c-0.2,0-0.4,0-0.5,0c-0.4-0.1-0.7-0.4-0.7-0.8c0-0.4,0.3-0.7,0.7-0.7c0.3,0,0.5,0,0.9,0c0-0.2,0-0.3,0-0.5
		c0-7,0-14,0-21.1c0-0.3-0.1-0.5-0.4-0.7c-1.5-1.1-2.4-2.6-2.7-4.4c0-0.1-0.1-0.2-0.1-0.3C0,12.3,0,11.9,0,11.6z M1.5,12.6
		c0.3,1.8,1.2,3.1,2.7,3.9c1.9,1.1,3.8,1,5.7-0.2c1.3-0.9,2.1-2.1,2.4-3.7c-0.5,0-1,0-1.5,0c-1.2,0-2.4,0-3.7,0
		c-0.4,0-0.7-0.3-0.8-0.7c0-0.4,0.3-0.7,0.7-0.8c0.1,0,0.3,0,0.4,0c11.9,0,23.8,0,35.6,0c0.2,0,0.4,0,0.6,0c0.4,0.1,0.6,0.4,0.6,0.8
		c0,0.4-0.4,0.7-0.9,0.7c-1.5,0-3,0-4.4,0c-0.2,0-0.3,0-0.5,0c0.2,2.8,3,4.9,5.9,4.6c2.4-0.2,4.8-2.7,4.6-4.6c-0.7,0-1.3,0-2,0
		c-0.7,0-1.1-0.3-1-0.7c0-0.5,0.4-0.7,1.1-0.7c0.5,0,1,0,1.5,0c-0.1-0.2-0.2-0.4-0.3-0.5c-1.6-2.8-3.2-5.6-4.8-8.4
		c-0.3-0.5-0.7-0.7-1.2-0.7c-11.3,0-22.6,0-34,0c-0.6,0-0.9,0.2-1.2,0.7C5.5,5,3.9,7.8,2.3,10.6c-0.1,0.1-0.1,0.3-0.3,0.5
		c0.6,0,1.1,0,1.7,0c0.6,0,0.9,0.3,0.9,0.7c0,0.5-0.3,0.7-0.9,0.7C3,12.6,2.3,12.6,1.5,12.6z M4.7,18.4c0,7.1,0,14.1,0,21.2
		c9.3,0,18.5,0,27.8,0c0-0.2,0-0.4,0-0.6c0-5.7,0-11.5,0-17.2c0-0.9,0.2-1.1,1.1-1.1c2.9,0,5.8,0,8.7,0c1,0,1.2,0.2,1.2,1.2
		c0,5.7,0,11.5,0,17.2c0,0.2,0,0.4,0,0.6c0.9,0,1.6,0,2.4,0c0-7.1,0-14.1,0-21.2c-3.6,0.9-6.4-0.2-8.3-3.4c-1.4,2.4-3.4,3.7-6.1,3.7
		c-2.7,0-4.7-1.3-6.1-3.7c-1.4,2.4-3.4,3.7-6.1,3.7c-2.8,0-4.7-1.4-6.1-3.7C11,18.2,8.8,19.1,4.7,18.4z M42,22.1c-2.7,0-5.3,0-8,0
		c0,4.5,0,9,0,13.5c2.7,0,5.3,0,8,0C42,31.1,42,26.6,42,22.1z M36.7,12.6c-3.6,0-7.1,0-10.6,0c0.1,2.4,2.5,4.6,5.2,4.6
		C34.1,17.3,36.6,15.2,36.7,12.6z M13.9,12.6c0,2.4,2.6,4.7,5.3,4.6c2.7,0,5.3-2.3,5.2-4.6C20.9,12.6,17.4,12.6,13.9,12.6z M42,37.2
		c-2.7,0-5.3,0-8,0c0,0.8,0,1.6,0,2.4c2.7,0,5.3,0,8,0C42,38.8,42,38,42,37.2z"/>
	<path class="st11" d="M18.5,20.6c3.5,0,6.9,0,10.4,0c0.9,0,1.1,0.2,1.1,1.1c0,4.8,0,9.6,0,14.3c0,0.9-0.2,1.1-1.1,1.1
		c-6.9,0-13.8,0-20.7,0c-0.9,0-1.1-0.2-1.1-1.1c0-4.8,0-9.6,0-14.4c0-0.9,0.2-1.1,1.1-1.1C11.6,20.6,15.1,20.6,18.5,20.6z
		 M28.5,22.1c-6.7,0-13.3,0-19.9,0c0,4.5,0,9,0,13.5c6.6,0,13.2,0,19.9,0C28.5,31.1,28.5,26.7,28.5,22.1z"/>
</g>
</svg>
