<?xml version="1.0" encoding="utf-8"?>
<!-- Generator: Adobe Illustrator 25.2.3, SVG Export Plug-In . SVG Version: 6.00 Build 0)  -->
<svg version="1.1" id="Layer_1" xmlns="http://www.w3.org/2000/svg" xmlns:xlink="http://www.w3.org/1999/xlink" x="0px" y="0px"
	 viewBox="0 0 46.5 46.5" style="enable-background:new 0 0 46.5 46.5;" xml:space="preserve">
<style type="text/css">
	.st0{fill:#1C202E;}
	.st1{opacity:0.4;fill:url(#SVGID_7_);}
	.st2{fill:#FFFFFF;}
	.st3{opacity:0.1;fill:none;stroke:#FFFFFF;stroke-miterlimit:10;}
	.st4{clip-path:url(#SVGID_9_);fill:url(#SVGID_10_);}
	.st5{clip-path:url(#SVGID_12_);fill:url(#SVGID_13_);}
	.st6{fill:#959595;}
	.st7{fill:none;stroke:#FFFFFF;stroke-miterlimit:10;}
	.st8{fill:none;stroke:#FFFFFF;stroke-linecap:round;stroke-miterlimit:10;}
	.st9{fill:none;stroke:#FFFFFF;stroke-width:1.3;stroke-linecap:round;stroke-linejoin:round;stroke-miterlimit:10;}
	.st10{opacity:0.6;}
	.st11{fill:#C3AD86;}
	.st12{opacity:0.44;clip-path:url(#SVGID_15_);fill:#FFFFFF;}
	.st13{fill:none;stroke:#C3AD86;stroke-linecap:round;stroke-linejoin:round;stroke-miterlimit:10;}
	.st14{opacity:0.4;}
	.st15{fill:#262B3E;}
	.st16{fill:url(#SVGID_16_);}
	.st17{opacity:0.5;}
	.st18{fill:#E7E7E7;}
	.st19{fill:none;stroke:#F3F1F1;stroke-width:1.7;stroke-miterlimit:10;}
	.st20{opacity:0.15;clip-path:url(#SVGID_18_);}
	.st21{fill:url(#SVGID_19_);}
	.st22{fill:url(#SVGID_20_);}
	.st23{fill:#EEEAE2;}
	.st24{fill:#C4AE87;}
	.st25{opacity:0.72;}
	.st26{opacity:0.7;fill:#262B3E;}
	.st27{opacity:0.9;fill:url(#SVGID_33_);}
	.st28{fill:none;stroke:#1C202E;stroke-width:1.5;stroke-linecap:round;stroke-linejoin:round;stroke-miterlimit:10;}
	.st29{opacity:0.44;}
	.st30{opacity:0.55;fill:#FFFFFF;}
	.st31{opacity:0.55;}
	.st32{fill:#C3AD86;stroke:#C3AD86;stroke-width:0.25;stroke-miterlimit:10;}
	.st33{clip-path:url(#SVGID_35_);fill:url(#SVGID_36_);}
	.st34{clip-path:url(#SVGID_38_);fill:url(#SVGID_39_);}
	.st35{fill:#30364E;stroke:#3C4157;stroke-miterlimit:10;}
</style>
<g>
	<path class="st11" d="M12.3,0c0.5,0,1.1,0,1.6,0c0.1,0,0.2,0.1,0.3,0.1c3.7,0.4,7.1,3.3,7.8,7c0.2,1.2,0.2,2.4,0.3,3.6
		c0,0.2,0,0.4,0.1,0.6c0.7,1.2,0.2,2.8-1.4,3.4c-0.3,0.1-0.4,0.3-0.5,0.6c-0.2,2.5-1.2,4.5-3.3,5.8c-0.7,0.5-0.9,0.9-0.8,1.6
		c0,0.1,0.1,0.3,0.1,0.3c0.6,0.3,1.2,0.6,1.8,0.8c0.2,0.1,0.4,0,0.6-0.1c0.8-0.7,1.7-1.2,2.8-1.3c0.8-0.1,1.5-0.1,2.3-0.2
		c0-0.1-0.1-0.3-0.1-0.5c-0.1-0.9-0.1-1.8-0.2-2.7c-0.1-2.4-0.3-4.7-0.4-7.1c-0.1-1.9,0-3.7,0.6-5.5c0.6-1.6,1.5-2.8,3.1-3.4
		c0.2-0.1,0.3-0.2,0.4-0.3c0.7-0.9,1.7-1.6,2.8-2c0.7-0.2,1.5-0.4,2.2-0.6c0.6,0,1.2,0,1.8,0c0.4,0.1,0.9,0.1,1.3,0.2
		c2.7,0.7,4.7,2.3,6.1,4.7c0.5,1,0.9,2,1.1,3.1c0.1,0.5-0.1,0.8-0.5,0.9C42,9,41.7,8.7,41.6,8.3c0-0.1-0.1-0.3-0.1-0.4
		c-0.6-2.6-2.1-4.5-4.4-5.7c-1.6-0.9-3.3-0.9-5.1-0.6c-1.4,0.2-2.5,0.9-3.4,2c-0.2,0.3-0.5,0.5-0.8,0.6c-0.9,0.3-1.6,0.9-2,1.8
		C25,7.2,24.8,8.5,24.8,10c0,1.4,0.1,2.9,0.2,4.3c0.1,2.3,0.3,4.6,0.4,6.9c0,0.5,0.1,0.6,0.7,0.6c1.1,0,2.3,0,3.4,0
		c0.1,0,0.2,0,0.3,0c0,0,0-0.1,0-0.1c-0.2-0.1-0.4-0.2-0.6-0.4c-2.1-1.4-3.4-3.3-3.5-5.8c-0.1-1.5-0.1-3-0.1-4.5
		c0-0.8,0.3-1.2,1.1-1.4c1-0.3,1.9-0.8,2.7-1.6c0.7-0.7,1.3-0.6,1.9,0.1c1,1.3,2.3,2.2,3.8,2.8c1.3,0.6,2.8,0.9,4.2,1
		c0.9,0.1,1.4,0.5,1.4,1.4c0,0.5,0,1,0,1.5c0,2.9-1.3,5.1-3.8,6.6c-0.1,0.1-0.2,0.2-0.4,0.2c0.1,0.1,0.1,0.1,0.1,0.1
		c1.3,0,2.6,0,3.9,0c0.3,0,0.5-0.2,0.5-0.5c0-0.7,0.1-1.4,0.1-2c0.1-2.5,0.3-5,0.4-7.4c0-0.7,0.2-1.1,0.7-1.1c0.5,0,0.7,0.4,0.7,1.1
		c-0.2,3.1-0.4,6.3-0.5,9.4c-0.1,1.3-0.7,1.9-2,1.9c-1.1,0-2.2,0-3.3,0c-0.1,0-0.3,0-0.4,0c0,0,0,0.1,0,0.1c0.1,0,0.3,0.1,0.4,0.1
		c1.5,0.4,3,0.7,4.5,1.2c1.7,0.5,2.8,1.7,3.2,3.4c0.2,0.7,0.2,1.5,0.3,2.2c0.4,3.1,0.7,6.2,1.1,9.4c0.1,1,0.2,1.9,0.4,2.9
		c0,0.4,0,0.8,0,1.3c-0.1,0.2-0.1,0.3-0.2,0.5c-0.4,1.3-1.2,2-2.5,2.2c-0.2,0-0.5,0-0.7,0c-2,0-3.9,0-5.9,0c-0.5,0-0.8-0.3-0.8-0.7
		c0-0.4,0.3-0.7,0.8-0.7c0.6,0,1.2,0,1.8,0c0.3,0,0.7,0,1,0c-0.2-3.6-0.4-7.1-0.6-10.6c0-0.7-0.1-1.4-0.1-2.1c0-0.5,0.3-0.8,0.7-0.8
		c0.4,0,0.7,0.3,0.7,0.7c0,0.6,0.1,1.2,0.1,1.8c0,0.2,0,0.5,0.1,0.8c1.2-0.1,2.3-0.3,3.4-0.4c-0.1-1-0.2-1.9-0.3-2.8
		c-0.1-0.9-0.2-1.8-0.3-2.8c-0.1-1.2-0.6-2.2-1.7-2.8c-0.5-0.3-1.1-0.5-1.6-0.7c-0.2,0.8-0.3,1.5-0.4,2.2c-0.6,2-2.1,2.8-4,2
		c-0.3-0.1-0.6-0.2-0.8-0.4c-0.6-0.4-1.1-0.7-1.7-1.1c-0.9,0.8-2,1.5-3.2,1.8c0,0.1,0,0.2,0.1,0.2c0.3,1.1-0.1,2.1-1.1,2.6
		c-0.5,0.2-0.7,0.5-0.8,0.9c-0.4,1.2-1.1,2.2-2.2,2.8c-0.4,0.2-0.3,0.5-0.2,0.8c0,0.1,0.3,0.2,0.4,0.3c0.8,0.2,1.6,0.4,2.4,0.6
		c1.3,0.4,2.2,1.2,2.4,2.5c0.2,0.8,0.2,1.5,0.3,2.3c0.1,0.7,0.2,1.3,0.2,2c0.7,0,1.3,0,1.9,0c0.7,0,1.1,0.2,1.1,0.7
		c0,0.5-0.3,0.7-1,0.7c-6.9,0-13.8,0-20.7,0c-0.1,0-0.3,0-0.4,0c-0.4-0.1-0.7-0.3-0.6-0.7c0-0.4,0.3-0.6,0.6-0.6c0.1,0,0.3,0,0.5,0
		c0.7,0,1.4,0,2.2,0c0-0.2,0-0.4,0.1-0.5c0.1-1.2,0.3-2.3,0.4-3.5c0.2-1.2,0.8-2.1,1.9-2.5c1-0.4,2-0.6,2.9-0.9
		c0.2-0.1,0.4-0.2,0.5-0.3c0.1-0.3,0.1-0.6-0.3-0.9c-1.1-0.7-1.9-1.7-2.2-3c-0.1-0.4-0.3-0.5-0.6-0.7c-1.4-0.5-1.8-2.1-0.9-3.2
		c0.1-0.1,0.2-0.3,0.2-0.4c0.1-0.8,0.1-1.6,0.2-2.4c-0.3,0.3-0.5,0.7-0.8,1c-0.6,0.7-1.4,0.7-2,0.2c-0.1-0.1-0.2-0.2-0.3-0.3
		c0,0.2,0,0.4,0,0.5c0,0.8,0,1.7,0,2.5c0,0.5-0.3,0.8-0.7,0.8c-0.4,0-0.7-0.3-0.7-0.8c0-0.9,0-1.8,0-2.7c0-0.1,0-0.2,0-0.4
		c-0.1,0.1-0.1,0.1-0.2,0.1c-0.9,0.8-1.6,0.7-2.3-0.2c-0.6-0.7-1.1-1.4-1.7-2.2c-0.2-0.2-0.3-0.3-0.5-0.2c-0.6,0.2-1.3,0.3-1.9,0.5
		c-1.7,0.5-2.8,1.5-2.9,3.3c-0.1,1.2-0.2,2.3-0.4,3.5c-0.1,0.7-0.2,1.4-0.2,2.1c1.2,0.1,2.3,0.2,3.5,0.4c0-0.2,0-0.4,0-0.6
		c0-0.7,0.1-1.3,0.1-2c0-0.5,0.3-0.7,0.7-0.7c0.4,0,0.6,0.3,0.6,0.8c0,0.1,0,0.1,0,0.2c-0.2,3.1-0.3,6.3-0.5,9.4
		c-0.1,1-0.1,2.1-0.2,3.2c0.8,0,1.6,0,2.4,0c0.5,0,0.8,0.3,0.8,0.7c0,0.4-0.3,0.7-0.8,0.7c-2,0-3.9,0-5.9,0c-1.9,0-3.2-1.3-3.2-3.2
		c0-0.5,0.1-1,0.1-1.4c0.5-4.3,1-8.5,1.4-12.8c0.2-1.5,0.7-2.8,1.9-3.7c0.8-0.6,1.7-0.8,2.7-1.1C7.1,24,8,23.6,8.9,23.3
		c0.7-0.2,0.9-0.6,0.8-1.3c0-0.3-0.1-0.5-0.4-0.6C7.1,20,5.9,18,5.6,15.3c0-0.4-0.2-0.5-0.5-0.7c-1.3-0.4-2-1.8-1.5-3
		c0.3-0.6,0.3-1.1,0.3-1.7c0-0.3,0-0.7,0-1C4,5.3,6.5,1.7,10.1,0.6C10.8,0.3,11.6,0.2,12.3,0z M19.4,13.4
		C19.4,13.4,19.4,13.4,19.4,13.4c-0.1-0.7,0-1.4-0.1-2c0-0.2-0.1-0.4-0.2-0.5c-0.9-0.7-1.3-1.6-1.4-2.7c0-0.4-0.2-0.5-0.5-0.4
		c-2.7,0.4-5.4,0.4-8.1,0C8.7,7.8,8.6,7.9,8.5,8.3c-0.1,1-0.5,1.9-1.3,2.5C7.1,11,7,11.2,7,11.4c0,1.2,0,2.4,0,3.6
		c0.1,3.8,3.3,6.5,7,6c2.6-0.3,4.7-2.3,5.2-4.9C19.4,15.2,19.4,14.3,19.4,13.4z M39.4,13.3c-3.6-0.2-6.6-1.5-9-4.2
		c-0.1,0-0.1,0-0.1,0.1c-0.8,0.8-1.8,1.4-2.9,1.7c-0.1,0-0.3,0.3-0.3,0.4c0,1.1,0,2.1,0,3.2c0,2.1,0.8,3.9,2.5,5.3
		c2.2,1.7,5.7,1.7,7.8-0.2C39.2,17.9,39.7,15.7,39.4,13.3z M21,10c0.3-2.5-0.8-5.6-3.6-7.4c-2.7-1.7-6.1-1.7-8.7,0.1
		C6.2,4.5,5.1,7,5.3,10.1C6.6,9.9,7,9.5,7.2,8.2c0-0.2,0-0.3,0.1-0.4c0.1-0.7,0.6-1.1,1.3-1.2c0.4,0,0.8,0,1.3,0c2,0.3,4,0.3,6,0.1
		c0.5-0.1,0.9-0.1,1.4-0.2c1.1-0.1,1.9,0.5,2,1.6C19.3,9.4,19.8,10,21,10z M19.5,45.1c2.5,0,5,0,7.4,0c0-0.5,0-1,0-1.4
		c0-0.5,0.5-0.8,0.9-0.6c0.2,0.1,0.4,0.5,0.4,0.7c0.1,0.4,0.1,0.8,0.1,1.3c0.6,0,1.2,0,1.8,0c-0.2-1.3-0.3-2.6-0.5-3.8
		c-0.1-0.8-0.6-1.3-1.3-1.6c-0.6-0.2-1.3-0.4-1.9-0.5c-0.1,0-0.3,0.1-0.4,0.2c-1.7,1.6-4,1.6-5.8,0c-0.1-0.1-0.3-0.2-0.4-0.1
		c-0.6,0.1-1.1,0.3-1.7,0.4c-0.9,0.3-1.4,0.9-1.5,1.8c0,0.4-0.1,0.8-0.2,1.3c-0.1,0.8-0.2,1.5-0.2,2.3c0.6,0,1.2,0,1.8,0
		c0-0.5,0-0.9,0.1-1.3c0.1-0.5,0.3-0.8,0.8-0.8c0.4,0,0.6,0.3,0.6,0.9C19.5,44.3,19.5,44.7,19.5,45.1z M19.4,30c0,0.9,0,1.7,0,2.5
		c0.1,2,1.8,3.6,3.8,3.6c2.1,0,3.8-1.7,3.8-3.7c0-0.8,0-1.6,0-2.4c0-0.1,0-0.3-0.1-0.4c-0.5-0.4-1.1-0.8-1.7-1.3
		C23.7,30,21.7,30.4,19.4,30z M28.2,28.6c0-1.9-0.8-3.4-2.4-4.4c-1.7-1.1-3.5-1-5.2,0c-1.6,1-2.3,2.5-2.3,4.2c0.5,0,1,0,1.4,0.1
		c0.5,0,0.9,0.2,1.4,0.1c1.4-0.1,2.6-0.5,3.4-1.7c0.5-0.7,1.3-0.7,1.7,0C26.7,27.8,27.3,28.4,28.2,28.6z M5.2,45.1
		c0.1-3,0.3-5.9,0.4-8.8c-1.2-0.1-2.3-0.2-3.5-0.4c-0.1,0.9-0.2,1.7-0.3,2.5c-0.2,1.5-0.3,3-0.5,4.6c-0.1,1.2,0.5,2,1.6,2.1
		C3.7,45.1,4.4,45.1,5.2,45.1z M41.3,45.1c0.6,0,1.2,0,1.7,0c0.1,0,0.3,0,0.4,0c0.9-0.1,1.5-0.6,1.6-1.4c0.1-0.4,0.1-0.7,0-1.1
		c-0.1-1.3-0.3-2.5-0.4-3.8c-0.1-0.9-0.2-1.9-0.3-2.9c-1.2,0.1-2.3,0.3-3.5,0.4C41,39.3,41.1,42.2,41.3,45.1z M31.3,22.1
		c-0.1,0.7-0.1,1.3-0.2,1.8c-0.2,0.7-0.9,0.7-1.5,0.9c1.7,2.3,5.7,2.3,7.3,0c-0.6-0.2-1.3-0.2-1.5-0.9c-0.1-0.6-0.1-1.2-0.2-1.8
		C33.9,22.5,32.6,22.5,31.3,22.1z M11.1,22.1c0.1,0.5,0,0.9,0.2,1.1c0.6,0.7,1.2,1.2,1.9,1.8c0.6-0.5,1-1.1,1.6-1.5
		c0.5-0.4,0.5-0.9,0.4-1.4C13.8,22.5,12.5,22.5,11.1,22.1z M38.9,25.3c-0.1-0.1-0.1-0.1-0.2-0.2c-0.1,0.1-0.3,0.1-0.4,0.3
		c-0.5,0.5-1,1-1.5,1.4c-0.5,0.4-1.2,0.6-1.8,1c0.6,0.3,1.1,0.6,1.7,0.8c0.9,0.3,1.4,0,1.7-0.8C38.6,27,38.7,26.1,38.9,25.3z
		 M22.1,37.3c0,0.2,0,0.5-0.1,0.7c-0.1,0.2-0.2,0.4-0.3,0.7c0.9,0.6,2.1,0.6,2.9,0c-0.1-0.5-0.2-1-0.4-1.4
		C23.6,37.3,22.9,37.3,22.1,37.3z M14.2,26c0.3,0.3,0.6,0.7,1,1c0.6-0.8,1.2-1.5,1.8-2.3c-0.3-0.1-0.5-0.3-0.7-0.3
		c-0.1,0-0.3,0-0.4,0C15.3,24.9,14.7,25.4,14.2,26z M9.4,24.7c0.6,0.8,1.2,1.5,1.8,2.3c0.4-0.3,0.7-0.6,1-1
		c-0.4-0.4-0.9-0.8-1.3-1.2C10.2,24.2,10.2,24.2,9.4,24.7z M31.6,27.8c-0.9-0.5-1.6-0.8-2.3-1.2c0.1,0.7,0.2,1.4,0.3,2.2
		C30.3,28.5,31,28.1,31.6,27.8z M29.9,23.3C29.9,23.2,29.8,23.2,29.9,23.3c-1.1-0.1-2.1-0.1-3.2-0.1c0.3,0.2,0.5,0.4,0.7,0.6
		c0.1,0.1,0.3,0.1,0.4,0.1c0.6-0.1,1.2-0.3,1.7-0.4C29.7,23.4,29.8,23.3,29.9,23.3z M5.6,13.4c0-0.6,0-1.2,0-1.9
		c-0.4,0.1-0.7,0.4-0.7,0.9C4.8,12.8,5.1,13.2,5.6,13.4z M20.8,13.3c0.5-0.2,0.8-0.5,0.7-0.9c0-0.4-0.3-0.7-0.7-0.9
		C20.8,12.1,20.8,12.7,20.8,13.3z M28.5,30.3c0,0.4,0,0.8,0,1.2C29,31.1,29,30.7,28.5,30.3z M18,30.3c-0.5,0.4-0.5,0.8,0,1.1
		C18,31.1,18,30.7,18,30.3z"/>
</g>
</svg>
