<?xml version="1.0" encoding="utf-8"?>
<!-- Generator: Adobe Illustrator 25.2.3, SVG Export Plug-In . SVG Version: 6.00 Build 0)  -->
<svg version="1.1" id="Layer_1" xmlns="http://www.w3.org/2000/svg" xmlns:xlink="http://www.w3.org/1999/xlink" x="0px" y="0px"
	 viewBox="0 0 45 45" style="enable-background:new 0 0 45 45;" xml:space="preserve">
<style type="text/css">
	.st0{fill:#1C202E;}
	.st1{opacity:0.4;fill:url(#SVGID_7_);}
	.st2{fill:#FFFFFF;}
	.st3{opacity:0.1;fill:none;stroke:#FFFFFF;stroke-miterlimit:10;}
	.st4{clip-path:url(#SVGID_9_);fill:url(#SVGID_10_);}
	.st5{clip-path:url(#SVGID_12_);fill:url(#SVGID_13_);}
	.st6{fill:#959595;}
	.st7{fill:none;stroke:#FFFFFF;stroke-miterlimit:10;}
	.st8{fill:none;stroke:#FFFFFF;stroke-linecap:round;stroke-miterlimit:10;}
	.st9{fill:none;stroke:#FFFFFF;stroke-width:1.3;stroke-linecap:round;stroke-linejoin:round;stroke-miterlimit:10;}
	.st10{opacity:0.6;}
	.st11{fill:#C3AD86;}
	.st12{opacity:0.44;clip-path:url(#SVGID_15_);fill:#FFFFFF;}
	.st13{fill:none;stroke:#C3AD86;stroke-linecap:round;stroke-linejoin:round;stroke-miterlimit:10;}
	.st14{opacity:0.4;}
	.st15{fill:#262B3E;}
	.st16{fill:url(#SVGID_16_);}
	.st17{opacity:0.5;}
	.st18{fill:#E7E7E7;}
	.st19{fill:none;stroke:#F3F1F1;stroke-width:1.7;stroke-miterlimit:10;}
	.st20{opacity:0.15;clip-path:url(#SVGID_18_);}
	.st21{fill:url(#SVGID_19_);}
	.st22{fill:url(#SVGID_20_);}
	.st23{fill:#EEEAE2;}
	.st24{fill:#C4AE87;}
	.st25{opacity:0.72;}
	.st26{opacity:0.7;fill:#262B3E;}
	.st27{opacity:0.9;fill:url(#SVGID_33_);}
	.st28{fill:none;stroke:#1C202E;stroke-width:1.5;stroke-linecap:round;stroke-linejoin:round;stroke-miterlimit:10;}
	.st29{opacity:0.44;}
	.st30{opacity:0.55;fill:#FFFFFF;}
	.st31{opacity:0.55;}
	.st32{fill:#C3AD86;stroke:#C3AD86;stroke-width:0.25;stroke-miterlimit:10;}
	.st33{clip-path:url(#SVGID_35_);fill:url(#SVGID_36_);}
	.st34{clip-path:url(#SVGID_38_);fill:url(#SVGID_39_);}
	.st35{fill:#30364E;stroke:#3C4157;stroke-miterlimit:10;}
</style>
<g>
	<path class="st11" d="M21.8,21.4c-1.5,0.4-3,0.5-4.5,0c0,0.5,0,1,0,1.5c0,1.7-0.8,2.5-2.5,2.6c0.4,1.3,2.3,2.4,4.7,2.7
		c0,0.5,0,0.9,0,1.5c-1.8,0-3.5-0.6-4.8-1.9c-0.6-0.6-1.1-1.3-1.5-2c-0.1-0.2-0.2-0.3-0.5-0.3c-0.5,0-0.9,0-1.4,0
		c-0.1-0.4-0.2-0.9-0.4-1.4c0.4,0,0.8-0.1,1.2-0.1c0.9,0,1.9,0,2.8,0c0.7,0,0.9-0.3,0.9-0.9c0-0.7,0-1.3,0-2c0-0.1-0.1-0.3-0.2-0.4
		c-1.5-1-2.6-2.4-3.2-4.1c-0.3,0-0.6,0-0.9-0.1c-1.2-0.3-2-1-2.3-2.3c-0.3-1.2,0.1-2.3,1.1-3c0.2-0.2,0.3-0.4,0.3-0.7
		c0-1.3,0-2.6,0.2-3.9C10.9,5.2,11.6,4,12.5,3c0.4,0.3,0.8,0.6,1.2,1C11.7,6,12,8.6,12,11.1c2.7-0.6,5.5-0.9,8-2.3
		c1.2-0.7,2.2-1.6,3.3-2.4c0.7-0.5,1.1-0.5,1.5,0.3c0.5,0.9,1.1,1.9,1.6,2.8c0.1,0.1,0.2,0.2,0.4,0.4c0.2-2.5-0.2-4.7-2-6.4
		c-1.3-1.2-2.8-1.8-4.5-1.9c-1.4,0-2.8-0.1-4.1,0.5c-0.6,0.3-1.1,0.6-1.7,0.9c-0.3-0.3-0.5-0.7-0.9-1.1c0.8-0.7,1.7-1.2,2.7-1.4
		c2.6-0.6,5.2-0.6,7.7,0.7c1.6,0.8,2.7,2.1,3.5,3.7c0.1,0.2,0.3,0.4,0.5,0.6c1.6,1.1,2.5,2.6,2.5,4.5c0,3.1,0,6.2,0,9.3
		c0,0.2,0,0.3,0,0.6c0.8-0.2,1.5-0.2,2.1,0.3c0.1,0,0.2,0,0.3,0c1.4-0.8,2.7-0.3,3.3,1.1c1,2.4,1.9,4.7,2.9,7.1
		c0.1,0.3,0.3,0.4,0.6,0.4c0.9,0,1.8,0,2.7,0c1.2,0,2,0.7,2.3,1.8c0.2,1-0.3,2-1.2,2.5c-0.1,0.1-0.3,0.3-0.3,0.4
		c-0.2,1.7-0.4,3.4-0.7,5.1c-0.5-0.1-1-0.1-1.5-0.2c0.1-0.9,0.2-1.7,0.3-2.6c0.1-0.8,0.2-1.7,0.3-2.5c-5.9,0-11.8,0-17.8,0
		c0.1,1.1,0.3,2.1,0.4,3.2c0.2,1.9,0.5,3.8,0.7,5.7c0.1,1,0.7,1.6,1.7,1.6c4,0,8.1,0,12.1,0c1.1,0,1.6-0.5,1.7-1.6
		c0.1-0.5,0.1-1,0.2-1.5c0.5,0.1,1,0.1,1.5,0.2c-0.2,0.9-0.2,1.8-0.5,2.6c-0.4,1.2-1.4,1.8-2.6,1.8c-4.2,0-8.5,0-12.7,0
		c-1.5,0-2.7-1.2-2.9-2.8c-0.4-3-0.7-5.9-1.1-8.9c0-0.2-0.1-0.4-0.3-0.5c-1-0.5-1.5-1.5-1.2-2.5c0.3-1.1,1.1-1.7,2.3-1.7
		c1,0,1.9,0,2.9,0c0.1,0,0.4-0.1,0.4-0.2c0.9-2.1,1.7-4.2,2.6-6.4c0,0,0-0.1,0-0.2c-1.7-0.3-3-1.2-3.8-2.7c-0.7,0.5-1.4,1.1-2,1.6
		c-0.1,0.1-0.1,0.2-0.1,0.3c0,0.7,0,1.4,0,2.2c0,0.5,0.3,0.8,0.8,0.8c0.9,0,1.9,0,2.9,0c0,0.5,0,1,0,1.4c0,0,0,0.1-0.1,0.1
		c-0.7-0.1-1,0.2-1.3,0.8c-0.4,0.8-1,1.4-1.7,1.9c-0.3-0.4-0.6-0.8-0.9-1.1c0.4-0.5,0.9-1,1.4-1.5c-0.4,0-0.6-0.1-0.9-0.1
		c-1-0.2-1.7-1.1-1.8-2.1C21.7,22.7,21.8,22.1,21.8,21.4z M23.9,8c-0.7,0.5-1.2,1-1.9,1.4c-1.3,0.9-2.8,1.5-4.4,2
		c-0.1,0-0.3,0.2-0.3,0.3c-0.1,0.5-0.3,0.9-0.9,1.1c-0.5,0.1-0.9-0.1-1.2-0.5c-0.1-0.1-0.2-0.2-0.3-0.2c-0.4,0.1-0.9,0.2-1.3,0.3
		c0,1-0.1,2,0,2.9c0.4,2.9,3,5,5.9,5c2.9,0,5.5-2.2,5.9-5c0.2-1.4,0.1-2.9,0.1-4.4c0-0.1,0-0.2-0.1-0.2C24.9,9.8,24.4,8.9,23.9,8z
		 M32.9,31.5c3.1,0,6.3,0,9.4,0c0.2,0,0.3,0,0.5,0c0.4-0.1,0.6-0.3,0.6-0.7c0-0.4-0.2-0.7-0.6-0.7c-0.1,0-0.3,0-0.4,0
		c-6.3,0-12.5,0-18.8,0c-0.1,0-0.3,0-0.4,0c-0.4,0.1-0.6,0.3-0.6,0.7c0,0.4,0.2,0.7,0.6,0.7c0.2,0,0.3,0,0.5,0
		C26.7,31.5,29.8,31.5,32.9,31.5z M28.1,28.5c0.5,0,0.9,0,1.2,0c0.1,0,0.3-0.1,0.4-0.2c0.8-2.1,1.6-4.2,2.4-6.3
		c0.2-0.4,0-0.8-0.4-0.9c-0.3-0.1-0.7,0-0.9,0.5c-0.3,0.6-0.5,1.2-0.7,1.8C29.5,25.1,28.8,26.8,28.1,28.5z M37.9,28.5
		c-0.6-1.5-1.2-3-1.8-4.5c-0.3-0.8-0.7-1.7-1-2.5c-0.2-0.4-0.5-0.6-0.9-0.4c-0.3,0.1-0.5,0.5-0.4,0.9c0,0.1,0.1,0.2,0.1,0.3
		c0.7,1.7,1.3,3.4,2,5C36.4,28.6,36.4,28.6,37.9,28.5z M29.2,20.2c0-1.8,0-3.6,0-5.4c-0.7,0.7-1.5,1-2.3,1c-0.2,0.9-0.8,1.8,0,2.8
		C27.5,19.4,28.2,20,29.2,20.2z M31.3,28.5c1.2,0,2.3,0,3.5,0c-0.6-1.5-1.1-2.9-1.7-4.4C32.4,25.6,31.8,27,31.3,28.5z M27,11.3
		c0,1,0,2,0,3c0.9-0.1,1.5-0.7,1.5-1.5C28.5,12.1,27.9,11.3,27,11.3z M10.7,12.8c-0.3,0.4-0.3,1,0,1.5C11,14.8,11.4,15,12,15
		c0-0.8,0-1.6,0-2.3C11.6,12.7,11.2,12.7,10.7,12.8z M28.5,7.6c0,0.7,0.1,1.3,0,1.9c-0.1,0.6,0.2,1,0.7,1.2
		C29.4,9.5,29.2,8.5,28.5,7.6z"/>
	<path class="st11" d="M8.2,44.1c-0.5,0.1-0.9,0.2-1.4,0.3c-0.3-1.3-0.6-2.6-0.8-3.9c-1.2,0-2.4,0-3.7,0c0,1.2,0,2.4,0,3.7
		c-0.5,0-1,0-1.5,0c0-0.2,0-0.3,0-0.5c0-2.6,0-5.2,0-7.8c0-0.3-0.2-0.5-0.2-0.8c-0.2-0.5-0.4-0.9-0.5-1.4c-0.1-1.5-0.1-3,0-4.5
		c0.1-0.8,0-1.5,0-2.3c-0.1-3,0-6,0-9c0-1.2,1-2.2,2.2-2.2c1.8,0,3.5,0,5.3,0c1.3,0,2.2,1,2.2,2.2c0,3,0,6,0,9
		c0,0.7-0.1,1.4,0.1,2.2c0.2,0.7-0.2,1.3-0.7,1.9c-0.4,0.4-0.9,0.9-1.3,1.3c-0.2,0.2-0.2,0.4-0.3,0.7c-0.1,0.4,0,0.8-0.1,1.2
		c-0.1,0.4-0.4,0.9-0.7,1.2c-0.2,0.2-0.3,0.4-0.2,0.7c0.5,2.5,1.1,5,1.6,7.5C8.2,43.8,8.2,43.9,8.2,44.1z M4.5,27.1
		c0-3.3,0-6.5,0-9.7c-0.1,0-0.1,0-0.1,0c-0.6,0-1.2,0-1.8,0c-0.8,0-1,0.2-1,1c0,2.8,0,5.6,0,8.3c0,0.2,0,0.3,0,0.4
		C2.5,27.1,3.5,27.1,4.5,27.1z M6,31.6c0-0.7,0-1.4,0-2.2c0-0.6-0.3-0.9-0.9-0.9c-0.9,0-1.8,0-2.8,0c-0.6,0-0.9,0.3-0.9,0.9
		c0,1.4,0,2.8,0,4.3c0,0.6,0.3,0.9,0.9,0.9c0.9,0,1.8,0,2.8,0c0.6,0,0.9-0.3,0.9-0.9C6,33,6,32.3,6,31.6z M6.8,17.3
		c0,3.4,0,6.8,0,10.1c0,0,0,0.1,0,0.1c0.1,0.1,0.2,0.3,0.3,0.3c0.8,0.2,1.2-0.2,1.2-1c0-2,0-4,0-6c0-0.8,0-1.7,0-2.5
		c0-0.7-0.3-1-1-1C7.1,17.3,7,17.3,6.8,17.3z M2.3,36c0,1,0,2,0,3c1.1,0,2.2,0,3.3,0c-0.2-1-0.4-2-0.6-3C4.1,36,3.2,36,2.3,36z
		 M7.6,29.3c0,0.4,0,0.8,0,1.1c0.7-0.5,0.8-0.7,0.7-1.3C8.1,29.2,7.8,29.3,7.6,29.3z"/>
	<path class="st11" d="M12.7,44.2c0-1.5,0-3,0-4.5c0-0.3-0.2-0.6-0.3-1c-0.1,0-0.1,0-0.2,0c-0.6,1.9-1.2,3.8-1.8,5.7
		C10,44.3,9.6,44.2,9.1,44c0.1-0.2,0.1-0.4,0.1-0.6c0.7-2.2,1.4-4.4,2-6.6c0.1-0.3,0.1-0.7,0.1-1c-0.2-1.8,0.3-3.4,1.4-4.9
		c0.4,0.3,0.7,0.6,1.1,1c-0.7,0.9-1.1,1.9-1.1,3c0,1.2,0.3,2.3,1.1,3.3c0.3,0.4,0.4,0.7,0.4,1.2c0,1.4,0,2.9,0,4.3
		c0,0.2,0,0.3,0,0.5C13.7,44.2,13.2,44.2,12.7,44.2z"/>
	<path class="st11" d="M27.7,37.5c-0.5,0-0.9,0-1.4,0c0-1,0-2,0-3c0.5,0,0.9,0,1.4,0C27.7,35.5,27.7,36.5,27.7,37.5z"/>
	<path class="st11" d="M30.7,37.5c-0.5,0-0.9,0-1.4,0c0-1,0-2,0-3c0.5,0,0.9,0,1.4,0C30.7,35.5,30.7,36.5,30.7,37.5z"/>
	<path class="st11" d="M32.3,37.5c0-1,0-1.9,0-2.9c0.5,0,0.9,0,1.5,0c0,1,0,1.9,0,2.9C33.2,37.5,32.8,37.5,32.3,37.5z"/>
	<path class="st11" d="M36.7,37.5c-0.5,0-1,0-1.4,0c0-1,0-1.9,0-2.9c0.5,0,0.9,0,1.4,0C36.7,35.5,36.7,36.5,36.7,37.5z"/>
	<path class="st11" d="M38.3,34.5c0.5,0,1,0,1.4,0c0,1,0,1.9,0,2.9c-0.5,0-0.9,0-1.4,0C38.3,36.5,38.3,35.6,38.3,34.5z"/>
	<path class="st11" d="M27.7,42c-0.5,0-0.9,0-1.4,0c0-1,0-1.9,0-2.9c0.5,0,0.9,0,1.4,0C27.7,40,27.7,41,27.7,42z"/>
	<path class="st11" d="M29.3,39c0.5,0,0.9,0,1.4,0c0,1,0,2,0,3c-0.5,0-0.9,0-1.4,0C29.3,41,29.3,40,29.3,39z"/>
	<path class="st11" d="M32.3,42c0-1,0-2,0-2.9c0.5,0,0.9,0,1.4,0c0,1,0,1.9,0,2.9C33.2,42,32.8,42,32.3,42z"/>
	<path class="st11" d="M36.7,39.1c0,1,0,1.9,0,2.9c-0.5,0-1,0-1.5,0c0-1,0-1.9,0-2.9C35.7,39.1,36.2,39.1,36.7,39.1z"/>
	<path class="st11" d="M39.7,39c0,1,0,1.9,0,2.9c-0.5,0-0.9,0-1.4,0c0-1,0-1.9,0-2.9C38.7,39,39.2,39,39.7,39z"/>
	<path class="st11" d="M17.3,15.1c0.5,0,1,0,1.4,0c0.1,0.4,0.3,0.7,0.8,0.7c0.4,0,0.6-0.3,0.7-0.7c0.5,0,1,0,1.4,0
		c0,1.2-0.9,2.2-2.1,2.2C18.3,17.3,17.3,16.4,17.3,15.1z"/>
	<path class="st11" d="M21.8,11.7c0-0.6,0.5-1.1,1.1-1.1c0.6,0,1.1,0.5,1.1,1.1c0,0.6-0.5,1.1-1.1,1.1
		C22.3,12.8,21.8,12.3,21.8,11.7z"/>
</g>
</svg>
