<?xml version="1.0" encoding="utf-8"?>
<!-- Generator: Adobe Illustrator 25.2.3, SVG Export Plug-In . SVG Version: 6.00 Build 0)  -->
<svg version="1.1" id="Layer_1" xmlns="http://www.w3.org/2000/svg" xmlns:xlink="http://www.w3.org/1999/xlink" x="0px" y="0px"
	 viewBox="0 0 37.3 46.6" style="enable-background:new 0 0 37.3 46.6;" xml:space="preserve">
<style type="text/css">
	.st0{fill:#1C202E;}
	.st1{opacity:0.4;fill:url(#SVGID_7_);}
	.st2{fill:#FFFFFF;}
	.st3{opacity:0.1;fill:none;stroke:#FFFFFF;stroke-miterlimit:10;}
	.st4{clip-path:url(#SVGID_9_);fill:url(#SVGID_10_);}
	.st5{clip-path:url(#SVGID_12_);fill:url(#SVGID_13_);}
	.st6{fill:#959595;}
	.st7{fill:none;stroke:#FFFFFF;stroke-miterlimit:10;}
	.st8{fill:none;stroke:#FFFFFF;stroke-linecap:round;stroke-miterlimit:10;}
	.st9{fill:none;stroke:#FFFFFF;stroke-width:1.3;stroke-linecap:round;stroke-linejoin:round;stroke-miterlimit:10;}
	.st10{opacity:0.6;}
	.st11{fill:#C3AD86;}
	.st12{opacity:0.44;clip-path:url(#SVGID_15_);fill:#FFFFFF;}
	.st13{fill:none;stroke:#C3AD86;stroke-linecap:round;stroke-linejoin:round;stroke-miterlimit:10;}
	.st14{opacity:0.4;}
	.st15{fill:#262B3E;}
	.st16{fill:url(#SVGID_16_);}
	.st17{opacity:0.5;}
	.st18{fill:#E7E7E7;}
	.st19{fill:none;stroke:#F3F1F1;stroke-width:1.7;stroke-miterlimit:10;}
	.st20{opacity:0.15;clip-path:url(#SVGID_18_);}
	.st21{fill:url(#SVGID_19_);}
	.st22{fill:url(#SVGID_20_);}
	.st23{fill:#EEEAE2;}
	.st24{fill:#C4AE87;}
	.st25{opacity:0.72;}
	.st26{opacity:0.7;fill:#262B3E;}
	.st27{opacity:0.9;fill:url(#SVGID_33_);}
	.st28{fill:none;stroke:#1C202E;stroke-width:1.5;stroke-linecap:round;stroke-linejoin:round;stroke-miterlimit:10;}
	.st29{opacity:0.44;}
	.st30{opacity:0.55;fill:#FFFFFF;}
	.st31{opacity:0.55;}
	.st32{fill:#C3AD86;stroke:#C3AD86;stroke-width:0.25;stroke-miterlimit:10;}
	.st33{clip-path:url(#SVGID_35_);fill:url(#SVGID_36_);}
	.st34{clip-path:url(#SVGID_38_);fill:url(#SVGID_39_);}
	.st35{fill:#30364E;stroke:#3C4157;stroke-miterlimit:10;}
</style>
<g>
	<path class="st11" d="M6.6,46.6c-0.1-0.1-0.2-0.3-0.3-0.4c-2-2-4-4-6-6C0.1,40,0,39.8,0,39.5c0-12.3,0-24.6,0-37C0,0.9,0.9,0,2.6,0
		c9.2,0,18.3,0,27.5,0c1.6,0,2.6,0.9,2.6,2.6c0,0.9,0,1.9,0,2.8c-0.5,0-1,0-1.6,0c0-0.2,0-0.5,0-0.7c0-0.7,0-1.4,0-2.1
		c0-0.8-0.2-1-1-1c-7.9,0-15.8,0-23.8,0c-1.3,0-2.5,0-3.8,0c-0.7,0-1,0.3-1,1c0,12,0,24,0,36c0,0.1,0,0.2,0,0.4c0.2,0,0.3,0,0.5,0
		c1.1,0,2.1,0,3.2,0c1.6,0,2.5,0.9,2.5,2.5c0,1,0,2.1,0,3.1c0,0.2,0,0.3,0,0.6c0.2,0,0.4,0,0.5,0c7.2,0,14.5,0,21.7,0
		c0.9,0,1.1-0.2,1.1-1.1c0-1.7,0-3.5,0-5.2c0-0.2-0.1-0.5-0.2-0.6c-4.1-4.1-8.3-8.3-12.4-12.4c-0.1-0.1-0.1-0.1-0.2-0.2
		c-0.1,0.1-0.2,0.2-0.3,0.3c-1.2,1.2-2.4,2.4-3.6,3.6C14.1,29.7,14,30,14,30.3c0,0.3,0,0.6,0,1c0,1-0.6,1.8-1.5,2.2
		c-0.9,0.4-1.8,0.2-2.5-0.5c-2.2-2.2-4.3-4.3-6.5-6.5c-0.6-0.6-0.7-1.5-0.4-2.3c0.3-0.8,0.9-1.3,1.7-1.5c0.4-0.1,0.8-0.1,1.2,0
		c0.4,0,0.8-0.1,1.1-0.4c3.4-3.4,6.9-6.9,10.3-10.3c0.3-0.3,0.5-0.7,0.4-1.1c0-0.3,0-0.5,0-0.8c0.1-1,0.6-1.7,1.5-2.1
		c0.9-0.4,1.8-0.1,2.5,0.6c2.2,2.2,4.3,4.3,6.5,6.5c0.7,0.7,0.7,1.5,0.4,2.4c-0.3,0.9-1.1,1.4-2,1.5c-0.1,0-0.2,0-0.2,0
		c-1-0.2-1.7,0.2-2.3,1c-0.8,0.9-1.6,1.7-2.4,2.5c3.1,3.1,6.2,6.2,9.3,9.3c0-6.1,0-12.1,0-18.2c0.5,0,1,0,1.6,0c0,0.2,0,0.4,0,0.6
		c0,6.3,0,12.5,0,18.8c0,0.4,0.1,0.6,0.4,0.9c1.2,1.2,2.3,2.3,3.5,3.5c0.7,0.7,1,1.6,0.7,2.5c-0.5,1.6-2.5,2.2-3.9,1.1
		c-0.2-0.2-0.4-0.4-0.6-0.6c0,0.2,0,0.4,0,0.5c0,1.1,0,2.2,0,3.3c0,1.7-0.4,2.2-1.9,2.8C22.7,46.6,14.7,46.6,6.6,46.6z M18.7,12.8
		c-3.5,3.5-7,7-10.4,10.4c1.7,1.7,3.4,3.4,5,5c3.5-3.5,7-7,10.5-10.4C22,16.2,20.4,14.5,18.7,12.8z M19.4,24.5
		c0.1,0.1,0.2,0.2,0.2,0.3c4.8,4.8,9.6,9.6,14.4,14.4c0.1,0.1,0.3,0.3,0.4,0.3c0.5,0.3,1.1,0.1,1.3-0.5c0.1-0.5-0.1-0.8-0.4-1.1
		c-4.8-4.8-9.6-9.6-14.4-14.4c-0.1-0.1-0.2-0.2-0.3-0.2C20.2,23.7,19.8,24.1,19.4,24.5z M6,24.1c-0.3,0-0.5,0-0.6,0
		c-0.4,0-0.6,0.2-0.8,0.5c-0.1,0.3-0.1,0.6,0.2,0.9c2.1,2.1,4.2,4.2,6.3,6.3c0.2,0.2,0.6,0.3,0.8,0.2c0.2-0.1,0.4-0.4,0.5-0.7
		c0.1-0.3,0-0.6,0-0.9c0-0.3-0.1-0.6-0.3-0.8c-1.6-1.6-3.3-3.2-4.9-4.9C6.9,24.2,6.5,23.9,6,24.1z M25.9,17.1c0.3,0,0.5,0.1,0.7,0
		c0.3-0.1,0.6-0.3,0.7-0.5c0.2-0.3,0.1-0.6-0.2-0.9c-2.1-2.1-4.2-4.2-6.3-6.3c-0.2-0.2-0.6-0.2-0.8-0.2c-0.3,0.1-0.5,0.4-0.5,0.7
		c0,0.3,0,0.6,0,0.9c0,0.3,0.1,0.6,0.3,0.8c1.6,1.6,3.3,3.2,4.9,4.9C25,16.9,25.4,17.2,25.9,17.1z M2.9,40.4
		c1.1,1.1,2.2,2.2,3.3,3.3c0-0.8,0-1.7,0-2.6c0-0.4-0.2-0.7-0.7-0.7C4.6,40.4,3.7,40.4,2.9,40.4z"/>
	<path class="st11" d="M3.9,35c7.2,0,14.4,0,21.7,0c0,0.5,0,1,0,1.5c-7.2,0-14.4,0-21.7,0C3.9,36,3.9,35.5,3.9,35z"/>
	<path class="st11" d="M10.1,39.6c0-0.5,0-1,0-1.5c6.2,0,12.4,0,18.6,0c0,0.5,0,1,0,1.5C22.5,39.6,16.4,39.6,10.1,39.6z"/>
	<path class="st11" d="M10.1,42.7c0-0.5,0-1,0-1.5c6.2,0,12.4,0,18.6,0c0,0.5,0,1,0,1.5C22.5,42.7,16.4,42.7,10.1,42.7z"/>
	<path class="st11" d="M3.9,9.3c0-0.5,0-1,0-1.5c4.1,0,8.2,0,12.4,0c0,0.5,0,1,0,1.5C12.2,9.3,8.1,9.3,3.9,9.3z"/>
	<path class="st11" d="M11.7,5.4c0-0.5,0-1,0-1.5c3.1,0,6.2,0,9.3,0c0,0.5,0,1,0,1.5C17.9,5.4,14.8,5.4,11.7,5.4z"/>
	<path class="st11" d="M3.9,13.2c0-0.5,0-1,0-1.5c3.1,0,6.2,0,9.3,0c0,0.5,0,1,0,1.5C10.1,13.2,7,13.2,3.9,13.2z"/>
	<path class="st11" d="M29.3,12.8c-0.3-0.3-0.6-0.6-0.9-0.9c1.5-1.5,3.1-3.1,4.6-4.6c0.3,0.3,0.6,0.6,0.9,0.9
		C32.3,9.7,30.8,11.3,29.3,12.8z"/>
	<path class="st11" d="M10.1,15.6c0,0.5,0,1,0,1.5c-2.1,0-4.1,0-6.2,0c0-0.5,0-1,0-1.5C6,15.6,8,15.6,10.1,15.6z"/>
	<path class="st11" d="M29.1,6.5c0.3,0.3,0.7,0.7,1,1c-1,1-2,2-3.1,3.1c-0.3-0.3-0.7-0.7-1-1C27,8.5,28,7.5,29.1,6.5z"/>
	<path class="st11" d="M6.2,20.9c-0.8,0-1.5,0-2.3,0c0-0.5,0-1,0-1.5c0.7,0,1.5,0,2.3,0C6.2,19.9,6.2,20.4,6.2,20.9z"/>
	<path class="st11" d="M26.1,6.8c-0.4,0.4-0.9,0.9-1.4,1.4c-0.3-0.3-0.7-0.7-1-1c0.5-0.5,1-1,1.4-1.4C25.4,6.1,25.7,6.5,26.1,6.8z"
		/>
</g>
</svg>
