<?xml version="1.0" encoding="utf-8"?>
<!-- Generator: Adobe Illustrator 25.2.3, SVG Export Plug-In . SVG Version: 6.00 Build 0)  -->
<svg version="1.1" id="Layer_1" xmlns="http://www.w3.org/2000/svg" xmlns:xlink="http://www.w3.org/1999/xlink" x="0px" y="0px"
	 viewBox="0 0 320.6 44.9" style="enable-background:new 0 0 320.6 44.9;" xml:space="preserve">
<style type="text/css">
	.st0{fill:#1C202E;}
	.st1{opacity:0.4;fill:url(#SVGID_7_);}
	.st2{fill:#FFFFFF;}
	.st3{opacity:0.1;fill:none;stroke:#FFFFFF;stroke-miterlimit:10;}
	.st4{clip-path:url(#SVGID_9_);fill:url(#SVGID_10_);}
	.st5{clip-path:url(#SVGID_12_);fill:url(#SVGID_13_);}
	.st6{fill:#959595;}
	.st7{clip-path:url(#SVGID_15_);fill:url(#SVGID_16_);}
	.st8{clip-path:url(#SVGID_18_);fill:url(#SVGID_19_);}
	.st9{fill:none;stroke:#FFFFFF;stroke-miterlimit:10;}
	.st10{fill:none;stroke:#FFFFFF;stroke-linecap:round;stroke-miterlimit:10;}
	.st11{fill:none;stroke:#FFFFFF;stroke-width:1.3;stroke-linecap:round;stroke-linejoin:round;stroke-miterlimit:10;}
	.st12{opacity:0.6;}
	.st13{fill:#C3AD86;}
	.st14{opacity:0.44;clip-path:url(#SVGID_21_);fill:#FFFFFF;}
	.st15{fill:none;stroke:#C3AD86;stroke-linecap:round;stroke-linejoin:round;stroke-miterlimit:10;}
	.st16{opacity:0.4;}
	.st17{fill:#262B3E;}
	.st18{fill:url(#SVGID_22_);}
	.st19{opacity:0.5;}
	.st20{fill:#E7E7E7;}
	.st21{fill:none;stroke:#F3F1F1;stroke-width:1.7;stroke-miterlimit:10;}
	.st22{opacity:0.15;clip-path:url(#SVGID_24_);}
	.st23{fill:url(#SVGID_25_);}
	.st24{fill:url(#SVGID_26_);}
	.st25{fill:#EEEAE2;}
	.st26{fill:#C4AE87;}
	.st27{opacity:0.72;}
	.st28{opacity:0.7;fill:#262B3E;}
	.st29{opacity:0.9;fill:url(#SVGID_39_);}
	.st30{fill:none;stroke:#1C202E;stroke-width:1.5;stroke-linecap:round;stroke-linejoin:round;stroke-miterlimit:10;}
	.st31{opacity:0.44;}
	.st32{opacity:0.55;fill:#FFFFFF;}
	.st33{opacity:0.55;}
	.st34{fill:#C3AD86;stroke:#C3AD86;stroke-width:0.25;stroke-miterlimit:10;}
	.st35{clip-path:url(#SVGID_41_);fill:url(#SVGID_42_);}
	.st36{clip-path:url(#SVGID_44_);fill:url(#SVGID_45_);}
	.st37{fill:#30364E;stroke:#3C4157;stroke-miterlimit:10;}
</style>
<g>
	<g>
		<defs>
			<path id="SVGID_14_" d="M37.6,23.3c-0.1-0.2-0.1-0.3-0.1-0.4c-0.1-0.2-0.1-0.3-0.2-0.3l0,0l0,0l0,0v0c0,0-0.1,0-0.1,0l0,0.1
				c-0.1,0.1-0.3,0.4-0.4,0.8c-0.1,0.4-0.2,1-0.2,1.6c0.1,0.6,0.3,1.2,0.5,1.6c0.1,0.2,0.1,0.3,0.2,0.3h0l0,0l0,0v0c0,0,0.1,0,0.1,0
				l0-0.1c0.1-0.1,0.3-0.4,0.4-0.8c0.1-0.4,0.2-1,0.2-1.6c0-0.3-0.1-0.6-0.2-0.8C37.6,23.5,37.6,23.3,37.6,23.3 M40.3,20.8
				L40.3,20.8L40.3,20.8L40.3,20.8L40.3,20.8C40.4,20.8,40.4,20.8,40.3,20.8l0.1,0.1c0,0.2,0.1,0.5,0.1,0.9c0,0.4-0.2,1-0.5,1.5
				c-0.3,0.5-0.8,0.9-1,1.1c-0.1,0.1-0.2,0.2-0.3,0.1l0,0l0,0l0,0l0,0c0,0,0,0-0.1-0.1l0,0c0-0.2-0.1-0.5-0.1-0.9
				c0-0.4,0.2-1,0.5-1.5c0.3-0.5,0.8-0.9,1-1.1C40.2,20.8,40.3,20.7,40.3,20.8z M34.5,27.6L34.5,27.6L34.5,27.6L34.5,27.6L34.5,27.6
				c0,0,0.1,0,0.1,0.1l0,0.1c0.1,0.2,0.3,0.5,0.3,1c0.1,0.5,0,1.2-0.2,1.9c-0.3,0.7-0.8,1.3-1,1.6c-0.1,0.2-0.2,0.3-0.3,0.2l0,0l0,0
				l0,0l0,0c0,0-0.1,0-0.1-0.1l0-0.1c-0.1-0.2-0.3-0.5-0.3-1c-0.1-0.5,0-1.2,0.2-1.9c0.3-0.7,0.8-1.3,1-1.6
				C34.4,27.7,34.5,27.6,34.5,27.6z M37.9,30.6L37.9,30.6L37.9,30.6L37.9,30.6L37.9,30.6c0,0,0,0.1,0,0.1l-0.1,0
				c-0.1,0.2-0.3,0.6-0.6,0.9c-0.3,0.4-0.9,0.8-1.5,1c-0.6,0.2-1.4,0.2-1.8,0.2c-0.2,0-0.3,0-0.3-0.1l0,0l0,0l0,0v0c0,0,0-0.1,0-0.1
				l0.1,0c0.1-0.2,0.3-0.6,0.6-0.9c0.3-0.4,0.9-0.8,1.5-1c0.6-0.2,1.4-0.2,1.8-0.2C37.8,30.5,37.9,30.5,37.9,30.6z M39.8,27.4
				L39.8,27.4L39.8,27.4L39.8,27.4L39.8,27.4c0,0,0,0.1,0,0.1l0,0c-0.1,0.2-0.1,0.6-0.4,1c-0.3,0.5-0.7,1-1.3,1.3
				c-0.6,0.3-1.3,0.5-1.7,0.5c-0.2,0-0.3,0.1-0.3,0l0,0l0,0l0,0v0c0,0,0-0.1,0-0.1l0,0c0.1-0.2,0.1-0.6,0.4-1c0.3-0.5,0.7-1,1.3-1.3
				c0.6-0.3,1.3-0.5,1.7-0.5C39.6,27.4,39.7,27.4,39.8,27.4z M35.9,24.6L35.9,24.6L35.9,24.6L35.9,24.6L35.9,24.6c0,0,0.1,0,0.1,0.1
				l0,0.1c0.1,0.2,0.4,0.4,0.6,0.9c0.2,0.5,0.3,1.2,0.2,1.9c-0.1,0.7-0.4,1.4-0.6,1.8c-0.1,0.2-0.1,0.3-0.2,0.3l0,0l0,0l0,0l0,0
				c0,0-0.1,0-0.1-0.1l0-0.1c-0.1-0.2-0.4-0.4-0.6-0.9c-0.2-0.5-0.3-1.2-0.2-1.9c0.1-0.7,0.4-1.4,0.6-1.8
				C35.8,24.7,35.8,24.6,35.9,24.6z M40.7,24.5L40.7,24.5L40.7,24.5L40.7,24.5L40.7,24.5c0,0,0,0.1,0,0.1l0,0c0,0.2-0.1,0.5-0.2,0.9
				c-0.2,0.4-0.5,0.9-1,1.2c-0.5,0.3-1.1,0.5-1.4,0.6c-0.2,0.1-0.3,0.1-0.3,0l0,0l0,0l0,0v0c0,0,0-0.1,0-0.1l0,0
				c0-0.2,0.1-0.5,0.2-0.9c0.2-0.4,0.5-0.9,1-1.2c0.5-0.3,1.1-0.5,1.4-0.6C40.6,24.5,40.7,24.5,40.7,24.5z M32.3,29.9L32.3,29.9
				L32.3,29.9L32.3,29.9L32.3,29.9c0,0,0.1,0,0.1,0.1l0,0.1c0.1,0.2,0.3,0.5,0.3,1c0.1,0.5,0.1,1.2-0.2,1.9c-0.2,0.7-0.7,1.3-1,1.6
				c-0.1,0.2-0.2,0.3-0.3,0.2l0,0l0,0l0,0l0,0c0,0-0.1,0-0.1-0.1l0-0.1c-0.1-0.2-0.3-0.5-0.3-1c-0.1-0.5-0.1-1.2,0.2-1.9
				c0.2-0.7,0.7-1.3,1-1.6C32.2,30,32.2,29.9,32.3,29.9z M35.8,33.2L35.8,33.2L35.8,33.2L35.8,33.2L35.8,33.2c0,0,0,0.1,0,0.1
				l-0.1,0c-0.1,0.2-0.3,0.6-0.6,0.9c-0.4,0.4-0.9,0.7-1.6,0.9c-0.6,0.2-1.4,0.1-1.8,0.1c-0.2,0-0.3,0-0.3-0.1l0,0l0,0l0,0v0
				c0,0,0-0.1,0-0.1l0.1,0c0.1-0.2,0.3-0.6,0.6-0.9c0.4-0.4,0.9-0.7,1.6-0.9c0.6-0.2,1.4-0.1,1.8-0.1C35.7,33.1,35.7,33.2,35.8,33.2
				z M29.2,16h-2.1v7.5h2.2c0.8,0,1.4-0.1,1.9-0.2c0.5-0.1,0.9-0.5,1.2-1c0.3-0.6,0.5-1.4,0.5-2.6c0-1.3-0.3-2.2-0.8-2.8
				C31.6,16.3,30.7,16,29.2,16z M29.4,8.7h-2.4v6.7h2.1c1.4,0,2.4-0.3,2.7-0.9c0.4-0.6,0.6-1.5,0.6-2.8c0-1-0.1-1.7-0.4-2.1
				c-0.3-0.4-0.6-0.7-1-0.8C30.8,8.7,30.2,8.7,29.4,8.7z M24.4,23.5V8.7H22V8h8c0.9,0,1.6,0,2.2,0.1c0.6,0.1,1.2,0.3,1.7,0.7
				c0.6,0.4,1,0.9,1.2,1.4c0.2,0.6,0.4,1.1,0.4,1.6c0,1.9-1.4,3.2-4.2,3.7v0.1c3.2,0.5,4.8,1.9,4.8,4.1c0,0.5-0.1,1.1-0.4,1.7
				c-0.3,0.6-0.7,1.1-1.4,1.6c-0.6,0.4-1.3,0.7-1.9,0.8c-0.6,0.1-1.5,0.2-2.4,0.2H22v-0.6H24.4z M24.9,8.7h0.3v14.8h-0.3V8.7z
				 M25.6,8.7h0.3v14.8h-0.3V8.7z M26.3,8.7h0.3v14.8h-0.3V8.7z M11.4,17h0.3v6.5h-0.3V17z M12.1,17h0.3v6.5h-0.3V17z M12.8,17h0.3
				v6.5h-0.3V17z M3.6,8h7.7v0.6H8.8l4.5,7.1l4.4-7.1H15V8h5.5v0.6h-2l-4.8,7.7v7.2h2.6v0.6H8.3v-0.6h2.6v-6.7L5.7,8.7H3.6V8z
				 M3.2,23.3c0.1-0.2,0.1-0.3,0.1-0.4c0.1-0.2,0.1-0.3,0.2-0.3l0,0l0,0l0,0v0c0,0,0.1,0,0.1,0l0,0.1c0.1,0.1,0.3,0.4,0.4,0.8
				c0.1,0.4,0.2,1,0.2,1.6c-0.1,0.6-0.3,1.2-0.5,1.6c-0.1,0.2-0.1,0.3-0.2,0.3h0l0,0l0,0l0,0c0,0-0.1,0-0.1,0l0-0.1
				C3.4,26.7,3.2,26.4,3,26c-0.1-0.4-0.2-1-0.2-1.6c0-0.3,0.1-0.6,0.2-0.8C3.1,23.5,3.2,23.3,3.2,23.3z M0.4,20.8L0.4,20.8L0.4,20.8
				L0.4,20.8L0.4,20.8C0.4,20.8,0.4,20.8,0.4,20.8l-0.1,0.1c0,0.2-0.1,0.5-0.1,0.9c0,0.4,0.2,1,0.5,1.5c0.3,0.5,0.8,0.9,1,1.1
				c0.1,0.1,0.2,0.2,0.3,0.1l0,0l0,0l0,0l0,0c0,0,0,0,0.1-0.1l0,0c0-0.2,0.1-0.5,0.1-0.9c0-0.4-0.2-1-0.5-1.5
				c-0.3-0.5-0.8-0.9-1-1.1C0.5,20.8,0.5,20.7,0.4,20.8z M6.2,27.6L6.2,27.6L6.2,27.6L6.2,27.6L6.2,27.6c0,0-0.1,0-0.1,0.1l0,0.1
				c-0.1,0.2-0.3,0.5-0.3,1c-0.1,0.5,0,1.2,0.2,1.9c0.3,0.7,0.8,1.3,1,1.6c0.1,0.2,0.2,0.3,0.3,0.2l0,0l0,0l0,0v0c0,0,0.1,0,0.1-0.1
				l0-0.1c0.1-0.2,0.3-0.5,0.3-1c0.1-0.5,0-1.2-0.2-1.9c-0.3-0.7-0.8-1.3-1-1.6C6.3,27.7,6.3,27.6,6.2,27.6z M2.8,30.6L2.8,30.6
				L2.8,30.6L2.8,30.6L2.8,30.6c0,0,0,0.1,0,0.1l0.1,0C3,31,3.1,31.4,3.4,31.7c0.3,0.4,0.9,0.8,1.5,1c0.6,0.2,1.4,0.2,1.8,0.2
				c0.2,0,0.3,0,0.3-0.1l0,0l0,0l0,0v0c0,0,0-0.1,0-0.1l-0.1,0c-0.1-0.2-0.3-0.6-0.6-0.9c-0.3-0.4-0.9-0.8-1.5-1
				c-0.6-0.2-1.4-0.2-1.8-0.2C2.9,30.5,2.8,30.5,2.8,30.6z M1,27.4L1,27.4L1,27.4L1,27.4L1,27.4c0,0,0,0.1,0,0.1l0,0
				c0.1,0.2,0.1,0.6,0.4,1c0.3,0.5,0.7,1,1.3,1.3c0.6,0.3,1.3,0.5,1.7,0.5c0.2,0,0.3,0.1,0.3,0l0,0l0,0l0,0v0c0,0,0-0.1,0-0.1l0,0
				c-0.1-0.2-0.1-0.6-0.4-1c-0.3-0.5-0.7-1-1.3-1.3c-0.6-0.3-1.3-0.5-1.7-0.5C1.1,27.4,1,27.4,1,27.4z M4.8,24.6L4.8,24.6L4.8,24.6
				L4.8,24.6L4.8,24.6c0,0-0.1,0-0.1,0.1l0,0.1c-0.1,0.2-0.4,0.4-0.6,0.9c-0.2,0.5-0.3,1.2-0.2,1.9c0.1,0.7,0.4,1.4,0.6,1.8
				c0.1,0.2,0.1,0.3,0.2,0.3l0,0l0,0l0,0l0,0c0,0,0.1,0,0.1-0.1l0-0.1C5,29.3,5.3,29,5.5,28.6c0.2-0.5,0.3-1.2,0.2-1.9
				C5.5,26,5.2,25.3,5,24.9C4.9,24.7,4.9,24.6,4.8,24.6z M0,24.5L0,24.5L0,24.5L0,24.5L0,24.5c0,0,0,0.1,0,0.1l0,0
				c0,0.2,0.1,0.5,0.2,0.9c0.2,0.4,0.5,0.9,1,1.2c0.5,0.3,1.1,0.5,1.4,0.6c0.2,0.1,0.3,0.1,0.3,0l0,0l0,0l0,0v0c0,0,0-0.1,0-0.1l0,0
				c0-0.2-0.1-0.5-0.2-0.9c-0.2-0.4-0.5-0.9-1-1.2c-0.5-0.3-1.1-0.5-1.4-0.6C0.1,24.5,0.1,24.5,0,24.5z M8.4,29.9L8.4,29.9L8.4,29.9
				L8.4,29.9L8.4,29.9c0,0-0.1,0-0.1,0.1l0,0.1c-0.1,0.2-0.3,0.5-0.3,1c-0.1,0.5-0.1,1.2,0.2,1.9c0.2,0.7,0.7,1.3,1,1.6
				c0.1,0.2,0.2,0.3,0.3,0.2l0,0l0,0l0,0l0,0c0,0,0.1,0,0.1-0.1l0-0.1c0.1-0.2,0.3-0.5,0.3-1c0.1-0.5,0.1-1.2-0.2-1.9
				c-0.2-0.7-0.7-1.3-1-1.6C8.6,30,8.5,29.9,8.4,29.9z M5,33.2L5,33.2L5,33.2L5,33.2L5,33.2c0,0,0,0.1,0,0.1l0.1,0
				c0.1,0.2,0.3,0.6,0.6,0.9c0.4,0.4,0.9,0.7,1.6,0.9c0.6,0.2,1.4,0.1,1.8,0.1c0.2,0,0.3,0,0.3-0.1l0,0l0,0l0,0v0c0,0,0-0.1,0-0.1
				l-0.1,0c-0.1-0.2-0.3-0.6-0.6-0.9c-0.4-0.4-0.9-0.7-1.6-0.9c-0.6-0.2-1.4-0.1-1.8-0.1C5.1,33.1,5,33.2,5,33.2z M19.4,21.7
				c-0.9,0-1.6-0.7-1.6-1.7c0-0.6,0.3-1,0.7-1.3c0.2,0.3,0.7,0.9,0.9,1.1c0.2,0.2,1,1,1.4,1.3C20.6,21.4,20.1,21.7,19.4,21.7z
				 M19.1,22.1c1.2,0,1.8-0.7,2-0.8C22,22,22.1,22,22.7,22h0.8c0.1,0,0.1,0,0.1-0.1c0,0,0-0.1-0.1-0.1c-0.3,0-0.7-0.2-0.9-0.3
				c-0.2-0.1-0.6-0.3-1.1-0.8c0.3-0.4,0.8-1.2,0.8-1.8c0-0.1,0-0.1-0.1-0.2c-0.4,0-0.8-0.1-0.9-0.1c-0.1,0-0.1,0-0.1,0.1
				c0,0,0,0.1,0.1,0.1c0.1,0,0.3,0,0.4,0.1c0.1,0.1,0.1,0.3,0.1,0.4c0,0.5-0.2,1-0.4,1.3c-0.3-0.2-1.2-1.1-1.5-1.4
				c-0.8-0.9-1.2-1.4-1.2-2c0-0.7,0.5-1,1-1c0.3,0,0.6,0.2,0.8,0.3c0.2,0.2,0.2,0.5,0.2,0.7c0,0.1,0,0.1,0,0.1c0,0,0.1,0,0.1-0.1
				c0-0.1,0.1-0.7,0.1-0.9c0-0.1,0-0.1-0.1-0.2c-0.2-0.1-0.5-0.2-0.9-0.2c-1.1,0-1.7,0.8-1.7,1.4c0,0.3,0.1,0.7,0.4,1.1
				c-0.6,0.4-1.2,1-1.2,1.9C17.2,21.1,17.8,22.1,19.1,22.1z M0.4,3.2C0.3,6.8,0.1,14.1,0.4,17.5c0.2,1.8,0.9,3.1,1.8,5.6
				c0-0.1,0-0.1,0.1-0.1l0-18.4c16.9-3.4,19.6-3.4,36.3,0l-0.1,18c0,0,0.1,0.1,0.2,0.3c2.3-5.1,1.5-4.4,1.7-9.4l0.2-10.3
				C35.3,1.6,25.1,0,19.4,0C13.2,0,6.3,2.2,0.4,3.2z M10.4,31.7L10.4,31.7L10.4,31.7L10.4,31.7L10.4,31.7c0,0,0.1,0,0.1,0l0,0.1
				c0.2,0.1,0.5,0.3,0.9,0.6c0.4,0.4,0.7,1,0.9,1.6c0.2,0.7,0.2,1.5,0.1,1.9c2.2,1.5,6,4.9,8.1,6.6c0.7-0.3,5.1-4.6,7.8-6.6
				c0-0.4,0-1.2,0.1-1.9c0.2-0.7,0.5-1.3,0.9-1.6c0.3-0.4,0.7-0.5,0.9-0.6l0-0.1c0.1,0,0.1,0,0.1,0l0,0l0,0l0,0l0,0
				c0.1,0,0.1,0.1,0.1,0.4c0,0.4,0,1.2-0.1,1.9c-0.2,0.7-0.5,1.3-0.9,1.6c-0.3,0.3-0.5,0.4-0.7,0.5l0.1,0.1c0,0,0.1-0.1,0.2-0.1
				c0.3-0.2,1-0.6,1.7-0.7c0.7-0.1,1.3,0,1.7,0.2c0.4,0.2,0.7,0.4,0.8,0.6l0.1,0c0,0.1,0,0.1,0.1,0.1v0l0,0l0,0l0,0
				c0,0.1-0.1,0.1-0.3,0.2c-0.3,0.2-1,0.6-1.7,0.7c-0.7,0.1-1.3,0-1.7-0.2c-0.2-0.1-0.3-0.1-0.4-0.2c0,0,0.1,0.1,0.1,0.1
				c-0.9,1-6.6,5.4-8.7,7.9c-1.6-1.5-0.4-0.3-1.4-1.3l-3.2-2.9c-0.9-0.8-1.3-1.1-2.3-1.9c-0.8-0.6-1.6-1.1-2.3-1.7
				c0.1-0.1,0.1-0.2,0.2-0.3c-0.2,0.1-0.4,0.3-0.6,0.4c-0.5,0.2-1.1,0.3-1.7,0.2c-0.6-0.1-1.3-0.5-1.7-0.7c-0.2-0.1-0.3-0.2-0.3-0.2
				l0,0l0,0l0,0v0c0,0,0-0.1,0.1-0.1l0.1,0c0.1-0.1,0.4-0.4,0.8-0.6c0.5-0.2,1.1-0.3,1.7-0.2c0.7,0.1,1.3,0.5,1.7,0.7
				c0.1,0,0.1,0.1,0.2,0.1c0,0,0-0.1,0-0.1c-0.2-0.1-0.4-0.3-0.7-0.5c-0.4-0.4-0.7-1-0.9-1.6c-0.2-0.7-0.2-1.5-0.1-1.9
				C10.3,31.8,10.3,31.7,10.4,31.7z"/>
		</defs>
		<clipPath id="SVGID_2_">
			<use xlink:href="#SVGID_14_"  style="overflow:visible;"/>
		</clipPath>
		<linearGradient id="SVGID_4_" gradientUnits="userSpaceOnUse" x1="20.4037" y1="2.754639e-02" x2="20.4837" y2="44.8561">
			<stop  offset="0" style="stop-color:#997145"/>
			<stop  offset="0.5" style="stop-color:#C3AD86"/>
			<stop  offset="1" style="stop-color:#997145"/>
		</linearGradient>
		<rect style="clip-path:url(#SVGID_2_);fill:url(#SVGID_4_);" width="40.9" height="44.9"/>
	</g>
	<g>
		<g>
			<defs>
				<path id="SVGID_17_" d="M68.8,16.7c0,2,0,3.7-0.1,4.6c-0.1,0.6-0.1,1-0.6,1.1c-0.2,0-0.5,0.1-0.7,0.1c-0.1,0-0.2,0.1-0.2,0.2
					c0,0.1,0.1,0.2,0.4,0.2c0.3,0,0.8,0,1.3,0c0.5,0,0.9,0,0.9,0c0.3,0,0.9,0,1.8,0c0.9,0,2.2,0.1,3.8,0.1c0.8,0,1.1,0,1.2-0.5
					c0.1-0.4,0.3-1.9,0.3-2c0-0.1,0-0.3-0.1-0.3c-0.1,0-0.2,0.1-0.2,0.3c-0.1,0.8-0.4,1.2-1,1.5c-0.6,0.2-1.6,0.2-2.2,0.2
					c-2.2,0-2.6-0.3-2.6-1.7c0-0.4,0-2.9,0-3.6v-1.8c0-0.1,0-0.1,0.1-0.1c0.4,0,2.7,0,3.3,0.1c0.8,0.1,1,0.3,1.1,0.6
					c0.1,0.3,0.1,0.5,0.1,0.7c0,0.1,0,0.2,0.2,0.2c0.1,0,0.2-0.2,0.2-0.4c0-0.1,0-0.9,0.1-1.4c0.1-0.7,0.2-1,0.2-1.2s0-0.2-0.1-0.2
					c-0.1,0-0.2,0.1-0.3,0.3c-0.2,0.2-0.5,0.2-1.1,0.3c-0.5,0-3.4,0-3.7,0c-0.1,0-0.1-0.1-0.1-0.2V7.9c0-0.1,0-0.2,0.1-0.2
					c0.2,0,2.8,0,3.2,0.1c1.2,0.1,1.4,0.3,1.6,0.6c0.1,0.2,0.1,0.6,0.1,0.7c0,0.2,0.1,0.3,0.2,0.3c0.1,0,0.2-0.1,0.2-0.2
					C76.2,9,76.2,8,76.3,7.9c0-0.6,0.2-0.8,0.2-1c0-0.1,0-0.2-0.1-0.2c-0.1,0-0.2,0.1-0.3,0.1c-0.2,0-0.6,0.1-1,0.1
					c-0.5,0-5.1,0-5.2,0c-0.1,0-1.5,0-2.5,0c-0.3,0-0.3,0-0.3,0.2c0,0.1,0.1,0.2,0.2,0.2c0.2,0,0.6,0,0.7,0c0.7,0.1,0.8,0.4,0.9,1.2
					c0.1,0.7,0.1,1.3,0.1,4.5V16.7z M85.7,22.9c0.6-0.1,1.2-0.3,1.6-0.6c1.6-1,2-2.4,2-3.6c0-1.8-0.9-3.3-3.6-5.1l-0.6-0.4
					c-2.2-1.5-2.8-2.2-2.8-3.6c0-1.5,1.3-2.3,2.9-2.3c2,0,2.7,0.8,2.8,1c0.1,0.2,0.3,0.8,0.3,1c0,0.2,0.1,0.3,0.2,0.3
					c0.2,0,0.2-0.1,0.2-0.5c0-1.4,0.1-2.1,0.1-2.2c0-0.1-0.1-0.1-0.2-0.1c-0.2,0-0.3,0-0.8-0.1c-0.5-0.1-1.4-0.3-2.3-0.3
					c-2.9,0-4.9,1.5-4.9,4c0,1.5,0.8,2.8,3.1,4.5l1,0.7c1.9,1.4,2.8,2.2,2.8,3.7c0,1.6-1.1,2.8-3.3,2.8c-1.5,0-3.1-0.5-3.5-2.1
					c-0.1-0.3-0.1-0.6-0.1-0.8c0-0.2-0.1-0.2-0.2-0.2c-0.1,0-0.2,0.1-0.2,0.3c0,0.3-0.1,1.2-0.1,2.2c0,0.6,0,0.6,0.3,0.8
					c0.9,0.4,2.2,0.6,3.2,0.6c0.2,0,0.4,0,0.7,0L83,24.3c-0.2,0.2-0.3,0.3-0.3,0.3c0,0.1,0.1,0.1,0.4,0.2c1.5,0.4,1.8,1.1,1.8,1.8
					c0,0.9-1,1.4-1.8,1.5c-0.3,0-0.5,0.1-0.5,0.3c0,0.1,0.1,0.2,0.3,0.2c0.5,0,1.3-0.1,1.9-0.4c0.8-0.3,1.8-1.1,1.8-2
					c0-1-0.9-1.6-2.5-1.8C84.3,24.2,85.2,23.3,85.7,22.9z M97.1,12.9c0-3.3,0-3.9,0-4.5c0.1-0.7,0.2-1,0.8-1.2c0.2,0,0.4,0,0.5,0
					c0.1,0,0.2-0.1,0.2-0.2c0-0.1-0.1-0.2-0.3-0.2c-0.7,0-2.1,0-2.2,0c-0.1,0-1.5,0-2.2,0c-0.3,0-0.3,0-0.3,0.2
					c0,0.1,0.1,0.2,0.2,0.2c0.1,0,0.4,0,0.7,0.1c0.5,0.1,0.6,0.4,0.7,1.1c0,0.7,0,1.3,0,4.5v3.7c0,2,0,3.7-0.1,4.6
					c-0.1,0.6-0.1,1-0.6,1.1c-0.2,0-0.5,0.1-0.7,0.1c-0.1,0-0.2,0.1-0.2,0.2c0,0.1,0.1,0.2,0.4,0.2c0.7,0,2-0.1,2.2-0.1
					c0.1,0,1.5,0.1,2.7,0.1c0.2,0,0.3-0.1,0.3-0.2c0-0.1-0.1-0.2-0.2-0.2c-0.2,0-0.7,0-1-0.1c-0.7-0.1-0.7-0.5-0.8-1.1
					c-0.1-0.9-0.1-2.5-0.1-4.6V12.9z M106.3,12.9c0-3.3,0-3.9,0-4.5c0.1-0.7,0.2-1.1,0.8-1.2c0.2,0,0.6,0,0.7,0
					c0.1,0,0.2-0.1,0.2-0.1c0-0.1-0.1-0.2-0.3-0.2c-0.7,0-2.3,0-2.4,0c-0.1,0-1.5,0-2.5,0c-0.3,0-0.3,0-0.3,0.2
					c0,0.1,0.1,0.2,0.2,0.2c0.2,0,0.6,0,0.7,0c0.7,0.1,0.8,0.4,0.9,1.2c0.1,0.7,0.1,1.3,0.1,4.5v3.7c0,2,0,3.7-0.1,4.6
					c-0.1,0.6-0.1,1-0.6,1.1c-0.2,0-0.5,0.1-0.7,0.1c-0.1,0-0.2,0.1-0.2,0.2c0,0.1,0.1,0.2,0.3,0.2c0.3,0,0.8,0,1.3,0
					c0.4,0,0.8,0,0.9,0c0.6,0,1.4,0,2.4,0c1,0,2.2,0.1,3.8,0.1c1.2,0,1.2-0.1,1.4-0.6c0.2-0.6,0.3-1.9,0.3-2.1
					c0-0.2-0.1-0.3-0.1-0.3c-0.1,0-0.2,0.1-0.2,0.3c-0.1,0.4-0.3,0.9-0.5,1.2c-0.5,0.6-1.5,0.6-2.6,0.6c-1.7,0-2.6-0.1-2.9-0.5
					c-0.4-0.4-0.4-1.6-0.4-4.7V12.9z M130.1,21.8c-2.8,0-5-2.2-5-5.3c0-2,0.9-3.3,2.2-4.2c0.7,1,2.3,2.8,2.9,3.5
					c0.6,0.7,3.1,3,4.5,4.2C134,20.8,132.5,21.8,130.1,21.8z M129.3,23.1c3.7,0,5.7-2.1,6.2-2.7c2.7,2.2,3.3,2.3,5.2,2.3h2.4
					c0.2,0,0.4-0.1,0.4-0.2c0-0.1-0.1-0.2-0.3-0.2c-0.9,0-2.2-0.5-3-1c-0.7-0.4-1.8-1.1-3.4-2.5c1.1-1.3,2.5-3.8,2.5-5.9
					c0-0.2-0.1-0.4-0.4-0.5c-1.4-0.1-2.4-0.2-3-0.2c-0.2,0-0.4,0-0.4,0.2c0,0.1,0.1,0.2,0.3,0.2c0.4,0,0.9,0.1,1.2,0.4
					c0.4,0.4,0.5,0.8,0.5,1.2c0,1.5-0.6,3.2-1.3,4.1c-0.8-0.7-3.9-3.5-4.7-4.4c-2.6-2.8-3.9-4.4-3.9-6.3c0-2.3,1.7-3.2,3.2-3.2
					c1.1,0,1.9,0.5,2.5,1.1c0.6,0.6,0.8,1.5,0.8,2.1c0,0.4,0,0.5,0.2,0.5c0.1,0,0.2,0,0.2-0.4c0.1-0.4,0.2-2.1,0.2-2.9
					c0-0.3,0-0.4-0.3-0.6c-0.7-0.4-1.7-0.6-3-0.6c-3.3,0-5.4,2.6-5.4,4.6c0,1.1,0.3,2.1,1.2,3.4c-1.9,1.1-3.8,3.1-3.8,6
					C123.2,19.8,124.9,23.1,129.3,23.1z M155.9,13c0-0.1,0-0.2,0.1-0.2c0.4,0,1.6,0,1.9,0c0.6,0.1,1.2,0.1,2.1,0.7
					c1.9,1.3,2.4,3.5,2.4,5c0,2.8-2.2,3.5-3.5,3.5c-0.4,0-1.5,0-2.2-0.4c-0.8-0.4-0.8-0.7-0.8-1.9c0-0.4,0-3.4,0-5.4V13z M155.9,5.1
					c0-0.1,0.1-0.2,0.3-0.3c0.4-0.1,0.9-0.1,1.2-0.1c2.4,0,3.4,2.2,3.4,4.3c0,1-0.4,1.9-0.9,2.5c-0.5,0.6-0.9,0.6-2.3,0.6
					c-0.9,0-1.4-0.1-1.5-0.1c-0.1,0-0.2-0.1-0.2-0.3V5.1z M153.9,15.6c0,2.4,0,4.3-0.1,5.4c-0.1,0.7-0.2,1.3-0.7,1.4
					c-0.2,0-0.5,0.1-0.7,0.1c-0.1,0-0.2,0.1-0.2,0.1c0,0.1,0.1,0.2,0.4,0.2c0.4,0,0.9,0,1.4,0c0.5,0,0.9,0,1,0c0.1,0,0.8,0,1.5,0.1
					c0.7,0,1.5,0.1,1.8,0.1c4.3,0,6.4-2.8,6.4-5.4c0-2.9-2.5-4.7-4.3-5.2c1.2-1.2,2.3-2.4,2.3-4.5c0-1.2-0.9-3.7-5-3.7
					c-1.1,0-2.1,0.1-2.7,0.1c-0.1,0-1.7-0.1-2.8-0.1c-0.3,0-0.4,0-0.4,0.2c0,0.1,0.1,0.1,0.2,0.1c0.2,0,0.6,0,0.8,0.1
					c0.8,0.2,1,0.6,1.1,1.4c0,0.8,0,1.5,0,5.4V15.6z M171.6,16c-0.1,0-0.1,0-0.1-0.1l2-5.8c0.1-0.3,0.2-0.3,0.4,0l2.2,5.8
					c0,0.1,0,0.1-0.1,0.1H171.6z M168.5,20.4c-0.4,1.1-0.8,1.8-1.8,1.9c-0.2,0-0.5,0-0.6,0c-0.1,0-0.2,0.1-0.2,0.2
					c0,0.1,0.2,0.2,0.4,0.2c0.9,0,2-0.1,2.2-0.1c0.2,0,1.4,0.1,2,0.1c0.2,0,0.3,0,0.3-0.2c0-0.1,0-0.2-0.2-0.2h-0.2
					c-0.4,0-0.7-0.1-0.7-0.6c0-0.4,0.1-0.9,0.3-1.4l1.2-3.4c0.1-0.1,0.1-0.2,0.2-0.2h5.1c0.1,0,0.2,0,0.2,0.1l2,4.8
					c0.2,0.3-0.1,0.5-0.2,0.6c-0.1,0-0.2,0-0.2,0.1c0,0.1,0.4,0.1,0.8,0.1c1.5,0,3.1,0,3.5,0c0.2,0,0.5,0,0.5-0.2s-0.1-0.2-0.3-0.2
					c-0.2,0-0.5,0-0.9-0.1c-0.5-0.1-1.1-0.4-1.9-2.3c-1.3-3.2-4.9-11.9-5.3-12.8c-0.2-0.5-0.3-0.8-0.5-0.8c-0.1,0-0.3,0.1-0.5,0.8
					L168.5,20.4z M187.9,12.9c0-3.3,0-3.9,0-4.5c0.1-0.7,0.2-1.1,0.8-1.2c0.2,0,0.6,0,0.7,0c0.1,0,0.2-0.1,0.2-0.1
					c0-0.1-0.1-0.2-0.3-0.2c-0.7,0-2.3,0-2.4,0c-0.1,0-1.5,0-2.5,0c-0.3,0-0.3,0-0.3,0.2c0,0.1,0.1,0.2,0.2,0.2c0.2,0,0.6,0,0.7,0
					c0.7,0.1,0.8,0.4,0.9,1.2c0,0.7,0,1.3,0,4.5v3.7c0,2,0,3.7-0.1,4.6c-0.1,0.6-0.1,1-0.6,1.1c-0.2,0-0.5,0.1-0.7,0.1
					c-0.1,0-0.2,0.1-0.2,0.2c0,0.1,0.1,0.2,0.3,0.2c0.3,0,0.8,0,1.3,0c0.4,0,0.8,0,0.9,0c0.6,0,1.4,0,2.4,0c1,0,2.2,0.1,3.8,0.1
					c1.2,0,1.2-0.1,1.4-0.6c0.2-0.6,0.3-1.9,0.3-2.1c0-0.2,0-0.3-0.1-0.3c-0.1,0-0.2,0.1-0.2,0.3c-0.1,0.4-0.2,0.9-0.5,1.2
					c-0.5,0.6-1.5,0.6-2.6,0.6c-1.7,0-2.6-0.1-2.9-0.5c-0.4-0.4-0.4-1.6-0.4-4.7V12.9z M202.7,7.8l2.7,0c2.1,0,2.6,0.5,2.6,1.2
					l0,0.2c0,0.3,0.1,0.4,0.2,0.4c0.1,0,0.2-0.1,0.2-0.3c0-0.2,0.1-1.8,0.1-2.4c0-0.1,0-0.2-0.1-0.2c-0.1,0-0.3,0-0.6,0.1
					c-0.3,0-0.8,0.1-1.6,0.1h-8.3c-0.2,0-1.1,0-1.7-0.1c-0.6-0.1-0.8-0.2-1-0.2c-0.1,0-0.2,0.3-0.2,0.4c0,0.2-0.5,2.1-0.5,2.3
					c0,0.1,0.1,0.2,0.1,0.2c0.1,0,0.2,0,0.2-0.2c0.1-0.1,0.1-0.3,0.3-0.7c0.3-0.5,0.8-0.6,2.2-0.7l3.2,0v8.8c0,2,0,3.7-0.1,4.6
					c-0.1,0.6-0.2,1-0.7,1.1c-0.2,0-0.4,0.1-0.6,0.1c-0.1,0-0.2,0.1-0.2,0.1c0,0.1,0.1,0.2,0.3,0.2c0.7,0,2.2-0.1,2.3-0.1
					c0.1,0,1.5,0.1,2.7,0.1c0.3,0,0.3-0.1,0.3-0.2c0-0.1,0-0.2-0.2-0.2c-0.2,0-0.7,0-1-0.1c-0.7-0.1-0.8-0.5-0.8-1.1
					c-0.1-0.9-0.1-2.5-0.1-4.6V7.8z M213.4,16c-0.1,0-0.1,0-0.1-0.1l2-5.8c0.1-0.3,0.2-0.3,0.4,0l2.2,5.8c0,0.1,0,0.1-0.1,0.1H213.4
					z M210.3,20.4c-0.4,1.1-0.8,1.8-1.8,1.9c-0.2,0-0.5,0-0.6,0c-0.1,0-0.2,0.1-0.2,0.2c0,0.1,0.2,0.2,0.4,0.2c0.9,0,2-0.1,2.2-0.1
					c0.2,0,1.4,0.1,2,0.1c0.2,0,0.3,0,0.3-0.2c0-0.1,0-0.2-0.2-0.2h-0.2c-0.4,0-0.7-0.1-0.7-0.6c0-0.4,0.1-0.9,0.3-1.4l1.2-3.4
					c0.1-0.1,0.1-0.2,0.2-0.2h5.1c0.1,0,0.2,0,0.2,0.1l2,4.8c0.1,0.3-0.1,0.5-0.2,0.6c-0.1,0-0.2,0-0.2,0.1c0,0.1,0.3,0.1,0.8,0.1
					c1.5,0,3.1,0,3.5,0c0.2,0,0.5,0,0.5-0.2s-0.1-0.2-0.3-0.2c-0.2,0-0.5,0-0.9-0.1c-0.5-0.1-1.1-0.4-1.9-2.3
					c-1.3-3.2-4.9-11.9-5.3-12.8c-0.2-0.5-0.3-0.8-0.5-0.8c-0.1,0-0.2,0.1-0.5,0.8L210.3,20.4z M235.1,23c1.4,0,3.1-0.1,4-0.5
					c0.4-0.1,0.4-0.2,0.5-0.6c0.2-0.7,0.5-2.6,0.5-2.7c0-0.1-0.1-0.3-0.2-0.3c-0.1,0-0.2,0.1-0.2,0.3c-0.1,0.4-0.4,1.3-0.8,1.8
					c-0.9,0.9-2,1-3.6,1c-4.7,0-7.9-3.6-7.9-7.6c0-2.1,0.3-4,2-5.5c0.8-0.7,2.1-1.5,4.9-1.5c1.9,0,3.5,0.5,4.3,1.2
					c0.6,0.4,0.9,1.3,0.9,2.1c0,0.3,0,0.4,0.2,0.4c0.1,0,0.2-0.1,0.2-0.4c0-0.3,0-1.5,0-2.2c0-0.8,0.1-1,0.1-1.2
					c0-0.1-0.1-0.2-0.3-0.2c-0.7,0-1.4-0.2-2.2-0.3c-1.1-0.2-2.3-0.2-3.2-0.2c-3.4,0-5.4,1-6.7,2.3c-1.9,1.9-2.5,4.3-2.5,5.8
					c0,2,0.5,4.4,2.7,6.2C229.6,22.3,231.8,23,235.1,23z M247.4,12.9c0-3.3,0-3.9,0-4.5c0.1-0.7,0.2-1,0.8-1.2c0.2,0,0.4,0,0.5,0
					c0.1,0,0.2-0.1,0.2-0.2c0-0.1-0.1-0.2-0.3-0.2c-0.7,0-2.1,0-2.2,0c-0.1,0-1.5,0-2.2,0c-0.3,0-0.3,0-0.3,0.2
					c0,0.1,0.1,0.2,0.2,0.2c0.1,0,0.4,0,0.7,0.1c0.5,0.1,0.6,0.4,0.7,1.1c0,0.7,0,1.3,0,4.5v3.7c0,2,0,3.7-0.1,4.6
					c-0.1,0.6-0.1,1-0.6,1.1c-0.2,0-0.5,0.1-0.7,0.1c-0.1,0-0.2,0.1-0.2,0.2c0,0.1,0.1,0.2,0.3,0.2c0.7,0,2-0.1,2.2-0.1
					c0.1,0,1.5,0.1,2.7,0.1c0.2,0,0.3-0.1,0.3-0.2c0-0.1,0-0.2-0.2-0.2c-0.2,0-0.7,0-1-0.1c-0.6-0.1-0.7-0.5-0.8-1.1
					c-0.1-0.9-0.1-2.5-0.1-4.6V12.9z M254.5,14.2c0-4.6,2.6-6.9,6.3-6.9c3.5,0,6.6,2.7,6.6,7.7c0,6.1-4,7.1-5.9,7.1
					C257.5,22.2,254.5,19.1,254.5,14.2z M252.2,14.8c0,3.8,2.6,8.3,8.6,8.3c5.3,0,8.8-3.9,8.8-8.6c0-4.9-3.7-7.9-8.7-7.9
					C254.9,6.5,252.2,11.4,252.2,14.8z M277.5,3.1c-0.1,0-0.2,0.1-0.2,0.2c0,0.2,0.5,0.6,0.9,0.9c0.7,0.5,1.5,0.7,2.3,0.7
					c1.1,0,1.7-0.2,2.5-0.7c0.6-0.3,1.5-1.3,1.5-1.6c0-0.1-0.1-0.2-0.2-0.2c-0.2,0-0.3,0.3-1,0.8c-0.5,0.4-1.2,0.7-2.2,0.7
					c-0.3,0-1.5-0.1-2.3-1.2c-0.1-0.2-0.2-0.4-0.3-0.4c-0.1,0-0.2,0.1-0.2,0.1L277.5,3.1z M285.2,21c0,0.4-0.2,0.5-0.4,0.6
					c-0.6,0.3-1.6,0.4-2.4,0.4c-2,0-3.9-0.6-5.6-2.2c-0.8-0.7-2.3-2.9-2.3-5.8c0-2.5,0.9-4.3,2.2-5.3c1.7-1.3,3.3-1.4,4.6-1.4
					c2.8,0,4.5,0.8,5.1,1.6c0.3,0.5,0.5,1.1,0.5,1.4c0,0.2,0,0.3,0.1,0.3c0.1,0,0.3-0.1,0.3-0.4c0-2.1,0.1-2.7,0.1-3
					c0-0.1,0-0.2-0.3-0.2c-0.5,0-1.3-0.1-1.8-0.2c-0.4-0.1-2-0.3-3.4-0.3c-1.7,0-3.9,0.1-5.8,1.3c-1.9,1.2-3.7,3.5-3.7,6.9
					c0,2.6,1.3,4.9,2.6,6c2.4,2.1,5.6,2.3,7.2,2.3c1.3,0,3.3-0.2,4.7-0.9c0.3-0.1,0.3-0.2,0.3-1.1v-2.4c0-0.9,0-1.5,0-2.2
					c0-0.7,0.2-1.1,0.8-1.2c0.2,0,0.4,0,0.6,0c0.1,0,0.2-0.1,0.2-0.2c0-0.1-0.1-0.2-0.3-0.2c-0.7,0-2,0-2.1,0c-0.1,0-1.6,0-2.6,0
					c-0.3,0-0.3,0-0.3,0.2c0,0.1,0.1,0.2,0.2,0.2c0.2,0,0.6,0,0.7,0c0.9,0.2,0.9,0.4,0.9,2.1V21z M295.9,12.9c0-3.3,0-3.9,0-4.5
					c0.1-0.7,0.2-1.1,0.8-1.2c0.3,0,0.6,0,0.7,0c0.1,0,0.2-0.1,0.2-0.1c0-0.1-0.1-0.2-0.4-0.2c-0.7,0-2.3,0-2.4,0
					c-0.1,0-1.5,0-2.5,0c-0.3,0-0.3,0-0.3,0.2c0,0.1,0.1,0.2,0.2,0.2c0.2,0,0.6,0,0.7,0c0.7,0.1,0.8,0.4,0.9,1.2c0,0.7,0,1.3,0,4.5
					v3.7c0,2,0,3.7-0.1,4.6c-0.1,0.6-0.1,1-0.6,1.1c-0.2,0-0.5,0.1-0.7,0.1c-0.1,0-0.2,0.1-0.2,0.2c0,0.1,0.1,0.2,0.4,0.2
					c0.3,0,0.8,0,1.3,0c0.4,0,0.8,0,0.9,0c0.6,0,1.4,0,2.4,0c1,0,2.2,0.1,3.8,0.1c1.2,0,1.2-0.1,1.4-0.6c0.2-0.6,0.3-1.9,0.3-2.1
					c0-0.2,0-0.3-0.1-0.3c-0.1,0-0.2,0.1-0.2,0.3c-0.1,0.4-0.2,0.9-0.5,1.2c-0.5,0.6-1.5,0.6-2.6,0.6c-1.7,0-2.6-0.1-2.9-0.5
					c-0.4-0.4-0.4-1.6-0.4-4.7V12.9z M306,16c0,3.1,0.8,4.5,1.9,5.5c1.5,1.4,3.8,1.5,4.6,1.5c1.3,0,3-0.2,4.6-1.5c1.7-1.5,2-4,2-6.3
					v-2.3c0-3.3,0-3.9,0-4.5c0-0.7,0.2-1,0.8-1.2c0.3,0,0.4,0,0.5,0c0.1,0,0.2-0.1,0.2-0.2c0-0.1-0.1-0.2-0.3-0.2
					c-0.6,0-1.7,0-1.8,0c-0.1,0-1.4,0-2.4,0c-0.2,0-0.3,0-0.3,0.2c0,0.1,0.1,0.2,0.2,0.2c0.2,0,0.6,0,0.7,0c0.7,0.1,0.8,0.5,0.9,1.2
					c0,0.7,0,1.3,0,4.5v2.7c0,2.2-0.2,3.9-1.2,5.1c-0.7,0.9-2,1.5-3.4,1.5c-1.2,0-2.2-0.2-3.3-1.1c-0.9-0.8-1.6-2.1-1.6-5.2v-3
					c0-3.3,0-3.9,0-4.5c0-0.7,0.2-1.1,0.7-1.2c0.3,0,0.4,0,0.5,0c0.1,0,0.2-0.1,0.2-0.2c0-0.1-0.1-0.2-0.4-0.2c-0.6,0-2,0-2.2,0
					c-0.2,0-1.5,0-2.5,0c-0.2,0-0.3,0-0.3,0.2c0,0.1,0.1,0.2,0.2,0.2c0.2,0,0.6,0,0.7,0c0.7,0.1,0.8,0.5,0.9,1.2c0,0.7,0,1.3,0,4.5
					V16z M96.2,3.1c0.8,0,1.4,0.6,1.4,1.4c0,0.8-0.6,1.4-1.4,1.4c-0.8,0-1.4-0.6-1.4-1.4C94.8,3.8,95.4,3.1,96.2,3.1z M55.8,18.5
					c0,0.4,0,1.4-0.1,2.5c-0.1,0.7-0.3,1.3-0.8,1.4c-0.2,0-0.5,0.1-0.7,0.1c-0.1,0-0.2,0.1-0.2,0.1c0,0.1,0.1,0.2,0.4,0.2
					c0.7,0,2.3-0.1,2.4-0.1c0.1,0,1.7,0.1,3.1,0.1c0.3,0,0.4-0.1,0.4-0.2c0-0.1-0.1-0.1-0.2-0.1c-0.2,0-0.8,0-1.1-0.1
					c-0.7-0.1-1-0.6-1-1.4c-0.1-1-0.1-2.1-0.1-2.5v-2.1c0-0.8,0-1.6,0.4-2.5C58.7,12.8,62.2,7,63,6c0.5-0.7,0.8-1,1.3-1.3
					c0.4-0.2,0.9-0.3,1.1-0.3c0.2,0,0.3-0.1,0.3-0.2c0-0.1-0.2-0.1-0.3-0.1c-0.5,0-2.3,0.1-2.4,0.1c-0.2,0-1-0.1-1.6-0.1
					c-0.2,0-0.4,0-0.4,0.1c0,0.1,0.1,0.2,0.4,0.2c0.3,0.1,0.4,0.3,0.4,0.7c0,0.3-0.1,0.7-0.4,1.3c-0.5,0.8-3.7,6.2-4.1,7.3
					C56.8,13,53,6.6,52.6,5.8c-0.2-0.4-0.3-0.7-0.3-1c0-0.2,0.1-0.3,0.3-0.4C52.8,4.3,53,4.3,53,4.2C53,4.1,52.9,4,52.7,4
					c-1,0-1.9,0.1-2.1,0.1c-0.1,0-2-0.1-2.5-0.1c-0.2,0-0.3,0.1-0.3,0.2c0,0.1,0.1,0.2,0.2,0.2c0.2,0,0.7,0.1,1.1,0.4
					c0.4,0.3,1.1,0.9,1.7,1.8c0.9,1.3,4.2,6.7,4.4,7.1c0.3,0.7,0.6,1.3,0.6,2.6V18.5z"/>
			</defs>
			<clipPath id="SVGID_6_">
				<use xlink:href="#SVGID_17_"  style="overflow:visible;"/>
			</clipPath>
			<linearGradient id="SVGID_7_" gradientUnits="userSpaceOnUse" x1="55.1344" y1="17.0719" x2="321.49" y2="13.8757">
				<stop  offset="0" style="stop-color:#A58057"/>
				<stop  offset="0.44" style="stop-color:#C3AD86"/>
				<stop  offset="1" style="stop-color:#9A744C"/>
			</linearGradient>
			<rect x="47.8" y="2.4" style="clip-path:url(#SVGID_6_);fill:url(#SVGID_7_);" width="272.9" height="26.2"/>
		</g>
		<g>
			<g>
				<g>
					<path class="st2" d="M63.3,39.9c-0.2,0-1.2,0-2.1,0c-0.3,0-0.5,0-0.5-0.2c0,0,0-0.2,0.2-0.2c0-0.1,0-0.1,0-0.2l-1.3-3.4l-2.9,0
						l-0.8,2.5c-0.1,0.3-0.2,0.7-0.2,0.9c0,0.2,0.2,0.3,0.4,0.3h0.1c0.2,0,0.2,0.1,0.2,0.2c0,0.1,0,0.2-0.3,0.2c-0.2,0-0.5,0-0.7,0
						c-0.2,0-0.3,0-0.3,0c0,0-0.2,0-0.3,0c-0.3,0-0.8,0-1.2,0c-0.1,0-0.4,0-0.4-0.2c0-0.1,0.1-0.2,0.2-0.2c0.1,0,0.3,0,0.4,0
						c0.5-0.1,0.8-0.5,1-1.2l3.1-8.6c0.2-0.5,0.2-0.6,0.4-0.6c0.2,0,0.2,0.2,0.4,0.6c0.1,0.1,0.3,0.7,0.6,1.5c0.7,2,2,5.3,2.6,6.8
						c0.5,1.1,0.8,1.4,1.1,1.5c0.2,0.1,0.4,0.1,0.5,0.1c0.2,0,0.2,0.1,0.2,0.2C63.7,39.7,63.6,39.9,63.3,39.9z M56.9,35.1l2.5,0
						l-1.3-3.7L56.9,35.1z"/>
					<path class="st6" d="M58.3,29.1c0.1,0,0.1,0.1,0.3,0.5c0.2,0.5,2.3,6.2,3.1,8.3c0.5,1.2,0.9,1.4,1.2,1.5
						c0.2,0.1,0.4,0.1,0.5,0.1c0.1,0,0.1,0,0.1,0.1c0,0.1-0.1,0.1-0.3,0.1c-0.2,0-1.2,0-2.1,0c-0.3,0-0.4,0-0.4-0.1
						c0-0.1,0-0.1,0.1-0.1c0.1,0,0.2-0.2,0.1-0.4l-1.3-3.4c0-0.1-0.1-0.1-0.1-0.1h-2.9c-0.1,0-0.1,0-0.1,0.1l-0.8,2.4
						c-0.1,0.3-0.2,0.7-0.2,0.9c0,0.3,0.3,0.4,0.5,0.4h0.1c0.1,0,0.1,0,0.1,0.1c0,0.1-0.1,0.1-0.2,0.1c-0.3,0-0.9,0-1.1,0
						c-0.1,0-0.9,0-1.5,0c-0.2,0-0.3,0-0.3-0.1c0-0.1,0.1-0.1,0.1-0.1c0.1,0,0.3,0,0.4,0c0.6-0.1,0.9-0.6,1.1-1.3l3.1-8.6
						C58.2,29.2,58.2,29.1,58.3,29.1 M56.8,35.2h2.6c0.1,0,0.1,0,0.1-0.1l-1.3-3.7c0-0.1-0.1-0.2-0.1-0.2c0,0-0.1,0.1-0.1,0.2
						L56.8,35.2C56.8,35.2,56.8,35.2,56.8,35.2 M58.3,28.9c-0.3,0-0.3,0.3-0.5,0.7l-3.1,8.6c-0.2,0.7-0.5,1.1-1,1.2
						c-0.1,0-0.3,0-0.4,0c-0.2,0-0.3,0.1-0.3,0.3c0,0.1,0.1,0.3,0.5,0.3c0.4,0,0.9,0,1.2,0c0.1,0,0.3,0,0.3,0c0.1,0,0.2,0,0.3,0
						c0.2,0,0.5,0,0.7,0c0.4,0,0.4-0.3,0.4-0.3c0-0.1-0.1-0.3-0.4-0.3h-0.1c-0.1,0-0.3,0-0.3-0.2c0-0.2,0.1-0.5,0.2-0.9l0.8-2.4h2.8
						l1.2,3.3c0,0.1,0,0.1,0,0.1c-0.2,0.1-0.2,0.2-0.2,0.3c0,0.3,0.3,0.3,0.5,0.3l0.1,0c0.9,0,1.9,0,2.1,0c0.4,0,0.5-0.2,0.5-0.3
						c0,0,0-0.3-0.4-0.3c-0.1,0-0.3,0-0.5-0.1c-0.2,0-0.5-0.2-1-1.4c-0.6-1.5-1.8-4.8-2.6-6.8c-0.3-0.8-0.5-1.4-0.6-1.5
						C58.7,29.2,58.6,28.9,58.3,28.9L58.3,28.9z M57.1,35l1-3.2l1.1,3.2H57.1L57.1,35z"/>
				</g>
				<g>
					<path class="st2" d="M67.5,40c-0.2,0-0.3-0.2-0.5-0.8L64.1,32c-0.3-0.6-0.4-0.7-0.7-0.8c-0.2,0-0.4,0-0.4,0
						c-0.1,0-0.2-0.1-0.2-0.2c0-0.2,0.3-0.2,0.4-0.2c0.4,0,0.8,0,1.1,0l0.3,0l0.2,0c0.2,0,0.6,0,0.9,0c0.1,0,0.4,0,0.4,0.2
						c0,0.1-0.1,0.2-0.2,0.2c-0.2,0-0.3,0-0.4,0c-0.1,0-0.1,0.1-0.1,0.1c0,0.1,0.1,0.4,0.2,0.7l2.2,5.9c0.8-1.7,2.2-5.4,2.4-6.2
						c0.1-0.2,0.1-0.3,0.1-0.4c0-0.1,0-0.1-0.1-0.1c-0.1,0-0.2,0-0.4,0c-0.1,0-0.2-0.1-0.2-0.2c0-0.2,0.3-0.2,0.4-0.2
						c0.3,0,0.6,0,0.9,0l0.3,0l0.2,0c0.2,0,0.5,0,0.8,0c0.3,0,0.3,0.1,0.3,0.2c0,0.1-0.1,0.2-0.2,0.2c-0.2,0-0.4,0-0.5,0.1
						c-0.1,0.1-0.3,0.2-0.6,1c-0.1,0.3-0.7,1.7-1.3,3.2l-0.6,1.4c-0.4,1-0.7,1.7-0.9,2.2l-0.1,0.2C67.8,39.9,67.7,40,67.5,40z"/>
					<path class="st6" d="M72.1,30.9c0.1,0,0.2,0,0.2,0.1c0,0.1,0,0.1-0.1,0.1c-0.1,0-0.4,0-0.6,0.1c-0.2,0.1-0.4,0.3-0.7,1.1
						c-0.1,0.3-0.7,1.7-1.3,3.2c-0.7,1.7-1.3,3-1.5,3.6c-0.3,0.7-0.4,0.9-0.5,0.9c-0.1,0-0.2-0.2-0.4-0.7L64.2,32
						c-0.3-0.7-0.4-0.8-0.8-0.9c-0.2,0-0.4,0-0.5,0c-0.1,0-0.1-0.1-0.1-0.1c0-0.1,0.1-0.1,0.3-0.1c0.6,0,1.2,0,1.4,0
						c0.1,0,0.6,0,1.1,0c0.2,0,0.3,0,0.3,0.1c0,0.1,0,0.1-0.1,0.1c-0.1,0-0.3,0-0.4,0.1c-0.1,0.1-0.1,0.1-0.1,0.2
						c0,0.2,0.1,0.5,0.3,1l2.2,5.9c0.7-1.6,2.2-5.6,2.5-6.4c0.1-0.2,0.1-0.3,0.1-0.4c0-0.1,0-0.2-0.2-0.2c-0.1,0-0.3,0-0.4,0
						c-0.1,0-0.1,0-0.1-0.1c0-0.1,0.1-0.1,0.3-0.1c0.5,0,1,0,1.2,0C71.2,30.9,71.7,30.9,72.1,30.9 M72.1,30.7c-0.2,0-0.6,0-0.8,0
						c-0.1,0-0.1,0-0.2,0c-0.1,0-0.2,0-0.3,0c-0.2,0-0.6,0-0.9,0c-0.3,0-0.5,0.1-0.5,0.3c0,0.2,0.2,0.3,0.4,0.3c0.1,0,0.2,0,0.3,0
						c0,0.1,0,0.2-0.1,0.3l0,0.1c-0.2,0.7-1.5,4.1-2.3,5.9l-2.1-5.4L65.7,32c-0.1-0.3-0.2-0.6-0.2-0.7c0.1,0,0.2,0,0.4,0
						c0.2,0,0.3-0.1,0.3-0.3c0-0.3-0.4-0.3-0.5-0.3c-0.3,0-0.6,0-0.9,0c-0.1,0-0.2,0-0.2,0c0,0-0.2,0-0.3,0c-0.3,0-0.7,0-1.1,0
						c-0.2,0-0.5,0-0.5,0.3c0,0.2,0.1,0.3,0.3,0.3c0.1,0,0.2,0,0.4,0c0.3,0.1,0.4,0.1,0.7,0.8l2.9,7.2c0.2,0.5,0.3,0.9,0.6,0.9
						c0.2,0,0.3-0.2,0.6-0.8l0.1-0.2c0.2-0.4,0.5-1.1,0.9-2.1l0.6-1.4c0.6-1.4,1.2-2.8,1.3-3.2c0.3-0.8,0.5-0.9,0.6-1
						c0.1-0.1,0.3-0.1,0.4-0.1c0.2,0,0.4-0.2,0.4-0.3C72.5,30.9,72.5,30.7,72.1,30.7L72.1,30.7z"/>
				</g>
				<g>
					<path class="st2" d="M76.9,40c-1.1,0-2-0.3-2.5-0.9c-0.5-0.5-1.1-1.3-1.1-3.2v-1.7c0-1.8,0-2.1,0-2.5c0-0.4-0.1-0.5-0.4-0.5
						c-0.1,0-0.3,0-0.4,0c-0.1,0-0.2-0.1-0.2-0.2c0-0.1,0.1-0.2,0.3-0.2c0.4,0,0.8,0,1.1,0l0.2,0l0.3,0c0.3,0,0.7,0,0.9,0
						c0.3,0,0.3,0.1,0.3,0.2c0,0.1-0.1,0.2-0.2,0.2c-0.1,0-0.1,0-0.3,0c-0.2,0-0.3,0.2-0.3,0.5c0,0.4,0,0.7,0,2.5v1.6
						c0,1.8,0.4,2.4,0.8,2.8c0.6,0.5,1,0.6,1.7,0.6c0.7,0,1.4-0.3,1.8-0.8c0.6-0.7,0.7-1.7,0.7-2.8v-1.5c0-1.8,0-2.1,0-2.5
						c0-0.4-0.1-0.5-0.4-0.6c-0.1,0-0.3,0-0.4,0c-0.1,0-0.2-0.1-0.2-0.2c0-0.1,0.1-0.2,0.3-0.2c0.4,0,0.9,0,1.1,0l0.2,0l0.2,0
						c0.2,0,0.6,0,0.8,0c0.2,0,0.3,0.1,0.3,0.2c0,0.1-0.1,0.2-0.2,0.2c-0.1,0-0.1,0-0.3,0c-0.2,0.1-0.3,0.2-0.3,0.5
						c0,0.3,0,0.5,0,1.2l0,2.6c0,1.2-0.1,2.7-1.1,3.6C78.6,39.9,77.7,40,76.9,40z"/>
					<path class="st6" d="M81.2,30.9c0.1,0,0.2,0,0.2,0.1c0,0,0,0.1-0.1,0.1c-0.1,0-0.1,0-0.3,0c-0.3,0.1-0.4,0.3-0.4,0.6
						c0,0.4,0,0.7,0,2.5v1.3c0,1.3-0.2,2.7-1.1,3.5c-0.9,0.8-1.8,0.9-2.5,0.9c-0.4,0-1.6,0-2.5-0.8c-0.6-0.6-1-1.4-1-3.1v-1.7
						c0-1.8,0-2.1,0-2.5c0-0.4-0.1-0.6-0.5-0.6c-0.1,0-0.3,0-0.4,0c0,0-0.1-0.1-0.1-0.1c0-0.1,0.1-0.1,0.2-0.1c0.5,0,1.3,0,1.4,0
						c0.1,0,0.9,0,1.2,0c0.1,0,0.2,0,0.2,0.1c0,0-0.1,0.1-0.1,0.1c-0.1,0-0.1,0-0.3,0c-0.3,0.1-0.4,0.3-0.4,0.6c0,0.4,0,0.7,0,2.5
						v1.6c0,1.7,0.4,2.4,0.9,2.9c0.6,0.5,1.1,0.6,1.8,0.6c0.7,0,1.4-0.3,1.8-0.8c0.6-0.7,0.7-1.6,0.7-2.8v-1.5c0-1.8,0-2.1,0-2.5
						c0-0.4-0.1-0.6-0.5-0.6c-0.1,0-0.3,0-0.4,0c-0.1,0-0.1-0.1-0.1-0.1c0-0.1,0.1-0.1,0.2-0.1c0.5,0,1.2,0,1.3,0
						C80.2,30.9,80.8,30.9,81.2,30.9 M81.2,30.7c-0.2,0-0.6,0-0.8,0c-0.1,0-0.2,0-0.2,0c0,0-0.1,0-0.2,0c-0.3,0-0.7,0-1.1,0
						c-0.4,0-0.4,0.2-0.4,0.3c0,0.2,0.1,0.3,0.3,0.3c0.1,0,0.3,0,0.4,0c0.2,0,0.3,0.1,0.3,0.4c0,0.4,0,0.8,0,2.5v1.5
						c0,1-0.1,2-0.6,2.7c-0.4,0.5-1,0.7-1.7,0.7c-0.6,0-1.1-0.1-1.6-0.6c-0.4-0.4-0.8-1-0.8-2.7v-1.6c0-1.8,0-2.1,0-2.5
						c0-0.4,0.1-0.4,0.2-0.5c0.1,0,0.2,0,0.3,0c0.2,0,0.3-0.1,0.3-0.3c0-0.1,0-0.3-0.4-0.3c-0.2,0-0.6,0-0.9,0c-0.2,0-0.3,0-0.3,0
						c0,0-0.1,0-0.2,0c-0.3,0-0.7,0-1.1,0c-0.4,0-0.4,0.2-0.4,0.3c0,0.2,0.2,0.3,0.3,0.3c0.1,0,0.3,0,0.4,0c0.2,0,0.3,0.1,0.3,0.4
						c0,0.4,0,0.7,0,2.5V36c0,1.9,0.6,2.7,1.1,3.2c0.6,0.6,1.5,0.9,2.6,0.9c0.7,0,1.7-0.1,2.6-0.9c1-0.9,1.2-2.4,1.2-3.7v-1.3l0-1.3
						c0-0.7,0-1,0-1.2c0-0.4,0.1-0.4,0.2-0.5c0.1,0,0.2,0,0.3,0c0.2,0,0.3-0.2,0.3-0.3C81.6,30.9,81.5,30.7,81.2,30.7L81.2,30.7z"/>
				</g>
				<g>
					<path class="st2" d="M90.9,39.9c-0.3,0-0.6,0-0.8,0c-0.6-0.1-1-0.3-1.4-0.7c-0.6-0.5-2.8-2.9-3.6-3.7v0.9c0,1.1,0,2,0.1,2.5
						c0,0.3,0.1,0.5,0.4,0.5c0.2,0,0.3,0.1,0.4,0.1c0.1,0,0.2,0.1,0.2,0.2c0,0,0,0.2-0.3,0.2c-0.4,0-0.9,0-1.2,0l-0.2,0
						c0,0-0.1,0-0.3,0c-0.3,0-0.7,0-0.9,0c-0.3,0-0.3-0.1-0.3-0.2c0-0.1,0.1-0.2,0.2-0.2c0.1,0,0.2,0,0.3-0.1c0.1,0,0.2-0.2,0.2-0.5
						c0.1-0.5,0.1-1.4,0.1-2.6v-2.1c0-1.8,0-2.1,0-2.5c0-0.4-0.1-0.5-0.4-0.5c-0.1,0-0.3,0-0.4,0c-0.1,0-0.2-0.1-0.2-0.2
						c0-0.1,0.1-0.2,0.3-0.2c0.4,0,0.9,0,1.2,0l0.2,0l0.3,0c0.3,0,0.6,0,0.9,0c0.2,0,0.3,0.1,0.3,0.2c0,0.1-0.1,0.2-0.2,0.2
						c-0.1,0-0.1,0-0.3,0c-0.2,0-0.3,0.1-0.3,0.5c0,0.4,0,0.7,0,2.5v0.5c0.2-0.3,0.9-0.9,1.4-1.5c0.5-0.5,1-1,1.2-1.2
						c0.3-0.3,0.6-0.6,0.6-0.8c0-0.1,0-0.1-0.1-0.1c-0.1,0-0.2-0.1-0.2-0.2c0-0.1,0.1-0.2,0.2-0.2c0.1,0,0.3,0,0.4,0
						c0.2,0,0.3,0,0.5,0l0.2,0c0.3,0,0.7,0,0.9,0c0.2,0,0.3,0.1,0.3,0.2c0,0.1-0.1,0.2-0.2,0.2c-0.2,0-0.4,0.1-0.6,0.2
						c-0.4,0.2-0.6,0.4-1,0.8l-0.2,0.2c-0.3,0.3-2.1,2-2.5,2.5c0.5,0.5,2.8,2.8,3.2,3.2l0.2,0.2c0.8,0.7,0.9,0.8,1.4,1
						c0.3,0.1,0.6,0.2,0.7,0.2c0.1,0,0.3,0.1,0.3,0.2c0,0.2-0.3,0.2-0.4,0.2H90.9z"/>
					<path class="st6" d="M90.3,30.9c0.1,0,0.2,0,0.2,0.1c0,0.1,0,0.1-0.1,0.1c-0.2,0-0.4,0.1-0.7,0.2c-0.5,0.2-0.7,0.5-1.2,1
						c-0.3,0.3-2.3,2.3-2.6,2.6c0.3,0.3,2.8,2.9,3.3,3.3c1,0.9,1.1,1.1,1.7,1.3c0.3,0.1,0.6,0.2,0.7,0.2c0.1,0,0.1,0,0.1,0.1
						c0,0.1-0.1,0.1-0.3,0.1h-0.6c-0.3,0-0.6,0-0.8,0c-0.6-0.1-0.9-0.3-1.4-0.7c-0.5-0.4-3-3.1-3.6-3.8H85v1.1c0,1.1,0,2.1,0.1,2.5
						c0,0.3,0.1,0.6,0.5,0.6c0.2,0,0.4,0.1,0.5,0.1c0.1,0,0.1,0.1,0.1,0.1c0,0.1-0.1,0.1-0.2,0.1c-0.6,0-1.3,0-1.4,0
						c-0.1,0-0.8,0-1.2,0c-0.1,0-0.2,0-0.2-0.1c0,0,0-0.1,0.1-0.1c0.1,0,0.3,0,0.4-0.1c0.2-0.1,0.3-0.3,0.3-0.6
						c0.1-0.5,0.1-1.4,0.1-2.5v-2.1c0-1.8,0-2.1,0-2.5c0-0.4-0.1-0.6-0.5-0.6c-0.1,0-0.3,0-0.4,0c0,0-0.1-0.1-0.1-0.1
						c0-0.1,0.1-0.1,0.2-0.1c0.5,0,1.3,0,1.3,0c0.1,0,0.8,0,1.2,0c0.1,0,0.2,0,0.2,0.1c0,0,0,0.1-0.1,0.1c-0.1,0-0.1,0-0.3,0
						c-0.3,0.1-0.4,0.2-0.4,0.6c0,0.4,0,0.7,0,2.5V35H85c0.2-0.2,2.3-2.4,2.8-2.8c0.3-0.3,0.6-0.6,0.6-0.8c0-0.2-0.1-0.2-0.1-0.2
						c-0.1,0-0.1-0.1-0.1-0.1c0-0.1,0.1-0.1,0.1-0.1c0.2,0,0.6,0,0.9,0C89.3,30.9,90,30.9,90.3,30.9 M90.3,30.7c-0.2,0-0.6,0-0.9,0
						c-0.1,0-0.2,0-0.2,0c-0.1,0-0.3,0-0.5,0c-0.2,0-0.3,0-0.4,0c-0.2,0-0.4,0.2-0.4,0.3c0,0.1,0.1,0.3,0.3,0.3c0,0,0,0,0,0
						c0,0.1-0.3,0.4-0.5,0.6L87.6,32c-0.2,0.2-0.7,0.7-1.2,1.2c-0.5,0.5-0.9,1-1.2,1.3v-0.2c0-1.8,0-2.1,0-2.5
						c0-0.4,0.1-0.4,0.3-0.5c0.1,0,0.2,0,0.3,0c0.2,0,0.3-0.2,0.3-0.3c0-0.1,0-0.3-0.4-0.3c-0.2,0-0.6,0-0.9,0c-0.1,0-0.3,0-0.3,0
						l-0.2,0c-0.3,0-0.8,0-1.2,0c-0.4,0-0.4,0.2-0.4,0.3c0,0.2,0.2,0.3,0.3,0.3c0.1,0,0.3,0,0.4,0c0.2,0,0.3,0.1,0.3,0.4
						c0,0.4,0,0.7,0,2.5v2.1c0,1.1,0,2-0.1,2.5c-0.1,0.4-0.1,0.4-0.1,0.4c-0.1,0-0.2,0-0.3,0c-0.2,0-0.3,0.1-0.3,0.3
						c0,0.1,0,0.3,0.4,0.3c0.2,0,0.6,0,0.9,0c0.1,0,0.2,0,0.3,0c0,0,0.1,0,0.2,0c0.3,0,0.8,0,1.2,0c0.4,0,0.4-0.3,0.4-0.3
						c0-0.2-0.1-0.3-0.3-0.3c0,0-0.2,0-0.4-0.1c-0.2,0-0.2-0.1-0.3-0.4c-0.1-0.5-0.1-1.4-0.1-2.5v-0.6c0.9,1,2.8,3.1,3.3,3.5l0.1,0
						c0.5,0.4,0.8,0.7,1.5,0.7c0.3,0,0.5,0,0.8,0h0.6c0.4,0,0.5-0.2,0.5-0.3c0-0.2-0.2-0.3-0.4-0.3c-0.1,0-0.4,0-0.6-0.2
						c-0.5-0.2-0.6-0.3-1.4-1l-0.3-0.2c-0.5-0.4-2.5-2.5-3.1-3.2c0.5-0.5,2.2-2.1,2.4-2.4l0.2-0.2c0.4-0.4,0.6-0.6,1-0.8
						c0.2-0.1,0.4-0.1,0.6-0.1c0.2,0,0.3-0.2,0.3-0.3C90.7,30.9,90.7,30.7,90.3,30.7L90.3,30.7z"/>
				</g>
				<g>
					<path class="st2" d="M99.5,39.9c-0.2,0-1.1,0-1.9,0c-0.3,0-0.5,0-0.5-0.2v-0.1l0.2-0.2c0,0,0-0.1,0-0.1l-1.1-2.7l-2.8,0
						l-0.7,1.9c-0.1,0.3-0.2,0.6-0.2,0.7c0,0.2,0.2,0.2,0.3,0.2H93c0.2,0,0.2,0.1,0.2,0.2c0,0.1,0,0.2-0.3,0.2c-0.2,0-0.5,0-0.7,0
						c-0.2,0-0.3,0-0.4,0c0,0-0.1,0-0.3,0c-0.2,0-0.6,0-1,0c-0.2,0-0.3-0.1-0.3-0.2c0-0.1,0.1-0.2,0.2-0.2c0.1,0,0.2,0,0.3,0
						c0.5-0.1,0.7-0.4,0.9-1l2.8-7.3c0.1-0.4,0.2-0.5,0.4-0.5c0.2,0,0.2,0.2,0.3,0.3l0.1,0.1c0.1,0.2,0.6,1.5,1.2,2.9
						c0.6,1.5,1.3,3.3,1.7,4.2c0.4,1.1,0.8,1.2,0.9,1.2c0.2,0.1,0.4,0.1,0.4,0.1c0.2,0,0.3,0.1,0.3,0.2
						C99.9,39.7,99.8,39.9,99.5,39.9z M93.7,36l2.3-0.1l-1.2-3.1L93.7,36z"/>
					<path class="st6" d="M95,30.7c0.1,0,0.2,0.2,0.3,0.4c0.2,0.5,2.1,5.3,2.9,7.1c0.4,1,0.8,1.2,1,1.3c0.2,0.1,0.4,0.1,0.5,0.1
						c0.1,0,0.1,0,0.1,0.1s-0.1,0.1-0.3,0.1c-0.2,0-1.1,0-1.9,0c-0.2,0-0.4,0-0.4-0.1c0-0.1,0-0.1,0.1-0.1c0.1,0,0.2-0.1,0.1-0.3
						l-1.1-2.7c0-0.1,0-0.1-0.1-0.1h-2.7c-0.1,0-0.1,0-0.1,0.1l-0.7,1.9c-0.1,0.3-0.2,0.6-0.2,0.8c0,0.2,0.2,0.3,0.4,0.3H93
						c0.1,0,0.1,0,0.1,0.1c0,0.1-0.1,0.1-0.2,0.1c-0.3,0-0.9,0-1.1,0c-0.1,0-0.7,0-1.2,0c-0.1,0-0.2,0-0.2-0.1
						c0-0.1,0.1-0.1,0.1-0.1c0.1,0,0.3,0,0.4,0c0.5-0.1,0.8-0.5,1-1.1l2.8-7.3C94.9,30.7,94.9,30.7,95,30.7 M93.6,36H96
						c0.1,0,0.1,0,0-0.1l-1.2-3.2c0-0.1-0.1-0.1-0.1-0.1c0,0-0.1,0-0.1,0.1L93.6,36C93.6,36,93.6,36,93.6,36 M95,30.5
						c-0.3,0-0.4,0.2-0.5,0.6l-2.8,7.3c-0.2,0.6-0.4,0.9-0.8,0.9c-0.1,0-0.3,0-0.3,0c-0.2,0-0.3,0.1-0.3,0.3c0,0.1,0,0.3,0.4,0.3
						c0.3,0,0.7,0,1,0c0.1,0,0.2,0,0.2,0c0.1,0,0.2,0,0.4,0c0.2,0,0.5,0,0.7,0c0.4,0,0.4-0.3,0.4-0.3c0-0.2-0.1-0.3-0.3-0.3h-0.1
						c-0.1,0-0.2,0-0.2-0.1c0-0.2,0.1-0.4,0.2-0.7l0.7-1.8h2.6l1,2.6l0,0l0,0.1c0,0-0.2,0.1-0.2,0.3c0,0.3,0.3,0.3,0.5,0.3l0.1,0
						c0.8,0,1.7,0,1.9,0c0.4,0,0.5-0.2,0.5-0.3c0-0.2-0.2-0.3-0.4-0.3c-0.1,0-0.2,0-0.4-0.1c-0.2-0.1-0.5-0.1-0.9-1.2
						c-0.4-0.9-1.1-2.7-1.7-4.2c-0.6-1.4-1.1-2.7-1.2-2.9l-0.1-0.1C95.3,30.7,95.2,30.5,95,30.5L95,30.5z M93.9,35.8l0.9-2.7l1,2.7
						H93.9L93.9,35.8z"/>
				</g>
				<g>
					<path class="st2" d="M104.9,39.9c-0.5,0-1,0-1.3,0l-0.2,0l-0.2,0c-0.3,0-0.8,0-1,0c-0.2,0-0.3-0.1-0.3-0.2
						c0-0.1,0.1-0.2,0.2-0.2c0.1,0,0.2,0,0.3-0.1c0.2,0,0.2-0.2,0.3-0.5c0.1-0.5,0.1-1.4,0.1-2.5v-4.8l-1.6,0c-0.7,0-1,0.1-1.1,0.3
						c-0.1,0.1-0.1,0.2-0.1,0.3c-0.1,0.2-0.1,0.2-0.3,0.2c-0.1,0-0.2-0.1-0.2-0.2c0-0.1,0.1-0.4,0.2-0.9c0-0.2,0.1-0.3,0.1-0.4
						c0.1-0.2,0.1-0.3,0.2-0.3c0.1,0,0.1,0,0.2,0c0.1,0,0.2,0.1,0.4,0.1c0.3,0,0.8,0.1,0.9,0.1h4.5c0.4,0,0.7,0,0.8-0.1l0.2,0
						c0.1,0,0.1,0,0.2,0c0.2,0,0.2,0.2,0.2,0.2c0,0.2,0,0.6,0,0.9c0,0.2,0,0.3,0,0.4c0,0.2-0.1,0.3-0.2,0.3c-0.2,0-0.2-0.2-0.2-0.3
						l0-0.1c0-0.3-0.2-0.5-1.3-0.6l-1.4,0v4.8c0,1.1,0,2,0.1,2.5c0,0.3,0.1,0.5,0.4,0.5c0.2,0,0.4,0.1,0.5,0.1
						c0.1,0,0.2,0.1,0.2,0.2C105.2,39.7,105.2,39.9,104.9,39.9z"/>
					<path class="st6" d="M99.9,30.7c0.1,0,0.2,0.1,0.5,0.1c0.3,0,0.8,0.1,0.9,0.1h4.5c0.4,0,0.7,0,0.9-0.1c0.2,0,0.3-0.1,0.3-0.1
						c0.1,0,0.1,0.1,0.1,0.1c0,0.4,0,1.2,0,1.3c0,0.1-0.1,0.2-0.1,0.2s-0.1,0-0.1-0.2l0-0.1c0-0.4-0.3-0.6-1.4-0.6l-1.5,0v4.9
						c0,1.1,0,2.1,0.1,2.5c0,0.3,0.1,0.6,0.5,0.6c0.2,0,0.4,0.1,0.5,0.1c0.1,0,0.1,0.1,0.1,0.1c0,0.1-0.1,0.1-0.2,0.1
						c-0.6,0-1.4,0-1.5,0c-0.1,0-0.9,0-1.2,0c-0.1,0-0.2,0-0.2-0.1c0,0,0-0.1,0.1-0.1c0.1,0,0.2,0,0.4-0.1c0.2-0.1,0.3-0.3,0.4-0.6
						c0.1-0.5,0.1-1.4,0.1-2.5v-4.9l-1.7,0c-0.7,0-1,0.1-1.2,0.4c-0.1,0.2-0.1,0.3-0.2,0.4c0,0.1-0.1,0.1-0.1,0.1c0,0-0.1,0-0.1-0.1
						c0-0.1,0.2-1.2,0.3-1.3C99.8,30.9,99.9,30.7,99.9,30.7 M99.9,30.5c-0.2,0-0.3,0.2-0.3,0.3l0,0l0,0c0,0,0,0.2-0.1,0.4
						c-0.1,0.6-0.2,0.9-0.2,0.9c0,0.2,0.2,0.3,0.3,0.3c0.1,0,0.3,0,0.3-0.3c0,0,0,0,0,0c0,0,0,0,0-0.1c0-0.1,0.1-0.1,0.1-0.3
						c0.1-0.2,0.3-0.3,1-0.3l1.5,0v4.7c0,1.1,0,2-0.1,2.5c0,0.4-0.1,0.4-0.2,0.4c-0.1,0-0.2,0-0.3,0c-0.2,0-0.3,0.1-0.3,0.3
						c0,0.1,0,0.3,0.4,0.3c0.3,0,0.8,0,1,0c0.1,0,0.2,0,0.2,0c0,0,0.1,0,0.2,0c0.3,0,0.8,0,1.3,0c0.4,0,0.4-0.3,0.4-0.3
						c0-0.2-0.1-0.3-0.3-0.3c-0.1,0-0.3,0-0.5-0.1c-0.2,0-0.2-0.1-0.3-0.4c-0.1-0.5-0.1-1.4-0.1-2.5v-4.7l1.3,0
						c1.2,0,1.2,0.3,1.2,0.5l0,0.1c0,0.1,0,0.4,0.3,0.4c0.2,0,0.3-0.1,0.3-0.4c0-0.1,0-0.2,0-0.4c0-0.3,0-0.7,0-0.9
						c0-0.3-0.2-0.4-0.3-0.4c0,0-0.1,0-0.2,0c0,0-0.1,0-0.2,0c-0.2,0-0.5,0.1-0.8,0.1h-4.5c-0.1,0-0.6,0-0.9-0.1
						c-0.2,0-0.3-0.1-0.4-0.1C100,30.5,100,30.5,99.9,30.5L99.9,30.5z"/>
				</g>
				<g>
					<path class="st2" d="M113.5,39.9c-0.9,0-1.5,0-2.1,0l-0.4,0c-0.3,0-0.6,0-0.9,0l0,0c-0.1,0-0.3,0-0.5,0c-0.3,0-0.5,0-0.7,0
						c-0.3,0-0.3-0.1-0.3-0.2c0-0.1,0.1-0.2,0.2-0.2c0.1,0,0.2,0,0.3-0.1c0.1,0,0.2-0.1,0.2-0.5c0.1-0.5,0.1-1.4,0.1-2.6v-2.1
						c0-1.8,0-2.1,0-2.5c0-0.4-0.1-0.5-0.4-0.5c-0.1,0-0.3,0-0.4,0c-0.1,0-0.2-0.1-0.2-0.2c0-0.1,0.1-0.2,0.3-0.2c0.4,0,0.9,0,1.2,0
						l0.2,0l0.2,0c0.3,0,0.8,0,1.1,0c0.3,0,0.3,0.1,0.3,0.2c0,0.1-0.1,0.2-0.2,0.2c-0.1,0-0.2,0-0.4,0c-0.3,0.1-0.3,0.2-0.3,0.6
						c0,0.4,0,0.7,0,2.5v2.1c0,1.5,0,2.4,0.2,2.6c0.2,0.2,0.6,0.2,1.5,0.2c0.6,0,1.1,0,1.3-0.3c0.1-0.1,0.2-0.4,0.3-0.6
						c0-0.1,0.1-0.2,0.2-0.2c0.1,0,0.2,0,0.2,0.3c0,0.1-0.1,0.8-0.2,1.2C114.2,39.9,114.1,39.9,113.5,39.9z"/>
					<path class="st6" d="M111.4,30.9c0.1,0,0.2,0,0.2,0.1c0,0-0.1,0.1-0.1,0.1c-0.1,0-0.3,0-0.4,0c-0.4,0.1-0.4,0.2-0.4,0.7
						c0,0.4,0,0.7,0,2.5v2.1c0,1.7,0,2.4,0.2,2.6c0.2,0.2,0.6,0.3,1.6,0.3c0.6,0,1.1,0,1.4-0.4c0.1-0.2,0.2-0.4,0.3-0.7
						c0-0.1,0.1-0.2,0.1-0.2c0.1,0,0.1,0.1,0.1,0.2c0,0.1-0.1,0.8-0.2,1.2c-0.1,0.3-0.1,0.3-0.8,0.3c-0.9,0-1.5,0-2.1,0
						c-0.5,0-0.9,0-1.3,0c-0.1,0-0.3,0-0.5,0c-0.2,0-0.5,0-0.7,0c-0.1,0-0.2,0-0.2-0.1c0,0,0-0.1,0.1-0.1c0.1,0,0.3,0,0.4-0.1
						c0.2-0.1,0.3-0.3,0.3-0.6c0.1-0.5,0.1-1.4,0.1-2.5v-2.1c0-1.8,0-2.1,0-2.5c0-0.4-0.1-0.6-0.5-0.6c-0.1,0-0.3,0-0.4,0
						c0,0-0.1-0.1-0.1-0.1c0-0.1,0.1-0.1,0.2-0.1c0.5,0,1.3,0,1.4,0C110.2,30.9,111,30.9,111.4,30.9 M111.4,30.7c-0.3,0-0.8,0-1.1,0
						l-0.2,0l-0.2,0c-0.3,0-0.8,0-1.2,0c-0.4,0-0.4,0.2-0.4,0.3c0,0.2,0.2,0.3,0.3,0.3c0.1,0,0.3,0,0.4,0c0.2,0,0.3,0.1,0.3,0.4
						c0,0.4,0,0.7,0,2.5v2.1c0,1.1,0,2-0.1,2.5c-0.1,0.4-0.1,0.4-0.1,0.4c-0.1,0-0.2,0-0.3,0c-0.2,0-0.3,0.1-0.3,0.3
						c0,0.1,0,0.3,0.4,0.3c0.2,0,0.5,0,0.7,0c0.2,0,0.4,0,0.5,0c0.3,0,0.5,0,0.9,0l0.4,0c0.6,0,1.2,0,2.1,0c0.7,0,0.8,0,1-0.5
						c0.1-0.4,0.2-1.1,0.2-1.2c0-0.4-0.2-0.4-0.3-0.4c-0.2,0-0.3,0.1-0.3,0.3c0,0.2-0.1,0.4-0.2,0.6c-0.2,0.3-0.7,0.3-1.3,0.3
						c-0.3,0-1.2,0-1.4-0.2c-0.2-0.2-0.2-1.4-0.2-2.5v-2.1c0-1.8,0-2.1,0-2.5c0-0.4,0.1-0.4,0.3-0.5c0.1,0,0.3,0,0.4,0
						c0.1,0,0.3-0.1,0.3-0.3C111.8,30.9,111.8,30.7,111.4,30.7L111.4,30.7z"/>
				</g>
				<g>
					<path class="st2" d="M118.8,39.9c-0.5,0-1.1,0-1.4,0l-0.1,0l-0.2,0c-0.3,0-0.7,0-1,0c-0.3,0-0.3-0.1-0.3-0.2
						c0-0.1,0.1-0.2,0.2-0.2c0.1,0,0.2,0,0.3-0.1c0.1,0,0.2-0.2,0.2-0.5c0.1-0.5,0.1-1.6,0.1-2.5v-2.1c0-1.8,0-2.1,0-2.5
						c0-0.4-0.1-0.5-0.3-0.5c-0.1,0-0.3,0-0.3,0c-0.1,0-0.2-0.1-0.2-0.2c0-0.1,0.1-0.2,0.3-0.2c0.3,0,0.7,0,1,0l0.2,0l0.2,0
						c0.3,0,0.7,0,1,0c0.2,0,0.3,0.1,0.3,0.2c0,0.1-0.1,0.2-0.2,0.2c-0.1,0-0.2,0-0.3,0c-0.2,0.1-0.3,0.1-0.3,0.5c0,0.4,0,0.7,0,2.5
						v2.1c0,1.1,0,2,0.1,2.5c0,0.4,0.1,0.5,0.3,0.5c0.2,0,0.4,0.1,0.5,0.1c0.1,0,0.2,0.1,0.2,0.2C119.1,39.7,119.1,39.9,118.8,39.9z
						"/>
					<path class="st6" d="M118.5,30.9c0.1,0,0.2,0,0.2,0.1c0,0-0.1,0.1-0.1,0.1c-0.1,0-0.2,0-0.3,0c-0.3,0.1-0.4,0.2-0.4,0.6
						c0,0.4,0,0.7,0,2.5v2.1c0,1.1,0,2.1,0.1,2.5c0,0.3,0.1,0.6,0.4,0.6c0.2,0,0.4,0.1,0.5,0.1c0.1,0,0.1,0.1,0.1,0.1
						c0,0.1-0.1,0.1-0.2,0.1c-0.7,0-1.4,0-1.5,0c-0.1,0-0.8,0-1.2,0c-0.1,0-0.2,0-0.2-0.1c0,0,0-0.1,0.1-0.1c0.1,0,0.3,0,0.4-0.1
						c0.2-0.1,0.3-0.3,0.3-0.6c0.1-0.5,0.1-1.4,0.1-2.5v-2.1c0-1.8,0-2.1,0-2.5c0-0.4-0.1-0.6-0.4-0.6c-0.1,0-0.3,0-0.4,0
						c-0.1,0-0.1-0.1-0.1-0.1c0-0.1,0.1-0.1,0.2-0.1c0.4,0,1.1,0,1.2,0C117.4,30.9,118.2,30.9,118.5,30.9 M118.5,30.7
						c-0.3,0-0.7,0-1,0l-0.2,0c0,0-0.1,0-0.2,0c-0.3,0-0.7,0-1,0c-0.4,0-0.4,0.2-0.4,0.3c0,0.2,0.1,0.3,0.3,0.3c0.1,0,0.2,0,0.3,0
						c0.1,0,0.2,0,0.2,0.4c0,0.4,0,0.7,0,2.5v2.1c0,0.9,0,2-0.1,2.5c0,0.4-0.1,0.4-0.1,0.4c-0.1,0-0.2,0-0.3,0
						c-0.2,0-0.3,0.1-0.3,0.3c0,0.1,0,0.3,0.4,0.3c0.3,0,0.7,0,1,0c0.1,0,0.2,0,0.2,0l0.1,0c0.3,0,0.8,0,1.4,0
						c0.4,0,0.4-0.3,0.4-0.3c0-0.2-0.1-0.3-0.3-0.3c-0.1,0-0.3,0-0.5-0.1c-0.2,0-0.2-0.1-0.3-0.4c-0.1-0.5-0.1-1.4-0.1-2.5v-2.1
						c0-1.8,0-2.1,0-2.5c0-0.4,0.1-0.4,0.2-0.4c0.1,0,0.2,0,0.2,0c0,0,0,0,0,0c0.2,0,0.3-0.2,0.3-0.3
						C118.9,30.9,118.9,30.7,118.5,30.7L118.5,30.7z"/>
				</g>
				<g>
					<path class="st2" d="M129,39.9c-0.3,0-0.6,0-0.8,0c-0.6-0.1-0.9-0.3-1.4-0.7c-0.6-0.5-2.8-2.9-3.6-3.7v0.9c0,1.1,0,2,0.1,2.5
						c0,0.3,0.1,0.5,0.4,0.5c0.2,0,0.3,0.1,0.4,0.1c0.1,0,0.2,0.1,0.2,0.2c0,0,0,0.2-0.3,0.2c-0.4,0-0.9,0-1.2,0l-0.2,0
						c0,0-0.1,0-0.3,0c-0.3,0-0.7,0-0.9,0c-0.3,0-0.3-0.1-0.3-0.2c0-0.1,0.1-0.2,0.2-0.2c0.1,0,0.2,0,0.3-0.1c0.1,0,0.2-0.2,0.2-0.5
						c0.1-0.5,0.1-1.4,0.1-2.6v-2.1c0-1.8,0-2.1,0-2.5c0-0.4-0.1-0.5-0.4-0.5c-0.1,0-0.3,0-0.4,0c-0.1,0-0.2-0.1-0.2-0.2
						c0-0.1,0.1-0.2,0.3-0.2c0.4,0,0.9,0,1.2,0l0.2,0l0.3,0c0.3,0,0.6,0,0.9,0c0.2,0,0.3,0.1,0.3,0.2c0,0.1-0.1,0.2-0.2,0.2
						c-0.1,0-0.1,0-0.3,0c-0.2,0-0.3,0.1-0.3,0.5c0,0.4,0,0.7,0,2.5v0.5c0.2-0.3,0.9-0.9,1.4-1.5c0.5-0.5,1-1,1.2-1.2
						c0.3-0.3,0.6-0.6,0.6-0.8c0-0.1,0-0.1-0.1-0.1c-0.1,0-0.2-0.1-0.2-0.2c0-0.1,0.1-0.2,0.2-0.2c0.1,0,0.3,0,0.4,0
						c0.2,0,0.3,0,0.5,0l0.2,0c0.3,0,0.7,0,0.9,0c0.2,0,0.3,0.1,0.3,0.2c0,0.1-0.1,0.2-0.2,0.2c-0.2,0-0.4,0.1-0.6,0.2
						c-0.4,0.2-0.6,0.4-1,0.8l-0.2,0.2c-0.3,0.3-2.1,2-2.5,2.5c0.5,0.5,2.8,2.8,3.2,3.2l0.2,0.2c0.8,0.7,0.9,0.8,1.4,1
						c0.3,0.1,0.6,0.2,0.7,0.2c0.1,0,0.3,0.1,0.3,0.2c0,0.2-0.3,0.2-0.4,0.2H129z"/>
					<path class="st6" d="M128.5,30.9c0.1,0,0.2,0,0.2,0.1c0,0.1,0,0.1-0.1,0.1c-0.2,0-0.4,0.1-0.7,0.2c-0.5,0.2-0.7,0.5-1.2,1
						c-0.3,0.3-2.3,2.3-2.6,2.6c0.3,0.3,2.8,2.9,3.3,3.3c1,0.9,1.1,1.1,1.7,1.3c0.3,0.1,0.6,0.2,0.7,0.2c0.1,0,0.1,0,0.1,0.1
						c0,0.1-0.1,0.1-0.3,0.1H129c-0.3,0-0.6,0-0.8,0c-0.6-0.1-0.9-0.3-1.4-0.7c-0.5-0.4-3-3.1-3.6-3.8h-0.1v1.1c0,1.1,0,2.1,0.1,2.5
						c0,0.3,0.1,0.6,0.5,0.6c0.2,0,0.4,0.1,0.5,0.1c0.1,0,0.1,0.1,0.1,0.1c0,0.1-0.1,0.1-0.2,0.1c-0.6,0-1.3,0-1.4,0
						c-0.1,0-0.8,0-1.2,0c-0.1,0-0.2,0-0.2-0.1c0,0,0-0.1,0.1-0.1c0.1,0,0.3,0,0.4-0.1c0.2-0.1,0.3-0.3,0.3-0.6
						c0.1-0.5,0.1-1.4,0.1-2.5v-2.1c0-1.8,0-2.1,0-2.5c0-0.4-0.1-0.6-0.5-0.6c-0.1,0-0.3,0-0.4,0c0,0-0.1-0.1-0.1-0.1
						c0-0.1,0.1-0.1,0.2-0.1c0.5,0,1.3,0,1.3,0c0.1,0,0.8,0,1.2,0c0.1,0,0.2,0,0.2,0.1c0,0,0,0.1-0.1,0.1c-0.1,0-0.1,0-0.3,0
						c-0.3,0.1-0.4,0.2-0.4,0.6c0,0.4,0,0.7,0,2.5V35h0.1c0.2-0.2,2.3-2.4,2.8-2.8c0.3-0.3,0.6-0.6,0.6-0.8c0-0.2-0.1-0.2-0.1-0.2
						c-0.1,0-0.1-0.1-0.1-0.1c0-0.1,0.1-0.1,0.1-0.1c0.2,0,0.6,0,0.9,0C127.4,30.9,128.2,30.9,128.5,30.9 M128.5,30.7
						c-0.2,0-0.6,0-0.9,0c-0.1,0-0.2,0-0.2,0c-0.1,0-0.3,0-0.5,0c-0.2,0-0.3,0-0.4,0c-0.2,0-0.4,0.2-0.4,0.3c0,0.1,0.1,0.3,0.3,0.3
						c0,0,0,0,0,0c0,0.1-0.3,0.4-0.5,0.6l-0.1,0.1c-0.2,0.2-0.7,0.7-1.2,1.2c-0.5,0.5-0.9,1-1.2,1.3v-0.2c0-1.8,0-2.1,0-2.5
						c0-0.4,0.1-0.4,0.3-0.5c0.1,0,0.2,0,0.3,0c0.2,0,0.3-0.2,0.3-0.3c0-0.1,0-0.3-0.4-0.3c-0.2,0-0.6,0-0.9,0c-0.1,0-0.3,0-0.3,0
						l-0.2,0c-0.3,0-0.8,0-1.2,0c-0.4,0-0.4,0.2-0.4,0.3c0,0.2,0.2,0.3,0.3,0.3c0.1,0,0.3,0,0.4,0c0.2,0,0.3,0.1,0.3,0.4
						c0,0.4,0,0.7,0,2.5v2.1c0,1.1,0,2-0.1,2.5c-0.1,0.4-0.1,0.4-0.1,0.4c-0.1,0-0.2,0-0.3,0c-0.2,0-0.3,0.1-0.3,0.3
						c0,0.1,0,0.3,0.4,0.3c0.2,0,0.6,0,0.9,0c0.1,0,0.2,0,0.3,0c0,0,0.1,0,0.2,0c0.3,0,0.8,0,1.2,0c0.4,0,0.4-0.3,0.4-0.3
						c0-0.2-0.1-0.3-0.3-0.3c0,0-0.2,0-0.4-0.1c-0.2,0-0.2-0.1-0.3-0.4c-0.1-0.5-0.1-1.4-0.1-2.5v-0.6c0.9,1,2.8,3.1,3.3,3.5l0.1,0
						c0.5,0.4,0.8,0.7,1.5,0.7c0.3,0,0.5,0,0.8,0h0.6c0.4,0,0.5-0.2,0.5-0.3c0-0.2-0.2-0.3-0.4-0.3c-0.1,0-0.4,0-0.6-0.2
						c-0.5-0.2-0.6-0.3-1.4-1l-0.3-0.2c-0.5-0.4-2.5-2.5-3.1-3.2c0.5-0.5,2.2-2.1,2.4-2.4l0.2-0.2c0.4-0.4,0.6-0.6,1-0.8
						c0.2-0.1,0.4-0.1,0.6-0.1c0.2,0,0.3-0.2,0.3-0.3C128.9,30.9,128.8,30.7,128.5,30.7L128.5,30.7z"/>
				</g>
				<g>
					<path class="st2" d="M139.5,40.1c-3.7,0-5.4-2.9-5.4-5.5c0-2.1,1.5-5.5,5.4-5.5c3.2,0,5.4,2.1,5.4,5.3
						C145,37.6,142.6,40.1,139.5,40.1z M139.4,29.7c-2.4,0-3.8,1.7-3.8,4.4c0,3,1.7,5.2,4.2,5.2c0.6,0,3.6-0.2,3.6-4.6
						C143.4,31.3,141.4,29.7,139.4,29.7z"/>
					<path class="st6" d="M139.5,29.1c3,0,5.3,2,5.3,5.2c0,3.1-2.1,5.6-5.4,5.6c-3.7,0-5.2-2.9-5.2-5.4
						C134.2,32.3,135.8,29.1,139.5,29.1 M139.8,39.4c1.2,0,3.7-0.7,3.7-4.7c0-3.3-2-5.1-4.1-5.1c-2.3,0-3.9,1.5-3.9,4.5
						C135.5,37.4,137.4,39.4,139.8,39.4 M139.5,28.9c-4,0-5.5,3.4-5.5,5.6c0,2.7,1.7,5.6,5.5,5.6c3.2,0,5.6-2.5,5.6-5.9
						C145.1,31.1,142.8,28.9,139.5,28.9L139.5,28.9z M139.8,39.2c-2.4,0-4.1-2.1-4.1-5.1c0-2.7,1.4-4.3,3.7-4.3
						c1.9,0,3.9,1.5,3.9,4.9C143.3,39,140.4,39.2,139.8,39.2L139.8,39.2z"/>
				</g>
				<g>
					<path class="st2" d="M154.8,39.9c-0.7,0-1-0.1-1.3-0.2c-0.5-0.3-1-0.9-1.7-1.8c-0.3-0.3-0.6-0.7-0.8-1.1
						c-0.2-0.3-0.4-0.5-0.5-0.6l-1.6-0.1l0,0.3c0,1.1,0,2,0.1,2.5c0,0.4,0.1,0.5,0.4,0.5c0.2,0,0.4,0.1,0.5,0.1
						c0.1,0,0.2,0.1,0.2,0.2c0,0,0,0.2-0.3,0.2c-0.5,0-1.1,0-1.3,0l-0.1,0c-0.3,0-0.9,0-1.2,0c-0.3,0-0.3-0.1-0.3-0.2
						c0-0.1,0.1-0.2,0.2-0.2c0.1,0,0.2,0,0.3-0.1c0.1,0,0.2-0.1,0.2-0.5c0.1-0.5,0.1-1.4,0.1-2.6v-2.1c0-1.8,0-2.1,0-2.5
						c0-0.4-0.1-0.5-0.4-0.5c-0.1,0-0.3,0-0.4,0c-0.1,0-0.2-0.1-0.2-0.2c0-0.1,0.1-0.2,0.3-0.2c0.4,0,0.9,0,1.2,0l0.2,0l0.4,0
						c0.4,0,0.8,0,1.1,0c0.8,0,1.6,0.1,2.3,0.5c0.1,0.1,0.9,0.7,0.9,1.7c0,1-0.4,1.8-1.4,2.7l0.1,0.2c0.9,1.1,1.7,2.1,2.3,2.8
						c0.6,0.6,1,0.7,1.3,0.8c0.2,0,0.3,0,0.4,0c0.1,0,0.2,0.1,0.2,0.2c0,0.2-0.2,0.2-0.4,0.2H154.8z M149.8,31.4
						c-0.4,0-0.7,0-0.8,0.1l0,3.8c0.2,0.1,0.7,0.2,1.3,0.2c0.3,0,0.6,0,0.8-0.2c0.4-0.3,0.7-0.9,0.7-1.7
						C151.7,32.2,151,31.4,149.8,31.4z"/>
					<path class="st6" d="M149.9,30.9c0.8,0,1.6,0.1,2.2,0.5c0.3,0.2,0.8,0.8,0.8,1.6c0,0.9-0.4,1.7-1.5,2.7c1,1.2,1.8,2.3,2.5,3
						c0.6,0.7,1,0.8,1.3,0.8c0.2,0,0.4,0,0.4,0c0.1,0,0.1,0.1,0.1,0.1c0,0.1-0.1,0.1-0.3,0.1h-0.7c-0.7,0-1-0.1-1.3-0.2
						c-0.5-0.3-0.9-0.8-1.6-1.7c-0.5-0.6-1-1.4-1.3-1.7c-0.1-0.1-0.1-0.1-0.2-0.1l-1.5,0c-0.1,0-0.1,0-0.1,0.1v0.3
						c0,1.1,0,2,0.1,2.5c0,0.3,0.1,0.6,0.5,0.6c0.2,0,0.4,0.1,0.5,0.1c0.1,0,0.1,0.1,0.1,0.1c0,0.1-0.1,0.1-0.2,0.1
						c-0.6,0-1.4,0-1.5,0c0,0-0.8,0-1.2,0c-0.1,0-0.2,0-0.2-0.1c0,0,0-0.1,0.1-0.1c0.1,0,0.3,0,0.4-0.1c0.2-0.1,0.3-0.3,0.3-0.6
						c0.1-0.5,0.1-1.4,0.1-2.5v-2.1c0-1.8,0-2.1,0-2.5c0-0.4-0.1-0.6-0.5-0.6c-0.1,0-0.3,0-0.4,0c0,0-0.1-0.1-0.1-0.1
						c0-0.1,0.1-0.1,0.2-0.1c0.5,0,1.3,0,1.4,0C148.5,30.9,149.5,30.9,149.9,30.9 M150.2,35.6c0.3,0,0.6,0,0.9-0.2
						c0.4-0.3,0.7-0.9,0.7-1.8c0-1.5-0.8-2.3-2.1-2.3c-0.4,0-0.7,0-0.9,0.1c-0.1,0-0.1,0.1-0.1,0.1v3.8c0,0.1,0,0.1,0.1,0.2
						C149.1,35.5,149.7,35.6,150.2,35.6 M149.9,30.7c-0.2,0-0.7,0-1.1,0c-0.2,0-0.4,0-0.4,0l-0.2,0c-0.3,0-0.8,0-1.2,0
						c-0.4,0-0.4,0.2-0.4,0.3c0,0.2,0.2,0.3,0.3,0.3c0.1,0,0.3,0,0.4,0c0.2,0,0.3,0.1,0.3,0.4c0,0.4,0,0.7,0,2.5v2.1
						c0,1.1,0,2-0.1,2.5c-0.1,0.4-0.1,0.4-0.1,0.4c-0.1,0-0.2,0-0.3,0c-0.2,0-0.3,0.1-0.3,0.3c0,0.1,0,0.3,0.4,0.3
						c0.3,0,0.9,0,1.1,0l0.1,0l0.1,0c0.3,0,0.8,0,1.3,0c0.4,0,0.4-0.3,0.4-0.3c0-0.2-0.1-0.3-0.3-0.3c-0.1,0-0.3,0-0.5-0.1
						c-0.2,0-0.3-0.1-0.3-0.4c-0.1-0.5-0.1-1.4-0.1-2.5v-0.2l1.4,0c0.1,0.1,0.3,0.4,0.5,0.6c0.2,0.3,0.5,0.7,0.8,1.1
						c0.7,0.9,1.1,1.5,1.7,1.8c0.3,0.2,0.7,0.3,1.4,0.3h0.7c0.1,0,0.5,0,0.5-0.3c0-0.2-0.1-0.3-0.3-0.3c-0.1,0-0.2,0-0.4,0
						c-0.2,0-0.6-0.1-1.2-0.8c-0.6-0.7-1.4-1.7-2.3-2.8l-0.1-0.1c1-0.9,1.4-1.7,1.4-2.7c0-1-0.8-1.7-0.9-1.8
						C151.5,30.7,150.6,30.7,149.9,30.7L149.9,30.7z M149,31.6c0.1,0,0.4,0,0.7,0c1.2,0,1.8,0.8,1.8,2.1c0,0.7-0.2,1.3-0.6,1.6
						c-0.2,0.2-0.5,0.2-0.8,0.2c-0.5,0-1-0.1-1.2-0.1L149,31.6L149,31.6z"/>
				</g>
				<g>
					<path class="st2" d="M160.4,39.9c-0.5,0-1,0-1.3,0l-0.2,0l-0.2,0c-0.3,0-0.8,0-1,0c-0.2,0-0.3-0.1-0.3-0.2
						c0-0.1,0.1-0.2,0.2-0.2c0.1,0,0.2,0,0.3-0.1c0.2,0,0.2-0.2,0.3-0.5c0.1-0.5,0.1-1.4,0.1-2.5v-4.8l-1.6,0c-0.7,0-1,0.1-1.1,0.3
						c-0.1,0.1-0.1,0.2-0.1,0.3c-0.1,0.2-0.1,0.2-0.3,0.2c-0.1,0-0.2-0.1-0.2-0.2c0-0.1,0.1-0.4,0.2-0.9c0-0.2,0.1-0.3,0.1-0.4
						c0.1-0.2,0.1-0.3,0.2-0.3c0.1,0,0.1,0,0.2,0c0.1,0,0.2,0.1,0.4,0.1c0.3,0,0.8,0.1,0.9,0.1h4.5c0.4,0,0.7,0,0.8-0.1l0.2,0
						c0.1,0,0.1,0,0.2,0c0.2,0,0.2,0.2,0.2,0.2c0,0.2,0,0.6,0,0.9c0,0.2,0,0.3,0,0.4c0,0.2-0.1,0.3-0.2,0.3c-0.2,0-0.2-0.2-0.2-0.3
						l0-0.1c0-0.3-0.2-0.5-1.3-0.6l-1.4,0v4.8c0,1.1,0,2,0.1,2.5c0,0.3,0.1,0.5,0.4,0.5c0.2,0,0.4,0.1,0.5,0.1
						c0.1,0,0.2,0.1,0.2,0.2C160.7,39.7,160.7,39.9,160.4,39.9z"/>
					<path class="st6" d="M155.5,30.7c0.1,0,0.2,0.1,0.5,0.1c0.3,0,0.8,0.1,0.9,0.1h4.5c0.4,0,0.7,0,0.9-0.1c0.2,0,0.3-0.1,0.3-0.1
						c0.1,0,0.1,0.1,0.1,0.1c0,0.4,0,1.2,0,1.3c0,0.1-0.1,0.2-0.1,0.2s-0.1,0-0.1-0.2l0-0.1c0-0.4-0.3-0.6-1.4-0.6l-1.5,0v4.9
						c0,1.1,0,2.1,0.1,2.5c0,0.3,0.1,0.6,0.5,0.6c0.2,0,0.4,0.1,0.5,0.1c0.1,0,0.1,0.1,0.1,0.1c0,0.1-0.1,0.1-0.2,0.1
						c-0.6,0-1.4,0-1.5,0c-0.1,0-0.9,0-1.2,0c-0.1,0-0.2,0-0.2-0.1c0,0,0-0.1,0.1-0.1c0.1,0,0.2,0,0.4-0.1c0.2-0.1,0.3-0.3,0.4-0.6
						c0.1-0.5,0.1-1.4,0.1-2.5v-4.9l-1.7,0c-0.7,0-1,0.1-1.2,0.4c-0.1,0.2-0.1,0.3-0.2,0.4c0,0.1-0.1,0.1-0.1,0.1c0,0-0.1,0-0.1-0.1
						c0-0.1,0.2-1.2,0.3-1.3C155.4,30.9,155.4,30.7,155.5,30.7 M155.5,30.5c-0.2,0-0.3,0.2-0.3,0.3l0,0l0,0c0,0,0,0.2-0.1,0.4
						c-0.1,0.6-0.2,0.9-0.2,0.9c0,0.2,0.2,0.3,0.3,0.3c0.1,0,0.3,0,0.3-0.3c0,0,0,0,0,0c0,0,0,0,0-0.1c0-0.1,0.1-0.1,0.1-0.3
						c0.1-0.2,0.3-0.3,1-0.3l1.5,0v4.7c0,1.1,0,2-0.1,2.5c0,0.4-0.1,0.4-0.2,0.4c-0.1,0-0.2,0-0.3,0c-0.2,0-0.3,0.1-0.3,0.3
						c0,0.1,0,0.3,0.4,0.3c0.3,0,0.8,0,1,0c0.1,0,0.2,0,0.2,0c0,0,0.1,0,0.2,0c0.3,0,0.8,0,1.3,0c0.4,0,0.4-0.3,0.4-0.3
						c0-0.2-0.1-0.3-0.3-0.3c-0.1,0-0.3,0-0.5-0.1c-0.2,0-0.2-0.1-0.3-0.4c-0.1-0.5-0.1-1.4-0.1-2.5v-4.7l1.3,0
						c1.2,0,1.2,0.3,1.2,0.5l0,0.1c0,0.1,0,0.4,0.3,0.4c0.2,0,0.3-0.1,0.3-0.4c0-0.1,0-0.2,0-0.4c0-0.3,0-0.7,0-0.9
						c0-0.3-0.2-0.4-0.3-0.4c0,0-0.1,0-0.2,0c0,0-0.1,0-0.2,0c-0.2,0-0.5,0.1-0.8,0.1h-4.5c-0.1,0-0.6,0-0.9-0.1
						c-0.2,0-0.3-0.1-0.4-0.1C155.6,30.5,155.5,30.5,155.5,30.5L155.5,30.5z"/>
				</g>
				<g>
					<path class="st2" d="M171.7,39.9c-0.2,0-1.1,0-1.9,0c-0.3,0-0.5,0-0.5-0.2v-0.1l0.2-0.2c0,0,0-0.1,0-0.1l-1.1-2.7l-2.8,0
						l-0.7,1.9c-0.1,0.3-0.2,0.6-0.2,0.7c0,0.2,0.2,0.2,0.3,0.2h0.1c0.2,0,0.2,0.1,0.2,0.2c0,0.1,0,0.2-0.3,0.2c-0.2,0-0.5,0-0.7,0
						c-0.2,0-0.3,0-0.4,0c0,0-0.1,0-0.3,0c-0.2,0-0.6,0-1,0c-0.2,0-0.3-0.1-0.3-0.2c0-0.1,0.1-0.2,0.2-0.2c0.1,0,0.2,0,0.3,0
						c0.5-0.1,0.7-0.4,0.9-1l2.8-7.3c0.1-0.4,0.2-0.5,0.4-0.5c0.2,0,0.2,0.2,0.3,0.3l0.1,0.1c0.1,0.2,0.6,1.5,1.2,2.9
						c0.6,1.5,1.3,3.3,1.7,4.2c0.4,1.1,0.8,1.2,0.9,1.2c0.2,0.1,0.4,0.1,0.4,0.1c0.2,0,0.3,0.1,0.3,0.2
						C172.1,39.7,172,39.9,171.7,39.9z M165.9,36l2.3-0.1l-1.2-3.1L165.9,36z"/>
					<path class="st6" d="M167.2,30.7c0.1,0,0.2,0.2,0.3,0.4c0.2,0.5,2.1,5.3,2.9,7.1c0.4,1,0.8,1.2,1,1.3c0.2,0.1,0.4,0.1,0.5,0.1
						c0.1,0,0.1,0,0.1,0.1s-0.1,0.1-0.3,0.1c-0.2,0-1.1,0-1.9,0c-0.2,0-0.4,0-0.4-0.1c0-0.1,0-0.1,0.1-0.1c0.1,0,0.2-0.1,0.1-0.3
						l-1.1-2.7c0-0.1,0-0.1-0.1-0.1h-2.7c-0.1,0-0.1,0-0.1,0.1l-0.7,1.9c-0.1,0.3-0.2,0.6-0.2,0.8c0,0.2,0.2,0.3,0.4,0.3h0.1
						c0.1,0,0.1,0,0.1,0.1c0,0.1-0.1,0.1-0.2,0.1c-0.3,0-0.9,0-1.1,0c-0.1,0-0.7,0-1.2,0c-0.1,0-0.2,0-0.2-0.1
						c0-0.1,0.1-0.1,0.1-0.1c0.1,0,0.3,0,0.4,0c0.5-0.1,0.8-0.5,1-1.1l2.8-7.3C167.1,30.7,167.1,30.7,167.2,30.7 M165.8,36h2.4
						c0.1,0,0.1,0,0-0.1l-1.2-3.2c0-0.1-0.1-0.1-0.1-0.1c0,0-0.1,0-0.1,0.1L165.8,36C165.8,36,165.8,36,165.8,36 M167.2,30.5
						c-0.3,0-0.4,0.2-0.5,0.6l-2.8,7.3c-0.2,0.6-0.4,0.9-0.8,0.9c-0.1,0-0.3,0-0.3,0c-0.2,0-0.3,0.1-0.3,0.3c0,0.1,0,0.3,0.4,0.3
						c0.3,0,0.7,0,1,0c0.1,0,0.2,0,0.2,0c0.1,0,0.2,0,0.4,0c0.2,0,0.5,0,0.7,0c0.4,0,0.4-0.3,0.4-0.3c0-0.2-0.1-0.3-0.3-0.3h-0.1
						c-0.1,0-0.2,0-0.2-0.1c0-0.2,0.1-0.4,0.2-0.7l0.7-1.8h2.6l1,2.6l0,0l0,0.1c0,0-0.2,0.1-0.2,0.3c0,0.3,0.3,0.3,0.5,0.3l0.1,0
						c0.8,0,1.7,0,1.9,0c0.4,0,0.5-0.2,0.5-0.3c0-0.2-0.2-0.3-0.4-0.3c-0.1,0-0.2,0-0.4-0.1c-0.2-0.1-0.5-0.1-0.9-1.2
						c-0.4-0.9-1.1-2.7-1.7-4.2c-0.6-1.4-1.1-2.7-1.2-2.9l-0.1-0.1C167.5,30.7,167.4,30.5,167.2,30.5L167.2,30.5z M166.1,35.8
						l0.9-2.7l1,2.7H166.1L166.1,35.8z"/>
				</g>
				<g>
					<path class="st2" d="M180.5,39.9c-0.3,0-0.6,0-0.8,0c-0.6-0.1-1-0.3-1.4-0.7c-0.6-0.5-2.8-2.9-3.5-3.7v0.9c0,1.1,0,2,0.1,2.5
						c0,0.3,0.1,0.5,0.4,0.5c0.2,0,0.3,0.1,0.4,0.1c0.1,0,0.2,0.1,0.2,0.2c0,0,0,0.2-0.3,0.2c-0.4,0-0.9,0-1.2,0l-0.2,0
						c0,0-0.1,0-0.3,0c-0.3,0-0.7,0-0.9,0c-0.3,0-0.3-0.1-0.3-0.2c0-0.1,0.1-0.2,0.2-0.2c0.1,0,0.2,0,0.3-0.1c0.1,0,0.2-0.1,0.2-0.5
						c0.1-0.5,0.1-1.4,0.1-2.6v-2.1c0-1.8,0-2.1,0-2.5c0-0.4-0.1-0.5-0.4-0.5c-0.1,0-0.3,0-0.4,0c-0.1,0-0.2-0.1-0.2-0.2
						c0-0.1,0.1-0.2,0.3-0.2c0.4,0,0.9,0,1.2,0l0.2,0l0.3,0c0.3,0,0.6,0,0.9,0c0.2,0,0.3,0.1,0.3,0.2c0,0.1-0.1,0.2-0.2,0.2
						c-0.1,0-0.1,0-0.3,0c-0.2,0-0.3,0.1-0.3,0.5c0,0.4,0,0.7,0,2.5v0.5c0.2-0.3,0.9-0.9,1.4-1.5c0.5-0.5,1-1,1.2-1.2
						c0.3-0.3,0.6-0.6,0.6-0.8c0-0.1,0-0.1-0.1-0.1c-0.1,0-0.2-0.1-0.2-0.2c0-0.1,0.1-0.2,0.2-0.2c0.1,0,0.3,0,0.4,0
						c0.2,0,0.3,0,0.5,0l0.2,0c0.3,0,0.7,0,0.9,0c0.2,0,0.3,0.1,0.3,0.2c0,0.1-0.1,0.2-0.2,0.2c-0.2,0-0.4,0.1-0.6,0.2
						c-0.4,0.2-0.6,0.4-1,0.8l-0.2,0.2c-0.3,0.3-2.1,2-2.5,2.5c0.5,0.5,2.7,2.8,3.2,3.2l0.3,0.2c0.8,0.7,0.9,0.8,1.4,1
						c0.3,0.1,0.6,0.2,0.7,0.2c0.1,0,0.3,0.1,0.3,0.2c0,0.2-0.3,0.2-0.4,0.2H180.5z"/>
					<path class="st6" d="M180,30.9c0.1,0,0.2,0,0.2,0.1c0,0.1,0,0.1-0.1,0.1c-0.2,0-0.4,0.1-0.7,0.2c-0.5,0.2-0.7,0.5-1.2,1
						c-0.3,0.3-2.3,2.3-2.6,2.6c0.3,0.3,2.8,2.9,3.3,3.3c1,0.9,1.1,1.1,1.7,1.3c0.3,0.1,0.6,0.2,0.7,0.2c0.1,0,0.1,0,0.1,0.1
						c0,0.1-0.1,0.1-0.3,0.1h-0.6c-0.3,0-0.6,0-0.8,0c-0.6-0.1-0.9-0.3-1.4-0.7c-0.5-0.4-3-3.1-3.6-3.8h-0.1v1.1
						c0,1.1,0,2.1,0.1,2.5c0,0.3,0.1,0.6,0.5,0.6c0.2,0,0.4,0.1,0.5,0.1c0.1,0,0.1,0.1,0.1,0.1c0,0.1-0.1,0.1-0.2,0.1
						c-0.6,0-1.3,0-1.4,0c-0.1,0-0.8,0-1.2,0c-0.1,0-0.2,0-0.2-0.1c0,0,0-0.1,0.1-0.1c0.1,0,0.3,0,0.4-0.1c0.2-0.1,0.3-0.3,0.3-0.6
						c0.1-0.5,0.1-1.4,0.1-2.5v-2.1c0-1.8,0-2.1,0-2.5c0-0.4-0.1-0.6-0.5-0.6c-0.1,0-0.3,0-0.4,0c0,0-0.1-0.1-0.1-0.1
						c0-0.1,0.1-0.1,0.2-0.1c0.5,0,1.3,0,1.3,0c0.1,0,0.8,0,1.2,0c0.1,0,0.2,0,0.2,0.1c0,0,0,0.1-0.1,0.1c-0.1,0-0.1,0-0.3,0
						c-0.3,0.1-0.4,0.2-0.4,0.6c0,0.4,0,0.7,0,2.5V35h0.1c0.2-0.2,2.3-2.4,2.8-2.8c0.3-0.3,0.6-0.6,0.6-0.8c0-0.2-0.1-0.2-0.1-0.2
						c-0.1,0-0.1-0.1-0.1-0.1c0-0.1,0.1-0.1,0.1-0.1c0.2,0,0.6,0,0.9,0C178.9,30.9,179.7,30.9,180,30.9 M180,30.7
						c-0.2,0-0.6,0-0.9,0c-0.1,0-0.2,0-0.2,0c-0.1,0-0.3,0-0.5,0c-0.2,0-0.3,0-0.4,0c-0.2,0-0.4,0.2-0.4,0.3c0,0.1,0.1,0.3,0.3,0.3
						c0,0,0,0,0,0c0,0.1-0.3,0.4-0.5,0.6l-0.1,0.1c-0.2,0.2-0.7,0.7-1.2,1.2c-0.5,0.5-0.9,1-1.2,1.3v-0.2c0-1.8,0-2.1,0-2.5
						c0-0.4,0.1-0.4,0.3-0.5c0.1,0,0.2,0,0.3,0c0.2,0,0.3-0.2,0.3-0.3c0-0.1,0-0.3-0.4-0.3c-0.2,0-0.6,0-0.9,0c-0.1,0-0.3,0-0.3,0
						l-0.2,0c-0.3,0-0.8,0-1.2,0c-0.4,0-0.4,0.2-0.4,0.3c0,0.2,0.2,0.3,0.3,0.3c0.1,0,0.3,0,0.4,0c0.2,0,0.3,0.1,0.3,0.4
						c0,0.4,0,0.7,0,2.5v2.1c0,1.1,0,2-0.1,2.5c-0.1,0.4-0.1,0.4-0.1,0.4c-0.1,0-0.2,0-0.3,0c-0.2,0-0.3,0.1-0.3,0.3
						c0,0.1,0,0.3,0.4,0.3c0.2,0,0.6,0,0.9,0c0.1,0,0.2,0,0.3,0c0,0,0.1,0,0.2,0c0.3,0,0.8,0,1.2,0c0.4,0,0.4-0.3,0.4-0.3
						c0-0.2-0.1-0.3-0.3-0.3c0,0-0.2,0-0.4-0.1c-0.2,0-0.2-0.1-0.3-0.4c-0.1-0.5-0.1-1.4-0.1-2.5v-0.6c0.9,1,2.8,3.1,3.3,3.5l0.1,0
						c0.5,0.4,0.8,0.7,1.5,0.7c0.3,0,0.5,0,0.8,0h0.6c0.4,0,0.5-0.2,0.5-0.3c0-0.2-0.2-0.3-0.4-0.3c-0.1,0-0.4,0-0.6-0.2
						c-0.5-0.2-0.6-0.3-1.4-1l-0.3-0.2c-0.5-0.4-2.5-2.5-3.1-3.2c0.5-0.5,2.2-2.1,2.4-2.4l0.2-0.2c0.4-0.4,0.6-0.6,1-0.8
						c0.2-0.1,0.4-0.1,0.6-0.1c0.2,0,0.3-0.2,0.3-0.3C180.3,30.9,180.3,30.7,180,30.7L180,30.7z"/>
				</g>
				<g>
					<path class="st2" d="M186.4,39.9c-0.9,0-1.5,0-2.1,0l-0.4,0c-0.3,0-0.6,0-0.9,0l0,0c-0.1,0-0.3,0-0.5,0c-0.3,0-0.5,0-0.7,0
						c-0.3,0-0.3-0.1-0.3-0.2c0-0.1,0.1-0.2,0.2-0.2c0.1,0,0.2,0,0.3-0.1c0.1,0,0.2-0.2,0.2-0.5c0.1-0.5,0.1-1.4,0.1-2.6v-2.1
						c0-1.8,0-2.1,0-2.5c0-0.4-0.1-0.5-0.4-0.5c-0.1,0-0.3,0-0.4,0c-0.1,0-0.2-0.1-0.2-0.2c0-0.1,0.1-0.2,0.3-0.2c0.4,0,0.9,0,1.2,0
						l0.2,0l0.2,0c0.3,0,0.8,0,1.1,0c0.3,0,0.3,0.1,0.3,0.2c0,0.1-0.1,0.2-0.2,0.2c-0.1,0-0.2,0-0.4,0c-0.3,0.1-0.3,0.2-0.3,0.6
						c0,0.4,0,0.7,0,2.5v2.1c0,1.5,0,2.4,0.2,2.6c0.2,0.2,0.6,0.2,1.5,0.2c0.6,0,1.1,0,1.3-0.3c0.1-0.1,0.2-0.4,0.3-0.6
						c0-0.1,0.1-0.2,0.2-0.2c0.1,0,0.2,0,0.2,0.3c0,0.1-0.1,0.8-0.2,1.2C187.2,39.9,187,39.9,186.4,39.9z"/>
					<path class="st6" d="M184.4,30.9c0.1,0,0.2,0,0.2,0.1c0,0-0.1,0.1-0.1,0.1c-0.1,0-0.3,0-0.4,0c-0.4,0.1-0.4,0.2-0.4,0.7
						c0,0.4,0,0.7,0,2.5v2.1c0,1.7,0,2.4,0.2,2.6c0.2,0.2,0.6,0.3,1.6,0.3c0.6,0,1.1,0,1.4-0.4c0.1-0.2,0.2-0.4,0.3-0.7
						c0-0.1,0.1-0.2,0.1-0.2c0.1,0,0.1,0.1,0.1,0.2c0,0.1-0.1,0.8-0.2,1.2c-0.1,0.3-0.1,0.3-0.8,0.3c-0.9,0-1.5,0-2.1,0
						c-0.5,0-0.9,0-1.3,0c-0.1,0-0.3,0-0.5,0c-0.2,0-0.5,0-0.7,0c-0.1,0-0.2,0-0.2-0.1c0,0,0-0.1,0.1-0.1c0.1,0,0.3,0,0.4-0.1
						c0.2-0.1,0.3-0.3,0.3-0.6c0.1-0.5,0.1-1.4,0.1-2.5v-2.1c0-1.8,0-2.1,0-2.5c0-0.4-0.1-0.6-0.5-0.6c-0.1,0-0.3,0-0.4,0
						c0,0-0.1-0.1-0.1-0.1c0-0.1,0.1-0.1,0.2-0.1c0.5,0,1.3,0,1.4,0C183.1,30.9,184,30.9,184.4,30.9 M184.4,30.7c-0.3,0-0.8,0-1.1,0
						l-0.2,0l-0.2,0c-0.3,0-0.8,0-1.2,0c-0.4,0-0.4,0.2-0.4,0.3c0,0.2,0.2,0.3,0.3,0.3c0.1,0,0.3,0,0.4,0c0.2,0,0.3,0.1,0.3,0.4
						c0,0.4,0,0.7,0,2.5v2.1c0,1.1,0,2-0.1,2.5c-0.1,0.4-0.1,0.4-0.1,0.4c-0.1,0-0.2,0-0.3,0c-0.2,0-0.3,0.1-0.3,0.3
						c0,0.1,0,0.3,0.4,0.3c0.2,0,0.5,0,0.7,0c0.2,0,0.4,0,0.5,0c0.3,0,0.5,0,0.9,0l0.4,0c0.6,0,1.2,0,2.1,0c0.7,0,0.8,0,1-0.5
						c0.1-0.4,0.2-1.1,0.2-1.2c0-0.4-0.2-0.4-0.3-0.4c-0.2,0-0.3,0.1-0.3,0.3c0,0.2-0.1,0.4-0.2,0.6c-0.2,0.3-0.7,0.3-1.3,0.3
						c-0.3,0-1.2,0-1.4-0.2c-0.2-0.2-0.2-1.4-0.2-2.5v-2.1c0-1.8,0-2.1,0-2.5c0-0.4,0.1-0.4,0.3-0.5c0.1,0,0.3,0,0.4,0
						c0.1,0,0.3-0.1,0.3-0.3C184.8,30.9,184.7,30.7,184.4,30.7L184.4,30.7z"/>
				</g>
				<g>
					<path class="st2" d="M191.8,39.9c-0.5,0-1.1,0-1.4,0l-0.1,0l-0.2,0c-0.3,0-0.7,0-1,0c-0.3,0-0.3-0.1-0.3-0.2
						c0-0.1,0.1-0.2,0.2-0.2c0.1,0,0.2,0,0.3-0.1c0.1,0,0.2-0.2,0.2-0.5c0.1-0.5,0.1-1.6,0.1-2.5v-2.1c0-1.8,0-2.1,0-2.5
						c0-0.4-0.1-0.5-0.3-0.5c-0.1,0-0.3,0-0.3,0c-0.1,0-0.2-0.1-0.2-0.2c0-0.1,0.1-0.2,0.3-0.2c0.3,0,0.7,0,1,0l0.2,0l0.2,0
						c0.3,0,0.7,0,1,0c0.2,0,0.3,0.1,0.3,0.2c0,0.1-0.1,0.2-0.2,0.2c-0.1,0-0.2,0-0.3,0c-0.2,0.1-0.3,0.1-0.3,0.5c0,0.4,0,0.7,0,2.5
						v2.1c0,1.1,0,2,0.1,2.5c0,0.4,0.1,0.5,0.3,0.5c0.2,0,0.4,0.1,0.5,0.1c0.1,0,0.2,0.1,0.2,0.2C192.1,39.7,192,39.9,191.8,39.9z"
						/>
					<path class="st6" d="M191.5,30.9c0.1,0,0.2,0,0.2,0.1c0,0-0.1,0.1-0.1,0.1c-0.1,0-0.2,0-0.3,0c-0.3,0.1-0.4,0.2-0.4,0.6
						c0,0.4,0,0.7,0,2.5v2.1c0,1.1,0,2.1,0.1,2.5c0,0.3,0.1,0.6,0.4,0.6c0.2,0,0.4,0.1,0.5,0.1c0.1,0,0.1,0.1,0.1,0.1
						c0,0.1-0.1,0.1-0.2,0.1c-0.7,0-1.4,0-1.5,0c-0.1,0-0.8,0-1.2,0c-0.1,0-0.2,0-0.2-0.1c0,0,0-0.1,0.1-0.1c0.1,0,0.3,0,0.4-0.1
						c0.2-0.1,0.3-0.3,0.3-0.6c0.1-0.5,0.1-1.4,0.1-2.5v-2.1c0-1.8,0-2.1,0-2.5c0-0.4-0.1-0.6-0.4-0.6c-0.1,0-0.3,0-0.4,0
						c-0.1,0-0.1-0.1-0.1-0.1c0-0.1,0.1-0.1,0.2-0.1c0.4,0,1.1,0,1.2,0C190.3,30.9,191.1,30.9,191.5,30.9 M191.5,30.7
						c-0.3,0-0.7,0-1,0l-0.2,0c0,0-0.1,0-0.2,0c-0.3,0-0.7,0-1,0c-0.4,0-0.4,0.2-0.4,0.3c0,0.2,0.1,0.3,0.3,0.3c0.1,0,0.2,0,0.3,0
						c0.1,0,0.2,0,0.2,0.4c0,0.4,0,0.7,0,2.5v2.1c0,0.9,0,2-0.1,2.5c0,0.4-0.1,0.4-0.1,0.4c-0.1,0-0.2,0-0.3,0
						c-0.2,0-0.3,0.1-0.3,0.3c0,0.1,0,0.3,0.4,0.3c0.3,0,0.7,0,1,0c0.1,0,0.2,0,0.2,0l0.1,0c0.3,0,0.8,0,1.4,0
						c0.4,0,0.4-0.3,0.4-0.3c0-0.2-0.1-0.3-0.3-0.3c-0.1,0-0.3,0-0.5-0.1c-0.2,0-0.2-0.1-0.3-0.4c-0.1-0.5-0.1-1.4-0.1-2.5v-2.1
						c0-1.8,0-2.1,0-2.5c0-0.4,0.1-0.4,0.2-0.4c0.1,0,0.2,0,0.2,0c0,0,0,0,0,0c0.2,0,0.3-0.2,0.3-0.3
						C191.9,30.9,191.8,30.7,191.5,30.7L191.5,30.7z"/>
				</g>
				<g>
					<path class="st2" d="M199,40c-1.7,0-3-0.4-4-1.3c-0.7-0.6-1.5-1.8-1.5-3.4c0-1.7,0.8-3.2,2-3.9c1.1-0.7,2.3-0.8,3.2-0.8
						c0.8,0,1.6,0.1,1.8,0.2c0.3,0.1,0.7,0.1,0.9,0.1c0.2,0,0.3,0.1,0.3,0.2c0,0,0,0.1,0,0.2c0,0.2-0.1,0.6-0.1,1.5
						c0,0.3-0.1,0.4-0.2,0.4c-0.2,0-0.2-0.2-0.2-0.3c0-0.1-0.1-0.5-0.3-0.7c-0.3-0.4-1.1-0.9-2.7-0.9c-0.7,0-1.5,0.1-2.4,0.7
						c-0.7,0.6-1.1,1.6-1.1,2.9c0,1.6,0.8,2.7,1.2,3.2c0.9,0.8,1.8,1.2,3,1.2c0.6,0,1-0.1,1.2-0.2c0.1-0.1,0.2-0.1,0.2-0.3v-2
						c0-1,0-1-0.4-1.1c-0.1,0-0.3,0-0.4,0c-0.1,0-0.2-0.1-0.2-0.2c0-0.2,0.2-0.2,0.3-0.2c0.4,0,0.9,0,1.2,0l0.2,0l0.2,0
						c0.3,0,0.7,0,1,0c0.1,0,0.3,0,0.3,0.2c0,0.1-0.1,0.2-0.2,0.2c0,0,0,0,0,0c-0.1,0-0.1,0-0.3,0c-0.2,0-0.3,0.1-0.4,0.5
						c0,0.4,0,0.7,0,1.2v1.3c0,0.5,0,0.6-0.2,0.7C200.8,39.9,199.8,40,199,40z M198.1,30c-0.5,0-1-0.2-1.3-0.4
						c-0.2-0.2-0.5-0.4-0.5-0.6c0-0.1,0.1-0.2,0.1-0.2l0.4-0.3c0.1-0.1,0.1-0.1,0.2-0.1c0.1,0,0.2,0.1,0.2,0.2c0,0,0,0.1,0.1,0.1
						c0.4,0.6,1,0.6,1.2,0.6c0.4,0,0.8-0.1,1.1-0.4c0.2-0.1,0.3-0.2,0.4-0.3c0.1-0.1,0.2-0.1,0.2-0.1c0.1,0,0.2,0.1,0.2,0.2
						c0,0.2-0.6,0.8-0.9,1C199.1,29.8,198.7,30,198.1,30z"/>
					<path class="st6" d="M197,28.4c0.1,0,0.1,0.1,0.2,0.2c0.5,0.6,1.1,0.6,1.3,0.6c0.6,0,0.9-0.2,1.2-0.4c0.4-0.3,0.5-0.4,0.6-0.4
						c0.1,0,0.1,0,0.1,0.1c0,0.2-0.5,0.7-0.8,0.9c-0.4,0.3-0.8,0.4-1.4,0.4c-0.4,0-0.9-0.1-1.3-0.4c-0.2-0.2-0.5-0.4-0.5-0.5
						c0-0.1,0.1-0.1,0.1-0.1l0.4-0.3C196.9,28.5,196.9,28.4,197,28.4 M198.8,30.7c0.8,0,1.6,0.1,1.8,0.2c0.2,0.1,0.7,0.1,1,0.1
						c0.1,0,0.1,0.1,0.1,0.1c0,0.2-0.1,0.5-0.1,1.7c0,0.2-0.1,0.2-0.1,0.2c-0.1,0-0.1-0.1-0.1-0.2c0-0.2-0.1-0.5-0.3-0.8
						c-0.3-0.4-1.2-0.9-2.7-0.9c-0.7,0-1.6,0.1-2.5,0.8c-0.7,0.5-1.2,1.6-1.2,3c0,1.7,0.8,2.8,1.3,3.2c0.9,0.9,1.9,1.2,3,1.2
						c0.4,0,1,0,1.3-0.2c0.1-0.1,0.2-0.1,0.2-0.4v-2c0-1,0-1.1-0.5-1.2c-0.1,0-0.3,0-0.4,0c0,0-0.1-0.1-0.1-0.1
						c0-0.1,0.1-0.1,0.2-0.1c0.5,0,1.3,0,1.4,0c0.1,0,0.8,0,1.2,0c0.1,0,0.2,0,0.2,0.1c0,0-0.1,0.1-0.1,0.1c-0.1,0-0.2,0-0.3,0
						c-0.3,0.1-0.4,0.2-0.4,0.6c0,0.4,0,0.7,0,1.2v1.3c0,0.5,0,0.6-0.2,0.6c-0.8,0.4-1.8,0.5-2.5,0.5c-0.9,0-2.6-0.1-3.9-1.3
						c-0.7-0.6-1.4-1.9-1.4-3.3c0-1.9,0.9-3.2,2-3.8C196.7,30.8,197.9,30.7,198.8,30.7 M197,28.2c-0.1,0-0.2,0.1-0.2,0.1l-0.5,0.4
						c0,0-0.2,0.1-0.2,0.3c0,0.1,0,0.2,0.6,0.7c0.4,0.3,0.9,0.4,1.4,0.4c0.7,0,1.1-0.2,1.5-0.4c0.2-0.1,0.9-0.8,0.9-1.1
						c0-0.2-0.1-0.3-0.3-0.3c-0.1,0-0.2,0.1-0.3,0.2c-0.1,0.1-0.2,0.2-0.4,0.3c-0.3,0.2-0.6,0.4-1.1,0.4c-0.2,0-0.7,0-1.1-0.6
						c0,0,0-0.1-0.1-0.1C197.2,28.4,197.2,28.2,197,28.2L197,28.2z M198.8,30.5c-0.9,0-2.2,0.1-3.3,0.8c-1.3,0.8-2.1,2.3-2.1,4
						c0,1.6,0.8,2.9,1.5,3.5c1,0.9,2.4,1.3,4.1,1.3c0.8,0,1.9-0.1,2.6-0.5c0.3-0.2,0.3-0.3,0.3-0.8v-1.3c0-0.5,0-0.8,0-1.2
						c0-0.4,0.1-0.4,0.3-0.4c0.1,0,0.2,0,0.3,0c0,0,0,0,0,0c0.2,0,0.3-0.2,0.3-0.3c0-0.1-0.1-0.3-0.4-0.3c-0.3,0-0.7,0-1,0l-0.2,0
						l-0.2,0c-0.3,0-0.8,0-1.2,0c-0.3,0-0.4,0.2-0.4,0.3c0,0.2,0.2,0.3,0.3,0.3c0.1,0,0.3,0,0.4,0c0.3,0.1,0.3,0.1,0.3,1v2
						c0,0.1,0,0.1-0.1,0.2c-0.2,0.1-0.6,0.2-1.2,0.2c-1.1,0-2.1-0.4-2.9-1.2c-0.4-0.4-1.2-1.5-1.2-3.1c0-1.2,0.4-2.2,1.1-2.8
						c0.8-0.7,1.7-0.7,2.4-0.7c1.4,0,2.3,0.4,2.6,0.8c0.2,0.2,0.2,0.5,0.2,0.7c0,0.3,0.2,0.4,0.3,0.4c0.1,0,0.4,0,0.4-0.5
						c0-0.8,0-1.2,0.1-1.5c0-0.1,0-0.2,0-0.2c0-0.2-0.1-0.3-0.4-0.3c-0.3,0-0.7-0.1-0.9-0.1C200.5,30.7,199.6,30.5,198.8,30.5
						L198.8,30.5z"/>
				</g>
				<g>
					<path class="st2" d="M207.3,39.9c-0.5,0-1.1,0-1.4,0l-0.1,0l-0.2,0c-0.3,0-0.7,0-1,0c-0.3,0-0.3-0.1-0.3-0.2
						c0-0.1,0.1-0.2,0.2-0.2c0.1,0,0.2,0,0.3-0.1c0.1,0,0.2-0.2,0.2-0.5c0.1-0.5,0.1-1.6,0.1-2.5v-2.1c0-1.8,0-2.1,0-2.5
						c0-0.4-0.1-0.5-0.3-0.5c-0.1,0-0.3,0-0.3,0c-0.1,0-0.2-0.1-0.2-0.2c0-0.1,0.1-0.2,0.3-0.2c0.3,0,0.7,0,1,0l0.2,0l0.2,0
						c0.3,0,0.7,0,1,0c0.2,0,0.3,0.1,0.3,0.2c0,0.1-0.1,0.2-0.2,0.2c-0.1,0-0.2,0-0.3,0c-0.2,0.1-0.3,0.1-0.3,0.5c0,0.4,0,0.7,0,2.5
						v2.1c0,1.1,0,2,0.1,2.5c0,0.4,0.1,0.5,0.3,0.5c0.2,0,0.4,0.1,0.5,0.1c0.1,0,0.2,0.1,0.2,0.2C207.6,39.7,207.5,39.9,207.3,39.9z
						"/>
					<path class="st6" d="M207,30.9c0.1,0,0.2,0,0.2,0.1c0,0-0.1,0.1-0.1,0.1c-0.1,0-0.2,0-0.3,0c-0.3,0.1-0.4,0.2-0.4,0.6
						c0,0.4,0,0.7,0,2.5v2.1c0,1.1,0,2.1,0.1,2.5c0,0.3,0.1,0.6,0.4,0.6c0.2,0,0.4,0.1,0.5,0.1c0.1,0,0.1,0.1,0.1,0.1
						c0,0.1-0.1,0.1-0.2,0.1c-0.7,0-1.4,0-1.5,0c-0.1,0-0.8,0-1.2,0c-0.1,0-0.2,0-0.2-0.1c0,0,0-0.1,0.1-0.1c0.1,0,0.3,0,0.4-0.1
						c0.2-0.1,0.3-0.3,0.3-0.6c0.1-0.5,0.1-1.4,0.1-2.5v-2.1c0-1.8,0-2.1,0-2.5c0-0.4-0.1-0.6-0.4-0.6c-0.1,0-0.3,0-0.4,0
						c-0.1,0-0.1-0.1-0.1-0.1c0-0.1,0.1-0.1,0.2-0.1c0.4,0,1.1,0,1.2,0C205.8,30.9,206.6,30.9,207,30.9 M207,30.7c-0.3,0-0.7,0-1,0
						l-0.2,0c0,0-0.1,0-0.2,0c-0.3,0-0.7,0-1,0c-0.4,0-0.4,0.2-0.4,0.3c0,0.2,0.1,0.3,0.3,0.3c0.1,0,0.2,0,0.3,0
						c0.1,0,0.2,0,0.2,0.4c0,0.4,0,0.7,0,2.5v2.1c0,0.9,0,2-0.1,2.5c0,0.4-0.1,0.4-0.1,0.4c-0.1,0-0.2,0-0.3,0
						c-0.2,0-0.3,0.1-0.3,0.3c0,0.1,0,0.3,0.4,0.3c0.3,0,0.7,0,1,0c0.1,0,0.2,0,0.2,0l0.1,0c0.3,0,0.8,0,1.4,0
						c0.4,0,0.4-0.3,0.4-0.3c0-0.2-0.1-0.3-0.3-0.3c-0.1,0-0.3,0-0.5-0.1c-0.2,0-0.2-0.1-0.3-0.4c-0.1-0.5-0.1-1.4-0.1-2.5v-2.1
						c0-1.8,0-2.1,0-2.5c0-0.4,0.1-0.4,0.2-0.4c0.1,0,0.2,0,0.2,0c0,0,0,0,0,0c0.2,0,0.3-0.2,0.3-0.3
						C207.4,30.9,207.3,30.7,207,30.7L207,30.7z"/>
				</g>
			</g>
		</g>
	</g>
</g>
</svg>
