<?xml version="1.0" encoding="utf-8"?>
<!-- Generator: Adobe Illustrator 25.2.3, SVG Export Plug-In . SVG Version: 6.00 Build 0)  -->
<svg version="1.1" id="Layer_1" xmlns="http://www.w3.org/2000/svg" xmlns:xlink="http://www.w3.org/1999/xlink" x="0px" y="0px"
	 viewBox="0 0 300.6 119.7" style="enable-background:new 0 0 300.6 119.7;" xml:space="preserve">
<style type="text/css">
	.st0{fill:#1C202E;}
	.st1{opacity:0.4;fill:url(#SVGID_7_);}
	.st2{fill:#FFFFFF;}
	.st3{opacity:0.1;fill:none;stroke:#FFFFFF;stroke-miterlimit:10;}
	.st4{clip-path:url(#SVGID_9_);fill:url(#SVGID_10_);}
	.st5{clip-path:url(#SVGID_12_);fill:url(#SVGID_13_);}
	.st6{fill:#959595;}
	.st7{fill:none;stroke:#FFFFFF;stroke-miterlimit:10;}
	.st8{fill:none;stroke:#FFFFFF;stroke-linecap:round;stroke-miterlimit:10;}
	.st9{fill:none;stroke:#FFFFFF;stroke-width:1.3;stroke-linecap:round;stroke-linejoin:round;stroke-miterlimit:10;}
	.st10{opacity:0.6;}
	.st11{fill:#C3AD86;}
	.st12{opacity:0.44;clip-path:url(#SVGID_15_);fill:#FFFFFF;}
	.st13{fill:none;stroke:#C3AD86;stroke-linecap:round;stroke-linejoin:round;stroke-miterlimit:10;}
	.st14{opacity:0.4;}
	.st15{fill:#262B3E;}
	.st16{fill:url(#SVGID_16_);}
	.st17{opacity:0.5;}
	.st18{fill:#E7E7E7;}
	.st19{fill:none;stroke:#F3F1F1;stroke-width:1.7;stroke-miterlimit:10;}
	.st20{opacity:0.15;clip-path:url(#SVGID_18_);}
	.st21{fill:url(#SVGID_19_);}
	.st22{fill:url(#SVGID_20_);}
	.st23{fill:#EEEAE2;}
	.st24{fill:#C4AE87;}
	.st25{opacity:0.72;}
	.st26{opacity:0.7;fill:#262B3E;}
	.st27{opacity:0.9;fill:url(#SVGID_33_);}
	.st28{fill:none;stroke:#1C202E;stroke-width:1.5;stroke-linecap:round;stroke-linejoin:round;stroke-miterlimit:10;}
	.st29{opacity:0.44;}
	.st30{opacity:0.55;fill:#FFFFFF;}
	.st31{opacity:0.55;}
	.st32{fill:#C3AD86;stroke:#C3AD86;stroke-width:0.25;stroke-miterlimit:10;}
	.st33{clip-path:url(#SVGID_35_);fill:url(#SVGID_36_);}
	.st34{clip-path:url(#SVGID_38_);fill:url(#SVGID_39_);}
	.st35{clip-path:url(#SVGID_41_);fill:url(#SVGID_42_);}
	.st36{clip-path:url(#SVGID_44_);fill:url(#SVGID_45_);}
	.st37{fill:#30364E;stroke:#3C4157;stroke-miterlimit:10;}
</style>
<g>
	<defs>
		<rect id="SVGID_25_" x="-370.8" y="-1800.1" width="347.4" height="42.5"/>
	</defs>
	<clipPath id="SVGID_2_">
		<use xlink:href="#SVGID_25_"  style="overflow:visible;"/>
	</clipPath>
	<g style="clip-path:url(#SVGID_2_);">
		
			<image style="overflow:visible;" width="1325" height="883" xlink:href="../confident-woman.jpg"  transform="matrix(0.4776 0 0 2.5003 -446.2083 -1800.1141)">
		</image>
	</g>
</g>
<g>
	<g>
		<defs>
			<path id="SVGID_40_" d="M177.2,35.8c-0.1-0.2-0.2-0.4-0.2-0.6c-0.1-0.3-0.2-0.4-0.3-0.4l0,0l0,0l0,0v0c0,0-0.1,0-0.1,0.1l0,0.1
				c-0.2,0.2-0.4,0.6-0.7,1.2c-0.2,0.6-0.4,1.5-0.3,2.5c0.1,0.9,0.5,1.9,0.7,2.4c0.1,0.3,0.2,0.4,0.3,0.4h0l0,0l0,0v0
				c0,0,0.1,0,0.1-0.1l0-0.1c0.2-0.2,0.4-0.6,0.7-1.2c0.2-0.6,0.4-1.5,0.3-2.5c-0.1-0.4-0.2-0.9-0.3-1.2
				C177.3,36.1,177.2,35.9,177.2,35.8 M181.5,32L181.5,32L181.5,32L181.5,32L181.5,32c0,0,0.1,0.1,0.1,0.1l0,0.1
				c0.1,0.3,0.2,0.7,0.2,1.4c0,0.7-0.2,1.5-0.7,2.3c-0.5,0.8-1.2,1.4-1.6,1.8c-0.2,0.2-0.3,0.3-0.4,0.2l0,0l0,0l0,0l0,0
				c0,0-0.1-0.1-0.1-0.1l0-0.1c-0.1-0.3-0.2-0.7-0.2-1.4c0-0.7,0.2-1.5,0.7-2.3c0.5-0.8,1.2-1.4,1.6-1.8
				C181.3,32,181.4,31.9,181.5,32z M172.5,42.6L172.5,42.6L172.5,42.6L172.5,42.6L172.5,42.6c0.1,0,0.1,0.1,0.2,0.1l0,0.1
				c0.1,0.3,0.4,0.8,0.5,1.6c0.1,0.8,0,1.9-0.4,2.9c-0.4,1-1.2,2-1.5,2.5c-0.2,0.3-0.3,0.4-0.4,0.4l0,0l0,0l0,0l0,0
				c0,0-0.1-0.1-0.2-0.1l0-0.1c-0.1-0.3-0.4-0.8-0.5-1.6c-0.1-0.8,0-1.9,0.4-2.9c0.4-1,1.2-2,1.5-2.5
				C172.3,42.7,172.4,42.5,172.5,42.6z M177.7,47.2L177.7,47.2L177.7,47.2L177.7,47.2L177.7,47.2c0,0.1,0,0.1,0,0.2l-0.1,0
				c-0.1,0.3-0.4,0.9-0.9,1.5c-0.5,0.6-1.3,1.3-2.3,1.6c-1,0.3-2.1,0.3-2.7,0.3c-0.3,0-0.5,0-0.5-0.1l0,0l0,0l0,0v0
				c0-0.1,0-0.1,0-0.2l0.1,0c0.1-0.3,0.4-0.9,0.9-1.5c0.5-0.6,1.3-1.3,2.3-1.6c1-0.3,2.1-0.3,2.7-0.3C177.6,47,177.7,47,177.7,47.2z
				 M180.6,42.3L180.6,42.3L180.6,42.3L180.6,42.3L180.6,42.3c0,0.1,0,0.1,0,0.2l-0.1,0.1c-0.1,0.3-0.2,0.9-0.6,1.6
				c-0.4,0.7-1.1,1.5-2,2c-0.9,0.5-2.1,0.7-2.6,0.8c-0.3,0.1-0.5,0.1-0.5,0l0,0l0,0l0,0v0c0,0,0-0.1,0-0.2l0.1-0.1
				c0.1-0.3,0.2-0.9,0.6-1.6c0.4-0.7,1.1-1.5,2-2c0.9-0.5,2.1-0.7,2.6-0.8C180.4,42.2,180.5,42.2,180.6,42.3z M174.7,37.9
				L174.7,37.9L174.7,37.9L174.7,37.9L174.7,37.9c0.1,0,0.1,0,0.2,0.1l0,0.1c0.2,0.2,0.6,0.7,0.8,1.4c0.3,0.7,0.5,1.8,0.3,2.9
				c-0.2,1.1-0.7,2.2-0.9,2.8c-0.2,0.3-0.2,0.5-0.3,0.5l0,0l0,0l0,0l0,0c0,0-0.1,0-0.2-0.1l0-0.1c-0.2-0.2-0.6-0.7-0.8-1.4
				c-0.3-0.7-0.5-1.8-0.3-2.9c0.2-1.1,0.7-2.2,0.9-2.8C174.5,38,174.5,37.9,174.7,37.9z M182,37.8L182,37.8L182,37.8L182,37.8
				L182,37.8c0,0,0,0.1,0,0.2L182,38c0,0.3-0.1,0.8-0.4,1.4c-0.3,0.6-0.8,1.3-1.5,1.8c-0.7,0.5-1.6,0.8-2.1,1
				c-0.3,0.1-0.4,0.1-0.4,0l0,0l0,0l0,0v0c0,0,0-0.1,0-0.2l0.1-0.1c0-0.3,0.1-0.8,0.4-1.4c0.3-0.6,0.8-1.3,1.5-1.8
				c0.7-0.5,1.6-0.8,2.1-1C181.9,37.7,182,37.7,182,37.8z M169.1,46.1L169.1,46.1L169.1,46.1L169.1,46.1L169.1,46.1
				c0.1,0,0.1,0.1,0.2,0.1l0,0.1c0.2,0.3,0.4,0.8,0.5,1.6c0.1,0.8,0.1,1.9-0.3,2.9c-0.4,1-1.1,2-1.5,2.5c-0.2,0.3-0.3,0.4-0.4,0.4
				l0,0l0,0l0,0l0,0c0,0-0.1-0.1-0.2-0.1l0-0.1c-0.2-0.3-0.4-0.8-0.5-1.6c-0.1-0.8-0.1-1.9,0.3-2.9c0.4-1,1.1-2,1.5-2.5
				C168.9,46.2,169,46,169.1,46.1z M174.4,51.2L174.4,51.2L174.4,51.2L174.4,51.2L174.4,51.2c0,0.1,0,0.1,0,0.2l-0.1,0
				c-0.2,0.3-0.4,0.9-1,1.4c-0.6,0.6-1.4,1.2-2.4,1.4c-1,0.2-2.1,0.1-2.7,0.1c-0.3,0-0.5,0-0.5-0.2l0,0l0,0l0,0v0c0-0.1,0-0.1,0-0.2
				l0.1,0c0.2-0.3,0.4-0.9,1-1.4c0.6-0.6,1.4-1.2,2.4-1.4c1-0.2,2.1-0.1,2.7-0.1C174.3,51.1,174.4,51.1,174.4,51.2z M164.3,24.7
				h-3.2v11.5h3.3c1.2,0,2.2-0.1,3-0.3c0.7-0.2,1.4-0.7,1.9-1.6c0.5-0.9,0.8-2.2,0.8-4c0-2-0.4-3.4-1.2-4.3
				C168.1,25.1,166.5,24.7,164.3,24.7z M164.7,13.3h-3.6v10.4h3.3c2.2,0,3.6-0.4,4.2-1.3c0.6-0.9,0.9-2.3,0.9-4.2
				c0-1.5-0.2-2.6-0.6-3.3c-0.4-0.7-0.9-1.1-1.5-1.3C166.7,13.4,165.8,13.3,164.7,13.3z M156.8,36.2V13.3h-3.7v-0.9h12.3
				c1.3,0,2.5,0.1,3.4,0.2c0.9,0.1,1.8,0.5,2.7,1.1c0.9,0.6,1.5,1.3,1.8,2.2c0.4,0.9,0.6,1.7,0.6,2.5c0,2.9-2.2,4.9-6.5,5.8v0.1
				c4.9,0.8,7.3,2.9,7.3,6.3c0,0.8-0.2,1.7-0.7,2.6c-0.4,0.9-1.1,1.7-2.1,2.4c-1,0.7-1.9,1.1-2.9,1.3c-1,0.2-2.3,0.3-3.8,0.3h-12.1
				v-0.9H156.8z M157.7,13.3h0.5v22.9h-0.5V13.3z M158.8,13.3h0.5v22.9h-0.5V13.3z M159.8,13.3h0.5v22.9h-0.5V13.3z M136.9,26.1h0.5
				v10.1h-0.5V26.1z M138,26.1h0.5v10.1H138V26.1z M139.1,26.1h0.5v10.1h-0.5V26.1z M124.9,12.4h11.9v0.9h-3.9l7,10.9l6.9-10.9h-4.3
				v-0.9h8.4v0.9h-3.1l-7.4,11.8v11h4v0.9h-12.2v-0.9h4V25.8l-8-12.5h-3.2V12.4z M124.2,35.8c0.1-0.2,0.2-0.4,0.2-0.6
				c0.1-0.3,0.2-0.4,0.3-0.4l0,0l0,0l0,0v0c0,0,0.1,0,0.1,0.1l0,0.1c0.2,0.2,0.4,0.6,0.7,1.2c0.2,0.6,0.4,1.5,0.3,2.5
				c-0.1,0.9-0.5,1.9-0.7,2.4c-0.1,0.3-0.2,0.4-0.3,0.4h0l0,0l0,0l0,0c0,0-0.1,0-0.1-0.1l0-0.1c-0.2-0.2-0.4-0.6-0.7-1.2
				c-0.2-0.6-0.4-1.5-0.3-2.5c0.1-0.4,0.2-0.9,0.3-1.2C124.1,36.1,124.2,35.9,124.2,35.8z M119.9,32L119.9,32L119.9,32L119.9,32
				L119.9,32c0,0-0.1,0.1-0.1,0.1l0,0.1c-0.1,0.3-0.2,0.7-0.2,1.4c0,0.7,0.2,1.5,0.7,2.3c0.5,0.8,1.2,1.4,1.6,1.8
				c0.2,0.2,0.3,0.3,0.4,0.2l0,0l0,0l0,0l0,0c0,0,0.1-0.1,0.1-0.1l0-0.1c0.1-0.3,0.2-0.7,0.2-1.4c0-0.7-0.2-1.5-0.7-2.3
				c-0.5-0.8-1.2-1.4-1.6-1.8C120.1,32,120,31.9,119.9,32z M128.9,42.6L128.9,42.6L128.9,42.6L128.9,42.6L128.9,42.6
				c-0.1,0-0.1,0.1-0.2,0.1l0,0.1c-0.1,0.3-0.4,0.8-0.5,1.6c-0.1,0.8,0,1.9,0.4,2.9c0.4,1,1.2,2,1.5,2.5c0.2,0.3,0.3,0.4,0.4,0.4
				l0,0l0,0l0,0v0c0,0,0.1-0.1,0.2-0.1l0-0.1c0.1-0.3,0.4-0.8,0.5-1.6c0.1-0.8,0-1.9-0.4-2.9c-0.4-1-1.2-2-1.5-2.5
				C129.1,42.7,129,42.5,128.9,42.6z M123.7,47.2L123.7,47.2L123.7,47.2L123.7,47.2L123.7,47.2c0,0.1,0,0.1,0,0.2l0.1,0
				c0.1,0.3,0.4,0.9,0.9,1.5c0.5,0.6,1.3,1.3,2.3,1.6c1,0.3,2.1,0.3,2.7,0.3c0.3,0,0.5,0,0.5-0.1l0,0l0,0l0,0v0c0-0.1,0-0.1,0-0.2
				l-0.1,0c-0.1-0.3-0.4-0.9-0.9-1.5c-0.5-0.6-1.3-1.3-2.3-1.6c-1-0.3-2.1-0.3-2.7-0.3C123.8,47,123.7,47,123.7,47.2z M120.8,42.3
				L120.8,42.3L120.8,42.3L120.8,42.3L120.8,42.3c0,0.1,0,0.1,0,0.2l0.1,0.1c0.1,0.3,0.2,0.9,0.6,1.6c0.4,0.7,1.1,1.5,2,2
				c0.9,0.5,2.1,0.7,2.6,0.8c0.3,0.1,0.5,0.1,0.5,0l0,0l0,0l0,0v0c0,0,0-0.1,0-0.2l-0.1-0.1c-0.1-0.3-0.2-0.9-0.6-1.6
				c-0.4-0.7-1.1-1.5-2-2c-0.9-0.5-2.1-0.7-2.6-0.8C121,42.2,120.9,42.2,120.8,42.3z M126.7,37.9L126.7,37.9L126.7,37.9L126.7,37.9
				L126.7,37.9c-0.1,0-0.1,0-0.2,0.1l0,0.1c-0.2,0.2-0.6,0.7-0.8,1.4c-0.3,0.7-0.5,1.8-0.3,2.9c0.2,1.1,0.7,2.2,0.9,2.8
				c0.2,0.3,0.2,0.5,0.3,0.5l0,0l0,0l0,0l0,0c0,0,0.1,0,0.2-0.1l0-0.1c0.2-0.2,0.6-0.7,0.8-1.4c0.3-0.7,0.5-1.8,0.3-2.9
				c-0.2-1.1-0.7-2.2-0.9-2.8C126.9,38,126.9,37.9,126.7,37.9z M119.4,37.8L119.4,37.8L119.4,37.8L119.4,37.8L119.4,37.8
				c0,0,0,0.1,0,0.2l0.1,0.1c0,0.3,0.1,0.8,0.4,1.4c0.3,0.6,0.8,1.3,1.5,1.8c0.7,0.5,1.6,0.8,2.1,1c0.3,0.1,0.4,0.1,0.4,0l0,0l0,0
				l0,0v0c0,0,0-0.1,0-0.2l-0.1-0.1c0-0.3-0.1-0.8-0.4-1.4c-0.3-0.6-0.8-1.3-1.5-1.8c-0.7-0.5-1.6-0.8-2.1-1
				C119.5,37.7,119.4,37.7,119.4,37.8z M132.3,46.1L132.3,46.1L132.3,46.1L132.3,46.1L132.3,46.1c-0.1,0-0.1,0.1-0.2,0.1l0,0.1
				c-0.2,0.3-0.4,0.8-0.5,1.6c-0.1,0.8-0.1,1.9,0.3,2.9c0.4,1,1.1,2,1.5,2.5c0.2,0.3,0.3,0.4,0.4,0.4l0,0l0,0l0,0l0,0
				c0,0,0.1-0.1,0.2-0.1l0-0.1c0.2-0.3,0.4-0.8,0.5-1.6c0.1-0.8,0.1-1.9-0.3-2.9c-0.4-1-1.1-2-1.5-2.5
				C132.5,46.2,132.4,46,132.3,46.1z M127,51.2L127,51.2L127,51.2L127,51.2L127,51.2c0,0.1,0,0.1,0,0.2l0.1,0c0.2,0.3,0.4,0.9,1,1.4
				c0.6,0.6,1.4,1.2,2.4,1.4c1,0.2,2.1,0.1,2.7,0.1c0.3,0,0.5,0,0.5-0.2l0,0l0,0l0,0v0c0-0.1,0-0.1,0-0.2l-0.1,0
				c-0.2-0.3-0.4-0.9-1-1.4c-0.6-0.6-1.4-1.2-2.4-1.4c-1-0.2-2.1-0.1-2.7-0.1C127.1,51.1,127,51.1,127,51.2z M149.2,33.5
				c-1.4,0-2.4-1.1-2.4-2.6c0-1,0.5-1.6,1.1-2c0.3,0.5,1.1,1.3,1.4,1.7c0.3,0.3,1.5,1.5,2.2,2C151.1,33,150.3,33.5,149.2,33.5z
				 M148.8,34.1c1.8,0,2.7-1,3-1.3c1.3,1,1.6,1.1,2.5,1.1h1.2c0.1,0,0.2,0,0.2-0.1c0-0.1-0.1-0.1-0.2-0.1c-0.4,0-1.1-0.2-1.4-0.5
				c-0.3-0.2-0.9-0.5-1.7-1.2c0.5-0.6,1.2-1.9,1.2-2.8c0-0.1,0-0.2-0.2-0.2c-0.7-0.1-1.2-0.1-1.4-0.1c-0.1,0-0.2,0-0.2,0.1
				c0,0.1,0.1,0.1,0.1,0.1c0.2,0,0.4,0,0.6,0.2c0.2,0.2,0.2,0.4,0.2,0.6c0,0.7-0.3,1.5-0.6,2c-0.4-0.3-1.9-1.7-2.3-2.1
				c-1.3-1.3-1.9-2.1-1.9-3.1c0-1.1,0.8-1.6,1.5-1.6c0.5,0,0.9,0.3,1.2,0.5c0.3,0.3,0.4,0.7,0.4,1c0,0.2,0,0.2,0.1,0.2
				c0,0,0.1,0,0.1-0.2c0-0.2,0.1-1,0.1-1.4c0-0.1,0-0.2-0.2-0.3c-0.3-0.2-0.8-0.3-1.5-0.3c-1.6,0-2.6,1.3-2.6,2.2
				c0,0.5,0.1,1,0.6,1.6c-0.9,0.5-1.8,1.5-1.8,2.9C145.9,32.5,146.7,34.1,148.8,34.1z M119.9,5c-0.2,5.5-0.5,16.6,0.1,22
				c0.3,2.8,1.3,4.8,2.8,8.7c0-0.1,0.1-0.2,0.1-0.2l-0.1-28.3c26-5.2,30.1-5.3,55.9,0l-0.2,27.8c0.1,0.1,0.2,0.2,0.3,0.4
				c3.5-7.8,2.3-6.8,2.6-14.5L181.6,5c-7.9-2.4-23.7-5-32.4-5C139.6,0,129,3.3,119.9,5z M135.3,48.8L135.3,48.8L135.3,48.8
				L135.3,48.8L135.3,48.8c0.1,0,0.1,0,0.2,0l0,0.1c0.3,0.2,0.8,0.4,1.3,1c0.6,0.6,1.1,1.5,1.4,2.5c0.3,1,0.2,2.2,0.2,2.9
				c3.4,2.3,9.2,7.6,12.5,10.2c1.1-0.5,7.9-7.1,12-10.2c0-0.6,0-1.8,0.2-2.9c0.3-1.1,0.8-2,1.4-2.5c0.5-0.5,1-0.8,1.3-1l0-0.1
				c0.1,0,0.2,0,0.2,0l0,0l0,0l0,0l0,0c0.1,0,0.1,0.2,0.1,0.5c0,0.6,0.1,1.8-0.2,2.9c-0.3,1.1-0.8,2-1.4,2.5
				c-0.4,0.4-0.8,0.7-1.1,0.8l0.1,0.2c0.1,0,0.2-0.1,0.3-0.2c0.5-0.3,1.6-0.8,2.6-1c1-0.2,2,0,2.7,0.3c0.6,0.3,1.1,0.7,1.3,0.9
				l0.1,0c0,0.1,0.1,0.1,0.1,0.2v0l0,0l0,0l0,0c0,0.1-0.1,0.2-0.4,0.4c-0.5,0.3-1.6,0.8-2.6,1c-1,0.2-2,0-2.7-0.3
				c-0.2-0.1-0.5-0.2-0.6-0.4c0,0.1,0.1,0.1,0.2,0.2c-1.4,1.5-10.1,8.4-13.3,12.1c-2.5-2.4-0.6-0.4-2.2-2.1l-4.9-4.4
				c-1.4-1.3-1.9-1.7-3.6-3c-1.3-1-2.4-1.6-3.5-2.7c0.1-0.2,0.2-0.3,0.3-0.4c-0.2,0.2-0.5,0.4-0.9,0.6c-0.7,0.3-1.7,0.5-2.7,0.3
				c-1-0.2-2-0.8-2.6-1c-0.3-0.2-0.4-0.2-0.4-0.4l0,0l0,0l0,0v0c0-0.1,0-0.1,0.1-0.2l0.1,0c0.2-0.2,0.6-0.6,1.3-0.9
				c0.7-0.3,1.7-0.5,2.7-0.3c1,0.2,2,0.8,2.6,1c0.1,0.1,0.2,0.1,0.3,0.2c0-0.1,0-0.1,0.1-0.2c-0.3-0.2-0.7-0.4-1-0.8
				c-0.6-0.6-1.1-1.5-1.4-2.5c-0.3-1.1-0.2-2.3-0.2-2.9C135.1,49,135.1,48.9,135.3,48.8z"/>
		</defs>
		<clipPath id="SVGID_4_">
			<use xlink:href="#SVGID_40_"  style="overflow:visible;"/>
		</clipPath>
		<linearGradient id="SVGID_6_" gradientUnits="userSpaceOnUse" x1="150.7544" y1="4.243794e-02" x2="150.8776" y2="69.1052">
			<stop  offset="0" style="stop-color:#997145"/>
			<stop  offset="0.5" style="stop-color:#C3AD86"/>
			<stop  offset="1" style="stop-color:#997145"/>
		</linearGradient>
		<rect x="119.3" style="clip-path:url(#SVGID_4_);fill:url(#SVGID_6_);" width="63" height="69.1"/>
	</g>
	<g>
		<g>
			<defs>
				<path id="SVGID_43_" d="M23.1,93.9c0,2.2,0,4.1-0.1,5c-0.1,0.7-0.2,1.1-0.6,1.2c-0.2,0-0.5,0.1-0.7,0.1c-0.1,0-0.2,0.1-0.2,0.2
					c0,0.1,0.1,0.2,0.4,0.2c0.4,0,0.9,0,1.4-0.1c0.5,0,1,0,1,0c0.4,0,1,0,2,0.1c1,0,2.4,0.1,4.2,0.1c0.9,0,1.2,0,1.3-0.6
					c0.1-0.5,0.3-2.1,0.3-2.2c0-0.2,0-0.4-0.2-0.4c-0.1,0-0.2,0.1-0.2,0.4c-0.1,0.9-0.5,1.3-1.1,1.6c-0.6,0.2-1.8,0.2-2.4,0.2
					c-2.4,0-2.8-0.3-2.9-1.9c0-0.5,0-3.2,0-4v-1.9c0-0.1,0-0.2,0.2-0.2c0.4,0,3,0,3.7,0.1c0.9,0.1,1.2,0.4,1.2,0.7
					c0.1,0.3,0.1,0.5,0.1,0.8c0,0.1,0.1,0.2,0.2,0.2c0.2,0,0.2-0.2,0.2-0.4c0-0.2,0.1-1,0.1-1.5c0.1-0.8,0.2-1.1,0.2-1.3
					c0-0.1-0.1-0.2-0.1-0.2c-0.1,0-0.2,0.1-0.4,0.3c-0.2,0.2-0.6,0.3-1.2,0.3c-0.6,0.1-3.7,0.1-4,0.1c-0.1,0-0.1-0.1-0.1-0.2v-6.3
					c0-0.2,0-0.2,0.1-0.2c0.3,0,3.1,0,3.5,0.1c1.3,0.2,1.6,0.3,1.7,0.7c0.1,0.3,0.1,0.7,0.1,0.8c0,0.2,0.1,0.3,0.2,0.3
					c0.1,0,0.2-0.1,0.2-0.2c0.1-0.3,0.1-1.3,0.1-1.5c0.1-0.7,0.2-0.9,0.2-1.1c0-0.1,0-0.2-0.1-0.2c-0.1,0-0.2,0.1-0.3,0.1
					c-0.2,0-0.6,0.1-1.1,0.1c-0.6,0-5.6,0-5.8,0c-0.1,0-1.7-0.1-2.8-0.1c-0.3,0-0.4,0.1-0.4,0.2c0,0.1,0.1,0.2,0.2,0.2
					c0.2,0,0.6,0,0.8,0.1c0.8,0.1,0.9,0.5,1,1.3c0.1,0.7,0.1,1.4,0.1,5V93.9z M41.8,100.8c0.7-0.1,1.3-0.3,1.8-0.7
					c1.7-1.1,2.3-2.6,2.3-4c0-2-1-3.6-4-5.6l-0.7-0.5c-2.4-1.6-3.1-2.5-3.1-3.9c0-1.6,1.5-2.5,3.2-2.5c2.2,0,3,0.9,3.1,1.1
					c0.1,0.2,0.3,0.9,0.4,1.1c0,0.2,0.1,0.3,0.2,0.3c0.2,0,0.2-0.1,0.2-0.5c0-1.6,0.1-2.3,0.1-2.5c0-0.1-0.1-0.2-0.2-0.2
					c-0.2,0-0.4,0-0.9-0.1c-0.6-0.2-1.5-0.3-2.5-0.3c-3.2,0-5.4,1.6-5.4,4.4c0,1.6,0.9,3,3.5,5l1.1,0.8c2.1,1.6,3.1,2.4,3.1,4
					c0,1.7-1.2,3.1-3.6,3.1c-1.6,0-3.4-0.6-3.8-2.3c-0.1-0.3-0.1-0.7-0.1-0.8c0-0.2-0.1-0.3-0.2-0.3c-0.1,0-0.2,0.1-0.2,0.4
					c0,0.4-0.1,1.3-0.1,2.5c0,0.6,0,0.7,0.4,0.9c1,0.5,2.4,0.6,3.5,0.6c0.2,0,0.5,0,0.7,0l-1.7,1.4c-0.2,0.2-0.4,0.3-0.4,0.4
					c0,0.1,0.1,0.2,0.4,0.2c1.6,0.5,2,1.2,2,2c0,1-1.1,1.6-2,1.7c-0.3,0-0.6,0.1-0.6,0.3c0,0.1,0.2,0.2,0.4,0.2
					c0.5,0,1.4-0.2,2.1-0.5c0.9-0.4,2-1.2,2-2.2c0-1.1-1-1.8-2.8-1.9C40.2,102.2,41.2,101.2,41.8,100.8z M54.3,89.8c0-3.6,0-4.3,0-5
					c0.1-0.8,0.2-1.1,0.9-1.3c0.3-0.1,0.4-0.1,0.6-0.1c0.1,0,0.2-0.1,0.2-0.2c0-0.1-0.1-0.2-0.4-0.2c-0.7,0-2.3,0.1-2.4,0.1
					c-0.1,0-1.7-0.1-2.4-0.1c-0.3,0-0.4,0.1-0.4,0.2c0,0.1,0.1,0.2,0.2,0.2c0.2,0,0.5,0,0.7,0.1c0.5,0.1,0.7,0.5,0.8,1.3
					c0.1,0.7,0.1,1.4,0.1,5v4.1c0,2.2,0,4.1-0.1,5c-0.1,0.7-0.2,1.1-0.6,1.2c-0.2,0.1-0.5,0.1-0.7,0.1c-0.1,0-0.2,0.1-0.2,0.2
					c0,0.1,0.1,0.2,0.4,0.2c0.7,0,2.3-0.1,2.4-0.1c0.1,0,1.7,0.1,3,0.1c0.3,0,0.4-0.1,0.4-0.2c0-0.1-0.1-0.2-0.2-0.2
					c-0.2,0-0.7-0.1-1.1-0.1c-0.7-0.1-0.8-0.5-0.9-1.2c-0.1-1-0.1-2.8-0.1-5V89.8z M64.5,89.8c0-3.6,0-4.3,0-5
					c0.1-0.8,0.2-1.2,0.9-1.3c0.3,0,0.6-0.1,0.8-0.1c0.1,0,0.2-0.1,0.2-0.2c0-0.1-0.1-0.2-0.4-0.2c-0.7,0-2.6,0.1-2.7,0.1
					c-0.1,0-1.7-0.1-2.8-0.1c-0.3,0-0.4,0.1-0.4,0.2c0,0.1,0.1,0.2,0.2,0.2c0.2,0,0.6,0,0.8,0.1c0.8,0.1,0.9,0.5,1,1.3
					c0.1,0.7,0.1,1.4,0.1,5v4.1c0,2.2,0,4.1-0.1,5c-0.1,0.7-0.2,1.1-0.6,1.2c-0.2,0.1-0.5,0.1-0.7,0.1c-0.1,0-0.2,0.1-0.2,0.2
					c0,0.1,0.1,0.2,0.4,0.2c0.4,0,0.9,0,1.4-0.1c0.5,0,0.9,0,1,0c0.7,0,1.5,0,2.6,0.1c1.1,0.1,2.5,0.1,4.2,0.1
					c1.3,0,1.4-0.1,1.5-0.6c0.2-0.7,0.4-2.1,0.4-2.3c0-0.2-0.1-0.4-0.2-0.4c-0.1,0-0.2,0.1-0.2,0.3c-0.1,0.5-0.3,1-0.6,1.3
					c-0.6,0.7-1.7,0.7-2.9,0.7c-1.9,0-2.8-0.2-3.2-0.5c-0.4-0.4-0.5-1.8-0.5-5.2V89.8z M90.7,99.6c-3.1,0-5.5-2.5-5.5-5.9
					c0-2.2,1-3.7,2.5-4.6c0.8,1.1,2.5,3.1,3.2,3.8c0.7,0.8,3.4,3.4,5,4.6C95,98.5,93.3,99.6,90.7,99.6z M89.8,101
					c4.1,0,6.2-2.3,6.9-2.9c3,2.4,3.7,2.6,5.7,2.6h2.7c0.2,0,0.5-0.1,0.5-0.2c0-0.2-0.1-0.2-0.4-0.2c-1,0-2.4-0.5-3.3-1.1
					c-0.8-0.4-2-1.2-3.8-2.7c1.2-1.5,2.7-4.2,2.7-6.4c0-0.3-0.1-0.5-0.5-0.5c-1.5-0.2-2.6-0.2-3.3-0.2c-0.2,0-0.4,0.1-0.4,0.2
					c0,0.1,0.2,0.2,0.3,0.2c0.4,0,1,0.1,1.3,0.4c0.4,0.4,0.5,0.9,0.5,1.3c0,1.7-0.6,3.5-1.4,4.5c-0.9-0.7-4.3-3.9-5.2-4.9
					c-2.9-3.1-4.3-4.9-4.3-7c0-2.6,1.8-3.6,3.5-3.6c1.2,0,2.1,0.6,2.8,1.2c0.7,0.7,0.9,1.6,0.9,2.3c0,0.4,0,0.5,0.2,0.5
					c0.1,0,0.2-0.1,0.3-0.5c0.1-0.4,0.2-2.3,0.2-3.1c0-0.3,0-0.5-0.4-0.7c-0.7-0.4-1.9-0.7-3.3-0.7c-3.7,0-5.9,2.9-5.9,5
					c0,1.2,0.3,2.3,1.3,3.8c-2.1,1.3-4.2,3.4-4.2,6.6C83.1,97.4,84.9,101,89.8,101z M119.1,89.8c0-0.1,0.1-0.2,0.2-0.2
					c0.4,0,1.8,0,2.1,0.1c0.7,0.1,1.3,0.2,2.3,0.8c2.1,1.4,2.7,3.8,2.7,5.5c0,3.1-2.4,3.9-3.9,3.9c-0.5,0-1.7-0.1-2.4-0.4
					c-0.9-0.4-0.9-0.8-0.9-2.1c0-0.4,0-3.8,0-5.9V89.8z M119.1,81.2c0-0.2,0.1-0.2,0.3-0.3c0.4-0.1,1-0.1,1.3-0.1
					c2.7,0,3.7,2.4,3.7,4.7c0,1.1-0.4,2.1-1,2.8c-0.6,0.7-1,0.7-2.5,0.7c-1,0-1.5-0.1-1.7-0.1c-0.1-0.1-0.2-0.1-0.2-0.3V81.2z
					 M116.9,92.7c0,2.6,0,4.8-0.1,5.9c-0.1,0.8-0.2,1.4-0.8,1.5c-0.2,0.1-0.6,0.1-0.8,0.1c-0.2,0-0.2,0.1-0.2,0.2
					c0,0.2,0.1,0.2,0.4,0.2c0.4,0,1-0.1,1.6-0.1c0.6,0,1,0,1.1,0c0.1,0,0.9,0,1.7,0.1c0.8,0,1.7,0.1,2,0.1c4.7,0,7-3,7-6
					c0-3.2-2.7-5.1-4.8-5.8c1.3-1.3,2.6-2.7,2.6-4.9c0-1.4-1-4.1-5.5-4.1c-1.3,0-2.3,0.1-3,0.1c-0.1,0-1.9-0.1-3.1-0.1
					c-0.3,0-0.4,0.1-0.4,0.2c0,0.1,0.1,0.2,0.2,0.2c0.2,0,0.7,0,0.9,0.1c0.9,0.2,1.1,0.6,1.2,1.6c0.1,0.9,0.1,1.6,0.1,5.9V92.7z
					 M136.5,93.2c-0.1,0-0.1-0.1-0.1-0.2l2.3-6.4c0.1-0.4,0.3-0.4,0.4,0l2.4,6.4c0,0.1,0,0.2-0.1,0.2H136.5z M133,98.1
					c-0.5,1.2-0.9,2-2,2.1c-0.2,0-0.6,0.1-0.7,0.1c-0.1,0-0.2,0.1-0.2,0.2c0,0.1,0.2,0.2,0.5,0.2c1,0,2.2-0.1,2.4-0.1
					c0.3,0,1.6,0.1,2.2,0.1c0.2,0,0.4-0.1,0.4-0.2c0-0.1-0.1-0.2-0.2-0.2H135c-0.4,0-0.8-0.2-0.8-0.6c0-0.4,0.1-1,0.4-1.6l1.4-3.7
					c0.1-0.1,0.1-0.2,0.2-0.2h5.6c0.1,0,0.2,0,0.2,0.1l2.2,5.3c0.2,0.4-0.1,0.6-0.2,0.6c-0.1,0.1-0.2,0.1-0.2,0.2
					c0,0.1,0.4,0.1,0.9,0.2c1.7,0.1,3.5,0.1,3.8,0.1c0.3,0,0.6-0.1,0.6-0.2s-0.2-0.2-0.3-0.2c-0.2,0-0.6,0-1-0.1
					c-0.5-0.2-1.2-0.5-2.1-2.5c-1.5-3.5-5.4-13.1-5.8-14.1c-0.2-0.5-0.3-0.8-0.6-0.8c-0.2,0-0.3,0.1-0.6,0.9L133,98.1z M154.3,89.8
					c0-3.6,0-4.3,0-5c0.1-0.8,0.2-1.2,0.9-1.3c0.3,0,0.6-0.1,0.8-0.1c0.1,0,0.2-0.1,0.2-0.2c0-0.1-0.1-0.2-0.4-0.2
					c-0.7,0-2.6,0.1-2.7,0.1c-0.1,0-1.7-0.1-2.8-0.1c-0.3,0-0.4,0.1-0.4,0.2c0,0.1,0.1,0.2,0.2,0.2c0.2,0,0.6,0,0.8,0.1
					c0.8,0.1,0.9,0.5,1,1.3c0.1,0.7,0.1,1.4,0.1,5v4.1c0,2.2,0,4.1-0.1,5c-0.1,0.7-0.2,1.1-0.6,1.2c-0.2,0.1-0.5,0.1-0.7,0.1
					c-0.1,0-0.2,0.1-0.2,0.2c0,0.1,0.1,0.2,0.4,0.2c0.4,0,0.9,0,1.4-0.1c0.5,0,0.9,0,1,0c0.7,0,1.5,0,2.6,0.1
					c1.1,0.1,2.5,0.1,4.2,0.1c1.3,0,1.4-0.1,1.5-0.6c0.2-0.7,0.4-2.1,0.4-2.3c0-0.2-0.1-0.4-0.2-0.4c-0.1,0-0.2,0.1-0.2,0.3
					c-0.1,0.5-0.3,1-0.6,1.3c-0.6,0.7-1.7,0.7-2.9,0.7c-1.9,0-2.8-0.2-3.2-0.5c-0.4-0.4-0.5-1.8-0.5-5.2V89.8z M170.6,84.1l3,0.1
					c2.3,0.1,2.8,0.6,2.9,1.3l0,0.2c0,0.3,0.1,0.4,0.2,0.4c0.1,0,0.2-0.1,0.2-0.3c0-0.3,0.1-1.9,0.1-2.6c0-0.1,0-0.3-0.1-0.3
					c-0.1,0-0.3,0.1-0.7,0.1c-0.4,0.1-0.9,0.1-1.7,0.1h-9.1c-0.3,0-1.2,0-1.9-0.1c-0.7-0.1-0.9-0.3-1.1-0.3c-0.1,0-0.2,0.3-0.2,0.4
					c0,0.2-0.5,2.3-0.5,2.5c0,0.1,0.1,0.2,0.2,0.2c0.1,0,0.2,0,0.2-0.2c0.1-0.2,0.1-0.3,0.4-0.7c0.4-0.5,0.9-0.7,2.4-0.7l3.5-0.1
					v9.7c0,2.2,0,4.1-0.1,5c-0.1,0.7-0.2,1.1-0.7,1.3c-0.2,0.1-0.5,0.1-0.7,0.1c-0.1,0-0.2,0.1-0.2,0.2c0,0.1,0.1,0.2,0.4,0.2
					c0.7,0,2.4-0.1,2.5-0.1c0.1,0,1.7,0.1,3,0.1c0.3,0,0.4-0.1,0.4-0.2c0-0.1,0-0.2-0.2-0.2c-0.2,0-0.8-0.1-1.1-0.1
					c-0.7-0.1-0.8-0.5-0.9-1.2c-0.1-1-0.1-2.8-0.1-5V84.1z M182.5,93.2c-0.1,0-0.1-0.1-0.1-0.2l2.3-6.4c0.1-0.4,0.3-0.4,0.4,0
					l2.4,6.4c0,0.1,0,0.2-0.1,0.2H182.5z M179,98.1c-0.5,1.2-0.9,2-2,2.1c-0.2,0-0.6,0.1-0.7,0.1c-0.1,0-0.2,0.1-0.2,0.2
					c0,0.1,0.2,0.2,0.5,0.2c1,0,2.2-0.1,2.4-0.1c0.3,0,1.6,0.1,2.2,0.1c0.2,0,0.4-0.1,0.4-0.2c0-0.1-0.1-0.2-0.2-0.2H181
					c-0.4,0-0.8-0.2-0.8-0.6c0-0.4,0.1-1,0.4-1.6l1.4-3.7c0.1-0.1,0.1-0.2,0.2-0.2h5.6c0.1,0,0.2,0,0.2,0.1l2.2,5.3
					c0.2,0.4-0.1,0.6-0.2,0.6c-0.1,0.1-0.2,0.1-0.2,0.2c0,0.1,0.4,0.1,0.9,0.2c1.7,0.1,3.5,0.1,3.8,0.1c0.3,0,0.6-0.1,0.6-0.2
					s-0.2-0.2-0.3-0.2c-0.2,0-0.6,0-1-0.1c-0.5-0.2-1.2-0.5-2.1-2.5c-1.5-3.5-5.4-13.1-5.8-14.1c-0.2-0.5-0.3-0.8-0.6-0.8
					c-0.2,0-0.3,0.1-0.6,0.9L179,98.1z M206.3,100.9c1.6,0,3.4-0.1,4.4-0.5c0.4-0.2,0.5-0.2,0.6-0.7c0.2-0.8,0.6-2.8,0.6-3
					s-0.1-0.3-0.2-0.3c-0.2,0-0.2,0.1-0.2,0.3c-0.1,0.4-0.4,1.4-0.9,1.9c-1,1-2.2,1.1-4,1.1c-5.2,0-8.7-4-8.7-8.4
					c0-2.3,0.4-4.4,2.2-6.1c0.9-0.8,2.3-1.6,5.4-1.6c2.1,0,3.9,0.6,4.8,1.3c0.6,0.5,1,1.4,1,2.3c0,0.3,0,0.5,0.2,0.5
					c0.1,0,0.2-0.1,0.3-0.5c0-0.3,0-1.6,0.1-2.4c0.1-0.8,0.1-1.1,0.1-1.3c0-0.1-0.1-0.2-0.3-0.2c-0.8,0-1.6-0.2-2.5-0.4
					c-1.2-0.2-2.6-0.3-3.5-0.3c-3.7,0-5.9,1.1-7.4,2.5c-2.1,2.1-2.7,4.8-2.7,6.3c0,2.2,0.6,4.9,2.9,6.9
					C200.3,100.1,202.7,100.9,206.3,100.9z M219.9,89.8c0-3.6,0-4.3,0-5c0.1-0.8,0.2-1.1,0.9-1.3c0.3-0.1,0.4-0.1,0.6-0.1
					c0.1,0,0.2-0.1,0.2-0.2c0-0.1-0.1-0.2-0.4-0.2c-0.7,0-2.3,0.1-2.4,0.1c-0.1,0-1.7-0.1-2.4-0.1c-0.3,0-0.4,0.1-0.4,0.2
					c0,0.1,0.1,0.2,0.2,0.2c0.2,0,0.5,0,0.7,0.1c0.5,0.1,0.7,0.5,0.8,1.3c0.1,0.7,0.1,1.4,0.1,5v4.1c0,2.2,0,4.1-0.1,5
					c-0.1,0.7-0.2,1.1-0.6,1.2c-0.2,0.1-0.5,0.1-0.7,0.1c-0.1,0-0.2,0.1-0.2,0.2c0,0.1,0.1,0.2,0.4,0.2c0.7,0,2.3-0.1,2.4-0.1
					c0.1,0,1.7,0.1,3,0.1c0.3,0,0.4-0.1,0.4-0.2c0-0.1-0.1-0.2-0.2-0.2c-0.2,0-0.7-0.1-1.1-0.1c-0.7-0.1-0.8-0.5-0.9-1.2
					c-0.1-1-0.1-2.8-0.1-5V89.8z M227.7,91.2c0-5.1,2.9-7.6,7-7.6c3.8,0,7.2,2.9,7.2,8.5c0,6.7-4.4,7.9-6.5,7.9
					C231,100,227.7,96.6,227.7,91.2z M225.2,91.8c0,4.2,2.8,9.1,9.5,9.1c5.8,0,9.7-4.3,9.7-9.5c0-5.4-4.1-8.7-9.6-8.7
					C228.1,82.7,225.2,88.1,225.2,91.8z M253.1,79c-0.1,0.1-0.2,0.1-0.2,0.2c0,0.2,0.6,0.7,1,1c0.7,0.5,1.7,0.8,2.6,0.8
					c1.2,0,1.9-0.3,2.8-0.8c0.6-0.4,1.7-1.4,1.7-1.7c0-0.1-0.1-0.2-0.2-0.2c-0.2,0-0.3,0.3-1.1,0.9c-0.5,0.4-1.3,0.8-2.4,0.8
					c-0.4,0-1.7-0.1-2.6-1.3c-0.2-0.2-0.2-0.4-0.4-0.4c-0.1,0-0.2,0.1-0.2,0.1L253.1,79z M261.6,98.7c0,0.4-0.2,0.5-0.5,0.7
					c-0.6,0.4-1.8,0.4-2.6,0.4c-2.2,0-4.3-0.7-6.2-2.4c-0.9-0.8-2.6-3.1-2.6-6.4c0-2.7,1-4.8,2.4-5.8c1.8-1.4,3.6-1.5,5.1-1.5
					c3.1,0,5,0.9,5.6,1.8c0.4,0.5,0.5,1.2,0.6,1.5c0,0.2,0,0.4,0.2,0.4c0.2,0,0.3-0.1,0.3-0.5c0-2.3,0.1-2.9,0.1-3.3
					c0-0.1-0.1-0.2-0.3-0.2c-0.6,0-1.5-0.1-2-0.2c-0.5-0.1-2.2-0.4-3.7-0.4c-1.8,0-4.3,0.2-6.4,1.5c-2.1,1.3-4,3.9-4,7.6
					c0,2.9,1.4,5.4,2.9,6.6c2.7,2.3,6.1,2.5,8,2.5c1.4,0,3.6-0.2,5.1-1c0.3-0.2,0.3-0.2,0.3-1.3V96c0-1,0-1.7,0-2.4
					c0.1-0.8,0.2-1.2,0.9-1.3c0.3-0.1,0.4-0.1,0.6-0.1c0.1,0,0.2-0.1,0.2-0.2c0-0.2-0.1-0.2-0.4-0.2c-0.7,0-2.3,0.1-2.4,0.1
					c-0.1,0-1.8-0.1-2.9-0.1c-0.3,0-0.4,0-0.4,0.2c0,0.1,0.1,0.2,0.2,0.2c0.2,0,0.6,0,0.8,0.1c1,0.2,1,0.5,1,2.3V98.7z M273.3,89.8
					c0-3.6,0-4.3,0-5c0.1-0.8,0.2-1.2,0.9-1.3c0.3,0,0.6-0.1,0.8-0.1c0.1,0,0.2-0.1,0.2-0.2c0-0.1-0.1-0.2-0.4-0.2
					c-0.7,0-2.6,0.1-2.7,0.1c-0.1,0-1.7-0.1-2.8-0.1c-0.3,0-0.4,0.1-0.4,0.2c0,0.1,0.1,0.2,0.2,0.2c0.2,0,0.6,0,0.8,0.1
					c0.8,0.1,0.9,0.5,1,1.3c0.1,0.7,0.1,1.4,0.1,5v4.1c0,2.2,0,4.1-0.1,5c-0.1,0.7-0.2,1.1-0.6,1.2c-0.2,0.1-0.5,0.1-0.7,0.1
					c-0.1,0-0.2,0.1-0.2,0.2c0,0.1,0.1,0.2,0.4,0.2c0.4,0,0.9,0,1.4-0.1c0.5,0,0.9,0,1,0c0.7,0,1.5,0,2.6,0.1
					c1.1,0.1,2.5,0.1,4.2,0.1c1.3,0,1.4-0.1,1.5-0.6c0.2-0.7,0.4-2.1,0.4-2.3c0-0.2-0.1-0.4-0.2-0.4c-0.1,0-0.2,0.1-0.2,0.3
					c-0.1,0.5-0.3,1-0.6,1.3c-0.6,0.7-1.7,0.7-2.9,0.7c-1.9,0-2.8-0.2-3.2-0.5c-0.4-0.4-0.5-1.8-0.5-5.2V89.8z M284.4,93.2
					c0,3.4,0.9,5,2.1,6.1c1.7,1.6,4.2,1.6,5,1.6c1.4,0,3.3-0.2,5.1-1.7c1.9-1.6,2.3-4.5,2.3-7v-2.5c0-3.6,0-4.3,0-5
					c0.1-0.8,0.2-1.1,0.9-1.3c0.3-0.1,0.4-0.1,0.6-0.1c0.1,0,0.2-0.1,0.2-0.2c0-0.1-0.1-0.2-0.4-0.2c-0.7,0-1.9,0.1-2,0.1
					c-0.1,0-1.5-0.1-2.6-0.1c-0.3,0-0.4,0.1-0.4,0.2c0,0.1,0.1,0.2,0.2,0.2c0.2,0,0.6,0,0.8,0.1c0.8,0.1,0.9,0.5,1,1.3
					c0,0.7,0.1,1.4,0.1,5v2.9c0,2.4-0.2,4.3-1.4,5.6c-0.8,1-2.3,1.6-3.7,1.6c-1.4,0-2.4-0.2-3.6-1.3c-1-0.9-1.8-2.3-1.8-5.7v-3.2
					c0-3.6,0-4.3,0.1-5c0.1-0.8,0.2-1.2,0.8-1.3c0.3-0.1,0.4-0.1,0.6-0.1c0.1,0,0.2-0.1,0.2-0.2c0-0.1-0.1-0.2-0.4-0.2
					c-0.7,0-2.2,0.1-2.4,0.1c-0.2,0-1.7-0.1-2.8-0.1c-0.3,0-0.4,0.1-0.4,0.2c0,0.1,0.1,0.2,0.2,0.2c0.2,0,0.6,0,0.8,0.1
					c0.8,0.1,0.9,0.5,1,1.3c0.1,0.7,0.1,1.4,0.1,5V93.2z M53.3,79c0.9,0,1.5,0.7,1.5,1.5c0,0.9-0.7,1.5-1.5,1.5
					c-0.9,0-1.5-0.7-1.5-1.5C51.8,79.7,52.5,79,53.3,79z M8.8,95.9c0,0.4,0,1.6-0.1,2.7c-0.1,0.8-0.3,1.4-0.9,1.5
					c-0.2,0.1-0.6,0.1-0.8,0.1c-0.2,0-0.2,0.1-0.2,0.2c0,0.2,0.1,0.2,0.4,0.2c0.8,0,2.6-0.1,2.7-0.1c0.1,0,1.9,0.1,3.4,0.1
					c0.3,0,0.4-0.1,0.4-0.2c0-0.1-0.1-0.2-0.2-0.2c-0.2,0-0.9-0.1-1.2-0.1c-0.8-0.1-1.1-0.7-1.1-1.5c-0.1-1.1-0.1-2.3-0.1-2.7v-2.3
					c0-0.9,0-1.7,0.4-2.7c0.5-1.2,4.3-7.6,5.3-8.7c0.6-0.7,0.9-1.1,1.5-1.4c0.4-0.3,1-0.4,1.3-0.4c0.2,0,0.4-0.1,0.4-0.2
					c0-0.1-0.2-0.2-0.4-0.2c-0.5,0-2.5,0.1-2.7,0.1c-0.2,0-1.1-0.1-1.8-0.1c-0.3,0-0.4,0.1-0.4,0.2c0,0.1,0.2,0.2,0.4,0.3
					c0.3,0.1,0.4,0.4,0.4,0.8c0,0.4-0.1,0.8-0.5,1.4c-0.6,0.9-4,6.9-4.6,8c-0.5-0.8-4.6-7.8-5.1-8.6C5.1,81.6,5,81.2,5,80.9
					c0-0.2,0.1-0.4,0.4-0.5c0.2-0.1,0.4-0.1,0.4-0.2c0-0.1-0.1-0.2-0.4-0.2c-1.1,0-2.1,0.1-2.3,0.1c-0.1,0-2.2-0.1-2.7-0.1
					C0.1,80,0,80.1,0,80.2c0,0.1,0.1,0.2,0.3,0.2c0.2,0,0.8,0.2,1.2,0.4c0.5,0.3,1.2,1,1.9,2c1,1.4,4.7,7.4,4.8,7.9
					c0.4,0.8,0.6,1.4,0.6,2.9V95.9z"/>
			</defs>
			<clipPath id="SVGID_7_">
				<use xlink:href="#SVGID_43_"  style="overflow:visible;"/>
			</clipPath>
			<linearGradient id="SVGID_9_" gradientUnits="userSpaceOnUse" x1="8.1027" y1="94.3481" x2="301.5221" y2="90.827">
				<stop  offset="0" style="stop-color:#A58057"/>
				<stop  offset="0.44" style="stop-color:#C3AD86"/>
				<stop  offset="1" style="stop-color:#9A744C"/>
			</linearGradient>
			<rect y="78.2" style="clip-path:url(#SVGID_7_);fill:url(#SVGID_9_);" width="300.6" height="28.9"/>
		</g>
		<g>
			<g>
				<g>
					<path class="st2" d="M76.4,119.4c-0.2,0-1.3,0-2.3,0c-0.4,0-0.6,0-0.6-0.2c0,0,0-0.2,0.2-0.2c0-0.1,0.1-0.1,0-0.3l-1.4-3.7
						l-3.2,0l-0.9,2.7c-0.1,0.4-0.2,0.7-0.2,1c0,0.2,0.3,0.3,0.5,0.3h0.1c0.2,0,0.3,0.1,0.3,0.2c0,0.1,0,0.2-0.3,0.2
						c-0.2,0-0.5,0-0.8,0c-0.2,0-0.3,0-0.4,0c-0.1,0-0.2,0-0.3,0c-0.3,0-0.9,0-1.3,0c-0.1,0-0.4,0-0.4-0.2c0-0.1,0.1-0.2,0.2-0.2
						c0.1,0,0.3,0,0.4,0c0.6-0.1,0.9-0.6,1.2-1.4l3.4-9.4c0.2-0.5,0.3-0.7,0.4-0.7c0.2,0,0.2,0.1,0.4,0.6c0.1,0.2,0.3,0.8,0.6,1.7
						c0.8,2.2,2.2,5.8,2.8,7.5c0.5,1.3,0.9,1.5,1.2,1.6c0.2,0.1,0.4,0.1,0.6,0.1c0.2,0,0.3,0.1,0.3,0.2
						C76.8,119.3,76.8,119.4,76.4,119.4z M69.3,114.2l2.8,0c0,0-1.5-4.1-1.5-4.1C70.7,110.1,69.3,114.2,69.3,114.2z"/>
					<path class="st6" d="M70.9,107.6c0.1,0,0.1,0.1,0.3,0.5c0.2,0.6,2.6,6.8,3.5,9.2c0.5,1.4,1,1.6,1.3,1.7
						c0.2,0.1,0.4,0.1,0.6,0.1c0.1,0,0.1,0,0.1,0.1c0,0.1-0.1,0.1-0.3,0.1c-0.2,0-1.3,0-2.3,0c-0.3,0-0.4,0-0.4-0.1
						c0-0.1,0-0.1,0.1-0.1c0.1,0,0.2-0.2,0.1-0.4l-1.4-3.7c0-0.1-0.1-0.1-0.1-0.1h-3.2c-0.1,0-0.1,0-0.1,0.1l-0.9,2.7
						c-0.1,0.4-0.2,0.7-0.2,1c0,0.3,0.3,0.4,0.6,0.4h0.1c0.1,0,0.1,0,0.1,0.1c0,0.1-0.1,0.1-0.2,0.1c-0.4,0-1,0-1.2,0s-1,0-1.7,0
						c-0.2,0-0.3,0-0.3-0.1c0-0.1,0.1-0.1,0.1-0.1c0.1,0,0.3,0,0.4,0c0.7-0.1,1-0.7,1.3-1.4l3.4-9.4
						C70.8,107.7,70.8,107.6,70.9,107.6 M69.3,114.3h2.8c0.1,0,0.1,0,0.1-0.1l-1.4-4.1c0-0.1-0.1-0.2-0.1-0.2s-0.1,0.1-0.1,0.2
						l-1.3,4.1C69.2,114.3,69.2,114.3,69.3,114.3 M70.9,107.4c-0.3,0-0.4,0.3-0.5,0.7l-3.4,9.4c-0.3,0.8-0.5,1.2-1.1,1.3
						c-0.1,0-0.3,0-0.4,0c-0.2,0-0.4,0.2-0.4,0.3c0,0.2,0.2,0.3,0.5,0.3c0.5,0,1,0,1.3,0c0.2,0,0.3,0,0.3,0c0.1,0,0.2,0,0.4,0
						c0.3,0,0.6,0,0.8,0c0.4,0,0.4-0.3,0.4-0.3c0-0.1-0.1-0.3-0.4-0.3h-0.1c-0.1,0-0.3,0-0.3-0.2c0-0.2,0.1-0.6,0.2-0.9l0.9-2.7h3.1
						l1.4,3.7c0,0.1,0,0.1,0,0.1c-0.2,0-0.2,0.2-0.2,0.3c0,0.3,0.3,0.3,0.6,0.3l0.1,0c0.7,0,1.5,0,2.3,0c0.5,0,0.5-0.2,0.5-0.3
						c0-0.1,0-0.3-0.4-0.3c-0.1,0-0.3,0-0.5-0.1c-0.2-0.1-0.6-0.2-1.1-1.6c-0.6-1.6-2-5.3-2.8-7.5c-0.3-0.9-0.6-1.5-0.6-1.7
						C71.3,107.7,71.2,107.4,70.9,107.4L70.9,107.4z M69.5,114.1l1.2-3.6l1.3,3.6H69.5L69.5,114.1z"/>
				</g>
				<g>
					<path class="st2" d="M81.1,119.6c-0.2,0-0.3-0.2-0.6-0.9l-3.2-7.9c-0.3-0.7-0.5-0.8-0.8-0.9c-0.2,0-0.4,0-0.5,0
						c-0.1,0-0.2-0.1-0.2-0.2c0-0.2,0.3-0.2,0.5-0.2c0.4,0,0.9,0,1.2,0l0.3,0l0.3,0c0.2,0,0.6,0,1,0c0.2,0,0.5,0,0.5,0.2
						c0,0.1-0.1,0.2-0.2,0.2c-0.2,0-0.4,0-0.4,0.1c-0.1,0-0.1,0.1-0.1,0.1c0,0.1,0.1,0.4,0.3,0.8l2.5,6.5c0.8-1.9,2.4-6,2.6-6.8
						c0.1-0.2,0.1-0.4,0.1-0.5c0-0.1,0-0.1-0.1-0.2c-0.1,0-0.3,0-0.4,0c-0.1,0-0.3-0.1-0.3-0.2c0-0.2,0.3-0.2,0.4-0.2
						c0.3,0,0.7,0,1,0c0.1,0,0.3,0,0.3,0l0.2,0c0.2,0,0.6,0,0.8,0c0.3,0,0.3,0.1,0.3,0.2c0,0.1-0.1,0.2-0.3,0.2
						c-0.2,0-0.4,0-0.6,0.1c-0.1,0.1-0.3,0.2-0.7,1.1c-0.1,0.4-0.8,1.9-1.5,3.5l-0.7,1.6c-0.5,1.1-0.8,1.9-1,2.4l-0.1,0.2
						C81.3,119.5,81.3,119.6,81.1,119.6z"/>
					<path class="st6" d="M86.1,109.6c0.1,0,0.2,0,0.2,0.1c0,0.1,0,0.1-0.1,0.1c-0.1,0-0.4,0-0.6,0.2c-0.2,0.1-0.4,0.3-0.7,1.2
						c-0.1,0.4-0.8,1.9-1.5,3.5c-0.8,1.9-1.4,3.3-1.7,3.9c-0.4,0.8-0.4,1-0.6,1c-0.1,0-0.2-0.2-0.5-0.8l-3.2-7.9
						c-0.3-0.7-0.5-0.9-0.9-1c-0.2,0-0.4,0-0.5,0c-0.1,0-0.1-0.1-0.1-0.1c0-0.1,0.1-0.1,0.3-0.1c0.6,0,1.4,0,1.5,0
						c0.1,0,0.7,0,1.2,0c0.2,0,0.4,0,0.4,0.1c0,0.1,0,0.1-0.1,0.1c-0.1,0-0.4,0-0.5,0.1c-0.1,0.1-0.1,0.1-0.1,0.2
						c0,0.2,0.2,0.6,0.4,1.1l2.5,6.5c0.8-1.7,2.5-6.1,2.8-7.1c0.1-0.2,0.1-0.4,0.1-0.5s0-0.2-0.2-0.3c-0.1,0-0.3,0-0.4,0
						c-0.1,0-0.1,0-0.1-0.1c0-0.1,0.1-0.1,0.3-0.1c0.5,0,1.1,0,1.3,0C85.1,109.6,85.7,109.6,86.1,109.6 M86.1,109.4
						c-0.3,0-0.6,0-0.8,0c-0.1,0-0.2,0-0.2,0c-0.1,0-0.2,0-0.3,0c-0.3,0-0.6,0-1,0c-0.1,0-0.5,0-0.5,0.3c0,0.2,0.2,0.3,0.4,0.3
						c0.1,0,0.3,0,0.4,0c0,0,0,0,0,0.1c0,0.1,0,0.2-0.1,0.3l0,0.1c-0.2,0.8-1.7,4.5-2.5,6.5l-2.3-6l-0.1-0.3
						c-0.1-0.3-0.2-0.6-0.2-0.7c0.1-0.1,0.2-0.1,0.4-0.1c0.2,0,0.4-0.1,0.4-0.3c0-0.3-0.4-0.3-0.6-0.3c-0.3,0-0.7,0-1,0
						c-0.1,0-0.2,0-0.3,0c-0.1,0-0.2,0-0.3,0c-0.3,0-0.8,0-1.2,0c-0.2,0-0.6,0-0.6,0.3c0,0.2,0.1,0.3,0.3,0.3c0.1,0,0.3,0,0.5,0
						c0.3,0.1,0.5,0.1,0.8,0.8l3.2,7.9c0.2,0.6,0.4,0.9,0.7,0.9c0.3,0,0.3-0.2,0.7-0.9l0.1-0.2c0.2-0.4,0.5-1.2,1-2.4l0.7-1.6
						c0.7-1.6,1.3-3.1,1.5-3.5c0.3-0.9,0.5-1,0.7-1.1c0.1-0.1,0.3-0.1,0.5-0.1c0.2,0,0.4-0.2,0.4-0.3
						C86.5,109.6,86.5,109.4,86.1,109.4L86.1,109.4z"/>
				</g>
				<g>
					<path class="st2" d="M91.4,119.6c-1.2,0-2.2-0.3-2.8-0.9c-0.5-0.5-1.2-1.4-1.2-3.5v-1.9c0-2,0-2.4,0-2.8c0-0.4-0.1-0.6-0.4-0.6
						c-0.1,0-0.3,0-0.4,0c-0.1,0-0.2-0.1-0.2-0.2c0-0.1,0.1-0.2,0.3-0.2c0.4,0,0.9,0,1.2,0l0.3,0c0,0,0.2,0,0.3,0c0.3,0,0.7,0,1,0
						c0.2,0,0.3,0.1,0.3,0.2c0,0.1-0.1,0.2-0.2,0.2c-0.1,0-0.2,0-0.3,0c-0.3,0-0.3,0.2-0.4,0.6c0,0.4,0,0.8,0,2.8v1.8
						c0,2,0.4,2.6,0.9,3.1c0.6,0.6,1.1,0.7,1.9,0.7c0.8,0,1.5-0.3,1.9-0.9c0.6-0.8,0.7-1.9,0.7-3.1v-1.6c0-1.9,0-2.3,0-2.7
						c0-0.4-0.1-0.6-0.4-0.7c-0.1,0-0.3,0-0.4,0c-0.1,0-0.2-0.1-0.2-0.2c0-0.1,0.1-0.2,0.3-0.2c0.4,0,1,0,1.2,0l0.2,0l0.2,0
						c0.2,0,0.6,0,0.9,0c0.1,0,0.3,0,0.3,0.2c0,0.1-0.1,0.2-0.2,0.2c-0.1,0-0.2,0-0.3,0c-0.3,0.1-0.3,0.2-0.4,0.6c0,0.3,0,0.5,0,1.3
						l0,2.8c0,1.3-0.1,3-1.3,4C93.2,119.5,92.2,119.6,91.4,119.6z"/>
					<path class="st6" d="M96.1,109.6c0.1,0,0.2,0,0.2,0.1c0,0,0,0.1-0.1,0.1c-0.1,0-0.2,0-0.3,0c-0.4,0.1-0.4,0.3-0.5,0.7
						c0,0.4,0,0.8,0,2.8v1.4c0,1.4-0.2,3-1.2,3.9c-1,0.8-2,0.9-2.7,0.9c-0.4,0-1.8,0-2.7-0.9c-0.6-0.6-1.1-1.5-1.1-3.4v-1.9
						c0-2,0-2.4,0-2.8c0-0.4-0.1-0.7-0.5-0.7c-0.1,0-0.3,0-0.4,0c0,0-0.1-0.1-0.1-0.1c0-0.1,0.1-0.1,0.2-0.1c0.6,0,1.4,0,1.5,0
						s0.9,0,1.3,0c0.1,0,0.2,0,0.2,0.1c0,0-0.1,0.1-0.1,0.1c-0.1,0-0.2,0-0.3,0c-0.3,0.1-0.4,0.3-0.4,0.7c0,0.4,0,0.8,0,2.8v1.8
						c0,1.9,0.4,2.6,1,3.2c0.6,0.6,1.2,0.7,2,0.7c0.8,0,1.6-0.4,2-0.9c0.6-0.7,0.7-1.8,0.7-3.1v-1.6c0-2,0-2.4,0-2.8
						c0-0.4-0.1-0.7-0.5-0.7c-0.1,0-0.3,0-0.4,0c-0.1,0-0.1-0.1-0.1-0.1c0-0.1,0.1-0.1,0.2-0.1c0.6,0,1.3,0,1.4,0
						C95.1,109.6,95.7,109.6,96.1,109.6 M96.1,109.4c-0.3,0-0.6,0-0.9,0c-0.1,0-0.2,0-0.2,0c0,0-0.1,0-0.2,0c-0.3,0-0.8,0-1.2,0
						c-0.4,0-0.4,0.2-0.4,0.3c0,0.2,0.1,0.3,0.3,0.3c0.1,0,0.3,0,0.4,0c0.3,0,0.3,0.1,0.3,0.5c0,0.4,0,0.8,0,2.8v1.6
						c0,1.1-0.1,2.2-0.7,3c-0.4,0.5-1.1,0.8-1.9,0.8c-0.7,0-1.2-0.1-1.8-0.6c-0.5-0.4-0.9-1.1-0.9-3v-1.8c0-2,0-2.4,0-2.8
						c0-0.5,0.1-0.5,0.3-0.5c0.1,0,0.2,0,0.3,0c0.2,0,0.3-0.2,0.3-0.3c0-0.1,0-0.3-0.4-0.3c-0.3,0-0.7,0-1,0c-0.2,0-0.3,0-0.3,0
						c0,0-0.1,0-0.3,0c-0.3,0-0.8,0-1.2,0c-0.4,0-0.4,0.2-0.4,0.3c0,0.2,0.2,0.3,0.3,0.3c0.1,0,0.3,0,0.4,0c0.3,0,0.3,0.1,0.4,0.5
						c0,0.4,0,0.8,0,2.8v1.9c0,2.1,0.6,3,1.2,3.5c0.7,0.6,1.7,1,2.9,1c0.8,0,1.9-0.1,2.9-1c1.1-1,1.3-2.7,1.3-4v-1.4l0-1.4
						c0-0.8,0-1.1,0-1.3c0-0.4,0.1-0.5,0.3-0.5c0.1,0,0.2,0,0.3,0c0.2,0,0.3-0.2,0.3-0.3C96.5,109.6,96.5,109.4,96.1,109.4
						L96.1,109.4z"/>
				</g>
				<g>
					<path class="st2" d="M106.8,119.4c-0.4,0-0.6,0-0.9,0c-0.7-0.1-1-0.3-1.6-0.8c-0.6-0.5-3.1-3.2-3.9-4.1v1c0,1.3,0,2.3,0.1,2.8
						c0,0.4,0.1,0.5,0.4,0.6c0.2,0,0.4,0.1,0.5,0.1c0.1,0,0.2,0.1,0.2,0.2c0,0.1,0,0.2-0.3,0.2c-0.5,0-1,0-1.3,0c-0.1,0-0.2,0-0.2,0
						c0,0-0.1,0-0.3,0c-0.3,0-0.7,0-1,0c-0.3,0-0.3-0.1-0.3-0.2c0-0.1,0.1-0.2,0.2-0.2c0.1,0,0.3,0,0.4-0.1c0.2,0,0.2-0.2,0.3-0.6
						c0.1-0.6,0.1-1.6,0.1-2.8v-2.3c0-2,0-2.4,0-2.8c0-0.4-0.1-0.6-0.4-0.6c-0.1,0-0.3,0-0.4,0c-0.1,0-0.2-0.1-0.2-0.2
						c0-0.1,0.1-0.2,0.3-0.2c0.4,0,1,0,1.3,0l0.2,0l0.3,0c0.3,0,0.7,0,1,0c0.2,0,0.3,0.1,0.3,0.2c0,0.1-0.1,0.2-0.2,0.2
						c-0.1,0-0.2,0-0.3,0c-0.3,0.1-0.3,0.2-0.4,0.6c0,0.4,0,0.8,0,2.8v0.6c0.3-0.3,0.9-1,1.6-1.6c0.6-0.6,1.1-1.1,1.3-1.4
						c0.4-0.4,0.7-0.7,0.7-0.9c0-0.1,0-0.1-0.1-0.2c-0.1,0-0.2-0.1-0.2-0.2c0-0.1,0.1-0.2,0.3-0.2c0.1,0,0.3,0,0.5,0
						c0.2,0,0.4,0,0.5,0l0.3,0c0.3,0,0.8,0,1,0c0.2,0,0.3,0.1,0.3,0.2c0,0.1,0,0.2-0.2,0.2c-0.2,0-0.4,0.1-0.7,0.2
						c-0.4,0.2-0.7,0.4-1.1,0.9l-0.2,0.2c-0.3,0.3-2.3,2.2-2.8,2.7c0.5,0.6,3,3.1,3.5,3.6l0.3,0.3c0.9,0.8,1,0.9,1.6,1.2
						c0.3,0.1,0.7,0.2,0.8,0.2c0.2,0,0.3,0.1,0.3,0.2c0,0.2-0.3,0.2-0.4,0.2H106.8z"/>
					<path class="st6" d="M106.2,109.6c0.1,0,0.2,0,0.2,0.1c0,0.1,0,0.1-0.1,0.1c-0.2,0-0.5,0.1-0.7,0.2c-0.5,0.2-0.8,0.5-1.4,1.1
						c-0.3,0.3-2.6,2.5-2.8,2.8c0.3,0.4,3.1,3.2,3.6,3.7c1.1,1,1.3,1.2,1.9,1.4c0.3,0.1,0.7,0.2,0.8,0.2c0.1,0,0.2,0,0.2,0.1
						c0,0.1-0.1,0.1-0.3,0.1h-0.7c-0.4,0-0.6,0-0.9,0c-0.7-0.1-1-0.3-1.6-0.8c-0.6-0.5-3.3-3.4-4-4.2h-0.1v1.3c0,1.2,0,2.3,0.1,2.8
						c0,0.4,0.1,0.6,0.5,0.7c0.2,0,0.4,0.1,0.5,0.1c0.1,0,0.1,0.1,0.1,0.1c0,0.1-0.1,0.1-0.2,0.1c-0.6,0-1.4,0-1.5,0
						c-0.1,0-0.9,0-1.3,0c-0.1,0-0.2,0-0.2-0.1c0,0,0-0.1,0.1-0.1c0.1,0,0.3,0,0.4-0.1c0.3-0.1,0.3-0.3,0.3-0.7
						c0.1-0.5,0.1-1.5,0.1-2.8v-2.3c0-2,0-2.4,0-2.8c0-0.4-0.1-0.7-0.5-0.7c-0.1,0-0.3,0-0.4,0c0,0-0.1-0.1-0.1-0.1
						c0-0.1,0.1-0.1,0.2-0.1c0.6,0,1.4,0,1.5,0c0.1,0,0.9,0,1.3,0c0.1,0,0.2,0,0.2,0.1c0,0,0,0.1-0.1,0.1c-0.1,0-0.2,0-0.3,0
						c-0.3,0.1-0.4,0.3-0.5,0.7c0,0.4,0,0.8,0,2.8v0.8h0.1c0.2-0.2,2.5-2.6,3-3.1c0.4-0.4,0.7-0.7,0.7-0.9c0-0.2-0.1-0.2-0.2-0.3
						c-0.1,0-0.1-0.1-0.1-0.1c0-0.1,0.1-0.1,0.1-0.1c0.3,0,0.7,0,1,0C105,109.6,105.9,109.6,106.2,109.6 M106.2,109.4
						c-0.2,0-0.7,0-1,0c-0.1,0-0.2,0-0.3,0c-0.2,0-0.3,0-0.5,0c-0.2,0-0.3,0-0.5,0c-0.3,0-0.4,0.2-0.4,0.3c0,0.2,0.1,0.3,0.3,0.3
						c0,0,0,0,0,0c0,0.1-0.4,0.5-0.6,0.7l-0.1,0.1c-0.2,0.2-0.8,0.8-1.3,1.3c-0.5,0.5-1.1,1.1-1.4,1.4v-0.3c0-2,0-2.4,0-2.8
						c0-0.4,0.1-0.5,0.3-0.5c0.1,0,0.2,0,0.3,0c0.2,0,0.3-0.2,0.3-0.3c0-0.1,0-0.3-0.4-0.3c-0.3,0-0.7,0-1,0c-0.2,0-0.3,0-0.3,0
						c0,0-0.1,0-0.2,0c-0.3,0-0.8,0-1.3,0c-0.4,0-0.4,0.2-0.4,0.3c0,0.2,0.2,0.3,0.3,0.3c0.1,0,0.3,0,0.4,0c0.3,0,0.3,0.1,0.4,0.5
						c0,0.4,0,0.8,0,2.8v2.3c0,1.2,0,2.2-0.1,2.8c-0.1,0.4-0.1,0.5-0.2,0.5c-0.1,0-0.3,0.1-0.4,0.1c-0.2,0-0.3,0.2-0.3,0.3
						c0,0.1,0,0.3,0.4,0.3c0.3,0,0.7,0,1,0c0.1,0,0.3,0,0.3,0c0,0,0.1,0,0.2,0c0.3,0,0.8,0,1.3,0c0.4,0,0.4-0.3,0.4-0.3
						c0-0.2-0.1-0.3-0.3-0.3c0,0-0.2,0-0.5-0.1c-0.2,0-0.3-0.1-0.3-0.5c-0.1-0.5-0.1-1.6-0.1-2.8v-0.7c1,1.1,3.1,3.4,3.7,3.8
						l0.1,0.1c0.5,0.4,0.9,0.7,1.6,0.8c0.3,0,0.6,0,0.9,0h0.7c0.4,0,0.5-0.2,0.5-0.3c0-0.2-0.2-0.3-0.4-0.3c-0.1,0-0.4,0-0.7-0.2
						c-0.5-0.2-0.7-0.4-1.5-1.1l-0.3-0.3c-0.5-0.5-2.8-2.8-3.5-3.5c0.6-0.6,2.4-2.4,2.7-2.7l0.2-0.2c0.4-0.4,0.7-0.7,1.1-0.9
						c0.2-0.1,0.5-0.2,0.6-0.2c0.2,0,0.4-0.2,0.4-0.3C106.6,109.6,106.6,109.4,106.2,109.4L106.2,109.4z"/>
				</g>
				<g>
					<path class="st2" d="M116.3,119.4c-0.2,0-1.2,0-2.1,0l-0.1,0c-0.3,0-0.5,0-0.5-0.2v-0.1l0.1-0.1c0.1,0,0.1,0,0.1-0.1
						s0-0.1,0-0.1l-1.2-3l-3,0l-0.8,2.1c-0.1,0.3-0.2,0.6-0.2,0.8c0,0.2,0.2,0.2,0.3,0.2h0.1c0.2,0,0.2,0.1,0.2,0.2
						c0,0.1,0,0.2-0.3,0.2c-0.2,0-0.5,0-0.8,0c-0.2,0-0.3,0-0.4,0c0,0-0.1,0-0.3,0c-0.3,0-0.7,0-1,0c-0.2,0-0.4-0.1-0.4-0.2
						c0-0.1,0.1-0.2,0.2-0.2c0.1,0,0.3,0,0.4,0c0.5-0.1,0.8-0.4,1-1.1l3.1-8.1c0.2-0.4,0.2-0.6,0.4-0.6c0.2,0,0.2,0.2,0.3,0.4
						l0.1,0.2c0.1,0.3,0.7,1.7,1.3,3.2c0.7,1.7,1.4,3.6,1.8,4.6c0.5,1.2,0.8,1.3,1,1.4c0.2,0.1,0.4,0.1,0.5,0.1
						c0.2,0,0.3,0.1,0.3,0.2C116.7,119.3,116.6,119.4,116.3,119.4z M109.9,115.1l2.6-0.1l-1.4-3.5l0,0L109.9,115.1z"/>
					<path class="st6" d="M111.3,109.3c0.1,0,0.2,0.2,0.3,0.5c0.2,0.5,2.3,5.9,3.1,7.8c0.5,1.2,0.8,1.3,1.1,1.4
						c0.2,0.1,0.4,0.1,0.5,0.1c0.1,0,0.2,0,0.2,0.1s-0.1,0.1-0.3,0.1c-0.2,0-1.2,0-2.1,0c-0.3,0-0.5,0-0.5-0.1c0-0.1,0-0.1,0.1-0.1
						c0.1,0,0.2-0.1,0.1-0.3l-1.2-3c0-0.1,0-0.1-0.1-0.1h-3c-0.1,0-0.1,0-0.1,0.1l-0.7,2.1c-0.1,0.3-0.2,0.6-0.2,0.9
						c0,0.3,0.2,0.3,0.4,0.3h0.1c0.1,0,0.1,0,0.1,0.1c0,0.1-0.1,0.1-0.2,0.1c-0.3,0-1,0-1.2,0c-0.1,0-0.8,0-1.3,0
						c-0.2,0-0.3,0-0.3-0.1c0-0.1,0.1-0.1,0.1-0.1c0.1,0,0.3,0,0.4,0c0.6-0.1,0.8-0.5,1.1-1.2l3.1-8.1
						C111.2,109.4,111.2,109.3,111.3,109.3 M109.8,115.2h2.7c0.1,0,0.1,0,0-0.1l-1.3-3.5c0-0.1-0.1-0.1-0.1-0.1c0,0-0.1,0-0.1,0.1
						L109.8,115.2C109.8,115.2,109.8,115.2,109.8,115.2 M111.3,109.1c-0.3,0-0.4,0.3-0.5,0.6l-3.1,8.1c-0.3,0.6-0.5,1-0.9,1
						c-0.1,0-0.3,0-0.4,0c-0.2,0-0.3,0.1-0.3,0.3c0,0.1,0.1,0.3,0.5,0.3c0.4,0,0.8,0,1.1,0c0.1,0,0.2,0,0.3,0c0.1,0,0.2,0,0.4,0
						c0.3,0,0.6,0,0.8,0c0.4,0,0.4-0.3,0.4-0.3c0-0.2-0.1-0.3-0.4-0.3H109c-0.2,0-0.2,0-0.2-0.1c0-0.2,0.1-0.5,0.2-0.8l0.7-2h2.9
						l1.2,2.9c0,0.1,0,0.1,0,0.1c-0.1,0-0.2,0.1-0.2,0.3c0,0.3,0.3,0.3,0.6,0.3l0.1,0c0.6,0,1.3,0,2.1,0c0.5,0,0.5-0.2,0.5-0.3
						c0-0.2-0.2-0.3-0.4-0.3c-0.1,0-0.3,0-0.5-0.1c-0.2-0.1-0.5-0.2-1-1.3c-0.4-1-1.2-2.9-1.9-4.6c-0.6-1.6-1.2-2.9-1.3-3.2
						l-0.1-0.2C111.7,109.3,111.6,109.1,111.3,109.1L111.3,109.1z M110,115l1.1-3.1l1.1,3.1H110L110,115z"/>
				</g>
				<g>
					<path class="st2" d="M122.2,119.4c-0.5,0-1.2,0-1.4,0l-0.2,0l-0.2,0c-0.3,0-0.9,0-1.1,0c-0.1,0-0.3,0-0.3-0.2
						c0-0.1,0.1-0.2,0.2-0.2c0.1,0,0.2,0,0.4-0.1c0.2,0,0.3-0.2,0.3-0.6c0.1-0.5,0.1-1.5,0.1-2.8v-5.3l-1.8,0
						c-0.8,0-1.1,0.1-1.2,0.4c-0.1,0.2-0.1,0.2-0.2,0.3c-0.1,0.2-0.1,0.3-0.3,0.3c-0.1,0-0.2-0.1-0.2-0.2c0-0.1,0.1-0.5,0.2-1
						c0-0.2,0.1-0.4,0.1-0.4c0.1-0.2,0.1-0.3,0.2-0.3c0.1,0,0.1,0,0.2,0c0.1,0,0.2,0.1,0.4,0.1c0.4,0,0.9,0.1,1,0.1h4.9
						c0.3,0,0.6,0,0.9-0.1l0.2,0c0.1,0,0.1,0,0.2,0c0.2,0,0.2,0.2,0.2,0.3c0,0.2,0,0.7,0,1c0,0.2,0,0.4,0,0.4c0,0.2-0.1,0.3-0.2,0.3
						c-0.2,0-0.2-0.2-0.2-0.3l0-0.1c0-0.3-0.2-0.6-1.5-0.6l-1.5,0v5.3c0,1.3,0,2.3,0.1,2.8c0,0.4,0.1,0.5,0.4,0.6
						c0.2,0,0.5,0.1,0.6,0.1c0.1,0,0.2,0.1,0.2,0.2C122.5,119.3,122.5,119.4,122.2,119.4z"/>
					<path class="st6" d="M116.7,109.4c0.1,0,0.2,0.1,0.6,0.2c0.4,0,0.9,0.1,1,0.1h4.9c0.4,0,0.7,0,0.9-0.1c0.2,0,0.3-0.1,0.4-0.1
						c0.1,0,0.1,0.1,0.1,0.2c0,0.4,0,1.3,0,1.5c0,0.1-0.1,0.2-0.1,0.2c-0.1,0-0.1,0-0.1-0.2l0-0.1c0-0.4-0.3-0.7-1.6-0.7l-1.6,0v5.4
						c0,1.2,0,2.3,0.1,2.8c0,0.4,0.1,0.6,0.5,0.7c0.2,0,0.5,0.1,0.6,0.1c0.1,0,0.1,0.1,0.1,0.1c0,0.1-0.1,0.1-0.2,0.1
						c-0.7,0-1.5,0-1.6,0c-0.1,0-1,0-1.4,0c-0.1,0-0.2,0-0.2-0.1c0,0,0-0.1,0.1-0.1c0.1,0,0.3,0,0.4-0.1c0.3-0.1,0.3-0.3,0.4-0.7
						c0.1-0.5,0.1-1.5,0.1-2.8v-5.4l-1.9,0c-0.8,0-1.1,0.1-1.3,0.4c-0.1,0.2-0.2,0.3-0.2,0.4c0,0.1-0.1,0.1-0.1,0.1
						c0,0-0.1,0-0.1-0.1c0-0.1,0.3-1.3,0.3-1.4C116.6,109.6,116.7,109.4,116.7,109.4 M116.7,109.2c-0.2,0-0.3,0.2-0.3,0.4l0,0l0,0
						c0,0,0,0.2-0.1,0.4c-0.1,0.6-0.2,0.9-0.2,1c0,0.2,0.2,0.3,0.3,0.3c0.1,0,0.3,0,0.3-0.3c0,0,0,0,0,0c0,0,0,0,0-0.1
						c0-0.1,0.1-0.1,0.2-0.3c0.1-0.2,0.3-0.3,1.1-0.3l1.7,0v5.2c0,1.2,0,2.3-0.1,2.8c0,0.4-0.1,0.5-0.2,0.5c-0.1,0-0.3,0.1-0.3,0.1
						c-0.2,0-0.3,0.1-0.3,0.3c0,0.1,0,0.3,0.4,0.3c0.3,0,0.8,0,1.1,0c0.1,0,0.2,0,0.2,0c0,0,0.1,0,0.2,0c0.3,0,0.9,0,1.5,0
						c0.4,0,0.4-0.3,0.4-0.3c0-0.2-0.1-0.3-0.3-0.3c-0.1,0-0.4,0-0.6-0.1c-0.2,0-0.3-0.1-0.3-0.5c-0.1-0.5-0.1-1.6-0.1-2.8v-5.2
						l1.4,0c1.3,0,1.3,0.4,1.4,0.5l0,0.1c0,0.1,0,0.4,0.3,0.4c0.2,0,0.3-0.1,0.3-0.4c0-0.1,0-0.2,0-0.4c0-0.3,0-0.8,0-1
						c0-0.3-0.2-0.4-0.3-0.4c0,0-0.1,0-0.2,0c-0.1,0-0.1,0-0.2,0c-0.3,0-0.6,0.1-0.9,0.1h-4.9c-0.1,0-0.6,0-1-0.1
						c-0.2,0-0.3-0.1-0.4-0.1C116.9,109.2,116.8,109.2,116.7,109.2L116.7,109.2z"/>
				</g>
				<g>
					<path class="st2" d="M131.7,119.5c-0.9,0-1.7,0-2.3,0l-0.4,0c-0.4,0-0.7,0-1,0l0,0c-0.1,0-0.3,0-0.5,0c-0.3,0-0.6,0-0.8,0
						c-0.3,0-0.3-0.1-0.3-0.2c0-0.1,0.1-0.2,0.2-0.2c0.1,0,0.3,0,0.4-0.1c0.2,0,0.2-0.2,0.3-0.6c0.1-0.6,0.1-1.6,0.1-2.8v-2.3
						c0-2,0-2.4,0-2.8c0-0.4-0.1-0.6-0.4-0.6c-0.1,0-0.3,0-0.4,0c-0.1,0-0.2-0.1-0.2-0.2c0-0.2,0.2-0.2,0.3-0.2c0.4,0,1,0,1.3,0
						l0.2,0l0.2,0c0.3,0,0.9,0,1.2,0c0.3,0,0.3,0.1,0.3,0.2c0,0.1-0.1,0.2-0.2,0.2c-0.1,0-0.3,0-0.4,0c-0.3,0.1-0.4,0.2-0.4,0.6
						c0,0.4,0,0.8,0,2.8v2.3c0,1.6,0,2.6,0.2,2.8c0.2,0.2,0.7,0.3,1.7,0.3c0.7,0,1.2,0,1.5-0.4c0.1-0.2,0.2-0.4,0.3-0.7
						c0-0.2,0.1-0.3,0.2-0.3c0.1,0,0.2,0.1,0.2,0.3c0,0.1-0.1,0.9-0.2,1.3C132.5,119.4,132.4,119.5,131.7,119.5z"/>
					<path class="st6" d="M129.4,109.6c0.1,0,0.2,0,0.2,0.1c0,0-0.1,0.1-0.1,0.1c-0.1,0-0.3,0-0.4,0c-0.4,0.1-0.5,0.3-0.5,0.7
						c0,0.4,0,0.8,0,2.8v2.3c0,1.9,0,2.7,0.3,2.9c0.2,0.2,0.7,0.3,1.7,0.3c0.7,0,1.3,0,1.6-0.4c0.2-0.2,0.3-0.5,0.3-0.7
						c0-0.1,0.1-0.2,0.1-0.2c0.1,0,0.1,0.1,0.1,0.2c0,0.1-0.1,0.9-0.2,1.3c-0.1,0.3-0.1,0.3-0.8,0.3c-0.9,0-1.7,0-2.3,0
						c-0.6,0-1,0-1.4,0c-0.1,0-0.3,0-0.5,0c-0.3,0-0.6,0-0.8,0c-0.1,0-0.2,0-0.2-0.1c0,0,0-0.1,0.1-0.1c0.1,0,0.3,0,0.4-0.1
						c0.3-0.1,0.3-0.3,0.3-0.7c0.1-0.5,0.1-1.5,0.1-2.8v-2.3c0-2,0-2.4,0-2.8c0-0.4-0.1-0.7-0.5-0.7c-0.1,0-0.3,0-0.4,0
						c0,0-0.1-0.1-0.1-0.1c0-0.1,0.1-0.1,0.2-0.1c0.6,0,1.4,0,1.5,0C128,109.6,129,109.6,129.4,109.6 M129.4,109.4
						c-0.3,0-0.9,0-1.2,0c-0.1,0-0.2,0-0.2,0c0,0-0.1,0-0.2,0c-0.3,0-0.9,0-1.3,0c-0.4,0-0.4,0.2-0.4,0.3c0,0.2,0.2,0.3,0.3,0.3
						c0.1,0,0.3,0,0.4,0c0.3,0,0.3,0.1,0.4,0.5c0,0.4,0,0.8,0,2.8v2.3c0,1.2,0,2.2-0.1,2.8c-0.1,0.4-0.1,0.5-0.2,0.5
						c-0.1,0-0.3,0.1-0.4,0.1c-0.2,0-0.3,0.2-0.3,0.3c0,0.1,0,0.3,0.4,0.3c0.2,0,0.5,0,0.8,0c0.3,0,0.5,0,0.5,0c0.3,0,0.6,0,1,0
						l0.4,0c0.6,0,1.4,0,2.3,0c0.7,0,0.9,0,1-0.5c0.1-0.4,0.2-1.2,0.2-1.4c0-0.4-0.2-0.4-0.3-0.4c-0.2,0-0.3,0.1-0.3,0.3
						c0,0.2-0.1,0.5-0.3,0.6c-0.2,0.3-0.7,0.3-1.4,0.3c-0.6,0-1.4,0-1.6-0.2c-0.2-0.2-0.2-1.3-0.2-2.7v-2.3c0-2,0-2.4,0-2.8
						c0-0.4,0.1-0.5,0.3-0.5c0.1,0,0.3,0,0.4,0c0.2,0,0.3-0.1,0.3-0.3C129.8,109.6,129.8,109.4,129.4,109.4L129.4,109.4z"/>
				</g>
				<g>
					<path class="st2" d="M137.6,119.4c-0.6,0-1.2,0-1.5,0l-0.1,0c0,0-0.1,0-0.2,0c-0.3,0-0.8,0-1.1,0c-0.3,0-0.3-0.1-0.3-0.2
						c0-0.1,0.1-0.2,0.2-0.2c0.1,0,0.3,0,0.4-0.1c0.2,0,0.2-0.2,0.3-0.6c0.1-0.6,0.1-1.7,0.1-2.8v-2.3c0-2,0-2.4,0-2.8
						c0-0.5-0.1-0.6-0.3-0.6c-0.1,0-0.3,0-0.4,0c-0.1,0-0.2-0.1-0.2-0.2c0-0.1,0.1-0.2,0.3-0.2c0.3,0,0.8,0,1.1,0l0.2,0l0.2,0
						c0.3,0,0.8,0,1.1,0c0.2,0,0.3,0.1,0.3,0.2c0,0.1-0.1,0.2-0.2,0.2c0,0,0,0,0,0c-0.1,0-0.2,0-0.3,0c-0.3,0.1-0.3,0.2-0.4,0.6
						c0,0.4,0,0.8,0,2.8v2.3c0,1.3,0,2.3,0.1,2.8c0,0.4,0.1,0.5,0.4,0.6c0.2,0,0.5,0.1,0.6,0.1c0.1,0,0.2,0.1,0.2,0.2
						C137.9,119.3,137.8,119.4,137.6,119.4z"/>
					<path class="st6" d="M137.2,109.6c0.1,0,0.2,0,0.2,0.1c0,0-0.1,0.1-0.1,0.1c-0.1,0-0.2,0-0.3,0c-0.4,0.1-0.4,0.3-0.5,0.7
						c0,0.4,0,0.8,0,2.8v2.3c0,1.2,0,2.3,0.1,2.8c0,0.4,0.1,0.6,0.5,0.7c0.2,0,0.5,0.1,0.6,0.1c0.1,0,0.1,0.1,0.1,0.1
						c0,0.1-0.1,0.1-0.2,0.1c-0.7,0-1.6,0-1.6,0c-0.1,0-0.9,0-1.3,0c-0.1,0-0.2,0-0.2-0.1c0,0,0-0.1,0.1-0.1c0.1,0,0.3,0,0.4-0.1
						c0.3-0.1,0.3-0.3,0.3-0.7c0.1-0.5,0.1-1.5,0.1-2.8v-2.3c0-2,0-2.4,0-2.8c0-0.4-0.1-0.6-0.4-0.7c-0.1,0-0.3,0-0.4,0
						c-0.1,0-0.1-0.1-0.1-0.1c0-0.1,0.1-0.1,0.2-0.1c0.4,0,1.3,0,1.3,0C136,109.6,136.8,109.6,137.2,109.6 M137.2,109.4
						c-0.3,0-0.8,0-1.1,0c-0.1,0-0.2,0-0.2,0c0,0-0.1,0-0.2,0c-0.3,0-0.8,0-1.1,0c-0.4,0-0.4,0.2-0.4,0.3c0,0.2,0.1,0.3,0.3,0.3
						c0.1,0,0.2,0,0.4,0c0.1,0,0.2,0,0.2,0.5c0,0.4,0,0.8,0,2.8v2.3c0,1,0,2.2-0.1,2.8c0,0.4-0.1,0.5-0.2,0.5
						c-0.1,0-0.3,0.1-0.4,0.1c-0.2,0-0.3,0.2-0.3,0.3c0,0.1,0,0.3,0.4,0.3c0.3,0,0.8,0,1.1,0c0.1,0,0.2,0,0.2,0l0.1,0
						c0.3,0,0.9,0,1.5,0c0.4,0,0.4-0.3,0.4-0.3c0-0.2-0.1-0.3-0.3-0.3c-0.1,0-0.4,0-0.6-0.1c-0.2,0-0.2-0.1-0.3-0.5
						c-0.1-0.5-0.1-1.6-0.1-2.8v-2.3c0-2,0-2.4,0-2.8c0-0.4,0.1-0.5,0.3-0.5c0.1,0,0.2,0,0.3,0c0,0,0,0,0,0c0.2,0,0.3-0.2,0.3-0.3
						C137.6,109.6,137.6,109.4,137.2,109.4L137.2,109.4z"/>
				</g>
				<g>
					<path class="st2" d="M148.8,119.4c-0.4,0-0.6,0-0.9,0c-0.7-0.1-1-0.3-1.6-0.8c-0.6-0.5-3.1-3.2-3.9-4.1v1c0,1.3,0,2.3,0.1,2.8
						c0,0.4,0.1,0.5,0.4,0.6c0.2,0,0.4,0.1,0.5,0.1c0.1,0,0.2,0.1,0.2,0.2c0,0.1,0,0.2-0.3,0.2c-0.5,0-1,0-1.3,0c-0.1,0-0.2,0-0.2,0
						c0,0-0.1,0-0.3,0c-0.3,0-0.7,0-1,0c-0.3,0-0.3-0.1-0.3-0.2c0-0.1,0.1-0.2,0.2-0.2c0.1,0,0.3,0,0.4-0.1c0.2,0,0.2-0.2,0.3-0.6
						c0.1-0.6,0.1-1.6,0.1-2.8v-2.3c0-2,0-2.4,0-2.8c0-0.4-0.1-0.6-0.4-0.6c-0.1,0-0.3,0-0.4,0c-0.1,0-0.2-0.1-0.2-0.2
						c0-0.1,0.1-0.2,0.3-0.2c0.4,0,1,0,1.3,0l0.2,0c0,0,0.2,0,0.3,0c0.3,0,0.7,0,1,0c0.2,0,0.3,0.1,0.3,0.2c0,0.1-0.1,0.2-0.2,0.2
						c-0.1,0-0.2,0-0.3,0c-0.3,0.1-0.3,0.2-0.4,0.6c0,0.4,0,0.8,0,2.8v0.6c0.3-0.3,0.9-0.9,1.6-1.6c0.6-0.6,1.1-1.1,1.3-1.4
						c0.4-0.4,0.7-0.7,0.7-0.9c0-0.1,0-0.1-0.1-0.2c-0.1,0-0.2-0.1-0.2-0.2c0-0.1,0.1-0.2,0.3-0.2c0.1,0,0.3,0,0.5,0
						c0.2,0,0.4,0,0.5,0l0.3,0c0.3,0,0.8,0,1,0c0.2,0,0.3,0.1,0.3,0.2c0,0.1,0,0.2-0.2,0.2c-0.2,0-0.4,0.1-0.7,0.2
						c-0.4,0.2-0.7,0.4-1.1,0.9l-0.2,0.2c-0.3,0.3-2.3,2.2-2.8,2.7c0.5,0.6,3,3.1,3.5,3.6l0.3,0.3c0.9,0.8,1,0.9,1.6,1.2
						c0.3,0.1,0.7,0.2,0.8,0.2c0.2,0,0.3,0.1,0.3,0.2c0,0.2-0.3,0.2-0.4,0.2H148.8z"/>
					<path class="st6" d="M148.2,109.6c0.1,0,0.2,0,0.2,0.1c0,0.1,0,0.1-0.1,0.1c-0.2,0-0.5,0.1-0.7,0.2c-0.5,0.2-0.8,0.5-1.4,1.1
						c-0.3,0.3-2.6,2.5-2.8,2.8c0.3,0.4,3.1,3.2,3.6,3.7c1.1,1,1.3,1.2,1.9,1.4c0.3,0.1,0.7,0.2,0.8,0.2c0.1,0,0.2,0,0.2,0.1
						c0,0.1-0.1,0.1-0.3,0.1h-0.7c-0.4,0-0.6,0-0.9,0c-0.7-0.1-1-0.3-1.6-0.8c-0.6-0.5-3.3-3.4-4-4.2h-0.1v1.3c0,1.2,0,2.3,0.1,2.8
						c0,0.4,0.1,0.6,0.5,0.7c0.2,0,0.4,0.1,0.5,0.1c0.1,0,0.1,0.1,0.1,0.1c0,0.1-0.1,0.1-0.2,0.1c-0.6,0-1.4,0-1.5,0
						c-0.1,0-0.9,0-1.3,0c-0.1,0-0.2,0-0.2-0.1c0,0,0-0.1,0.1-0.1c0.1,0,0.3,0,0.4-0.1c0.3-0.1,0.3-0.3,0.3-0.7
						c0.1-0.5,0.1-1.5,0.1-2.8v-2.3c0-2,0-2.4,0-2.8c0-0.4-0.1-0.7-0.5-0.7c-0.1,0-0.3,0-0.4,0c0,0-0.1-0.1-0.1-0.1
						c0-0.1,0.1-0.1,0.2-0.1c0.6,0,1.4,0,1.5,0c0.1,0,0.9,0,1.3,0c0.1,0,0.2,0,0.2,0.1c0,0,0,0.1-0.1,0.1c-0.1,0-0.2,0-0.3,0
						c-0.3,0.1-0.4,0.3-0.5,0.7c0,0.4,0,0.8,0,2.8v0.8h0.1c0.2-0.2,2.5-2.6,3-3.1c0.4-0.4,0.7-0.7,0.7-0.9c0-0.2-0.1-0.2-0.2-0.3
						c-0.1,0-0.1-0.1-0.1-0.1c0-0.1,0.1-0.1,0.1-0.1c0.3,0,0.7,0,1,0C147,109.6,147.9,109.6,148.2,109.6 M148.2,109.4
						c-0.2,0-0.7,0-1,0c-0.1,0-0.2,0-0.3,0c-0.2,0-0.3,0-0.5,0c-0.2,0-0.3,0-0.5,0c-0.3,0-0.4,0.2-0.4,0.3c0,0.2,0.1,0.3,0.3,0.3
						c0,0,0,0,0,0c0,0.1-0.4,0.5-0.6,0.7l-0.1,0.1c-0.2,0.2-0.8,0.8-1.3,1.3c-0.5,0.5-1.1,1.1-1.4,1.4v-0.3c0-2,0-2.4,0-2.8
						c0-0.4,0.1-0.5,0.3-0.5c0.1,0,0.2,0,0.3,0c0.2,0,0.3-0.2,0.3-0.3c0-0.1,0-0.3-0.4-0.3c-0.3,0-0.7,0-1,0c-0.2,0-0.3,0-0.3,0
						c0,0-0.1,0-0.2,0c-0.3,0-0.8,0-1.3,0c-0.4,0-0.4,0.2-0.4,0.3c0,0.2,0.2,0.3,0.3,0.3c0.1,0,0.3,0,0.4,0c0.3,0,0.3,0.1,0.4,0.5
						c0,0.4,0,0.8,0,2.8v2.3c0,1.2,0,2.2-0.1,2.8c-0.1,0.4-0.1,0.5-0.2,0.5c-0.1,0-0.3,0.1-0.4,0.1c-0.2,0-0.3,0.2-0.3,0.3
						c0,0.1,0,0.3,0.4,0.3c0.3,0,0.7,0,1,0c0.1,0,0.3,0,0.3,0c0,0,0.1,0,0.2,0c0.3,0,0.8,0,1.3,0c0.4,0,0.4-0.3,0.4-0.3
						c0-0.2-0.1-0.3-0.3-0.3c0,0-0.2,0-0.5-0.1c-0.2,0-0.3-0.1-0.3-0.5c-0.1-0.5-0.1-1.6-0.1-2.8v-0.7c1,1.1,3.1,3.4,3.7,3.8
						l0.1,0.1c0.5,0.4,0.9,0.7,1.6,0.8c0.3,0,0.6,0,0.9,0h0.7c0.4,0,0.5-0.2,0.5-0.3c0-0.2-0.2-0.3-0.4-0.3c-0.1,0-0.4,0-0.7-0.2
						c-0.5-0.2-0.7-0.4-1.5-1.1l-0.3-0.3c-0.5-0.5-2.8-2.8-3.5-3.5c0.6-0.6,2.4-2.4,2.7-2.7l0.2-0.2c0.4-0.4,0.7-0.7,1.1-0.9
						c0.2-0.1,0.5-0.2,0.6-0.2c0.2,0,0.4-0.2,0.4-0.3C148.6,109.6,148.6,109.4,148.2,109.4L148.2,109.4z"/>
				</g>
				<g>
					<path class="st2" d="M160.3,119.7c-4,0-5.9-3.1-5.9-6.1c0-2.3,1.6-6,6-6c3.6,0,6,2.3,6,5.8C166.3,117,163.8,119.7,160.3,119.7z
						 M160.3,108.3c-2.6,0-4.2,1.9-4.2,4.9c0,3.4,1.9,5.7,4.7,5.7c0.7,0,4-0.2,4-5.1C164.7,110,162.4,108.3,160.3,108.3z"/>
					<path class="st6" d="M160.4,107.6c3.3,0,5.9,2.2,5.9,5.7c0,3.4-2.4,6.2-5.9,6.2c-4.1,0-5.8-3.2-5.8-6
						C154.5,111.1,156.3,107.6,160.4,107.6 M160.7,119c1.3,0,4.1-0.8,4.1-5.2c0-3.6-2.2-5.6-4.5-5.6c-2.5,0-4.3,1.7-4.3,5
						C155.9,116.7,158,119,160.7,119 M160.4,107.4c-4.4,0-6.1,3.8-6.1,6.2c0,3,1.9,6.2,6,6.2c3.6,0,6.2-2.7,6.2-6.4
						C166.4,109.8,164,107.4,160.4,107.4L160.4,107.4z M160.7,118.8c-2.7,0-4.5-2.3-4.5-5.6c0-3,1.5-4.8,4.1-4.8
						c2.1,0,4.3,1.7,4.3,5.4C164.6,118.5,161.3,118.8,160.7,118.8L160.7,118.8z"/>
				</g>
				<g>
					<path class="st2" d="M177.1,119.4c-0.7,0-1.1-0.1-1.5-0.3c-0.6-0.3-1.1-1-1.8-1.9c-0.3-0.4-0.6-0.8-0.9-1.2
						c-0.2-0.3-0.4-0.6-0.5-0.7c0,0,0,0-0.1,0l-1.7,0l0,0.3c0,1.3,0,2.2,0.1,2.8c0,0.4,0.1,0.5,0.4,0.6c0.2,0,0.4,0.1,0.6,0.1
						c0.1,0,0.2,0.1,0.2,0.2c0,0.1,0,0.2-0.3,0.2c-0.6,0-1.2,0-1.5,0l-0.1,0c-0.3,0-1,0-1.3,0c-0.3,0-0.3-0.1-0.3-0.2
						c0-0.1,0.1-0.2,0.2-0.2c0.1,0,0.3,0,0.4-0.1c0.2,0,0.2-0.2,0.3-0.6c0.1-0.6,0.1-1.6,0.1-2.8v-2.3c0-2,0-2.4,0-2.8
						c0-0.4-0.1-0.6-0.4-0.6c-0.1,0-0.3,0-0.4,0c-0.1,0-0.2-0.1-0.2-0.2c0-0.2,0.2-0.2,0.3-0.2c0.4,0,1,0,1.3,0l0.2,0
						c0,0,0.2,0,0.5,0c0.4,0,0.9,0,1.2,0c0.8,0,1.8,0.1,2.5,0.6c0.2,0.1,1,0.8,1,1.8c0,1.1-0.5,2-1.6,3l0.1,0.2
						c1,1.3,1.8,2.3,2.5,3.1c0.7,0.7,1.1,0.8,1.4,0.9c0.2,0,0.4,0,0.4,0c0.1,0,0.2,0.1,0.2,0.2c0,0.2-0.3,0.2-0.4,0.2H177.1z
						 M171.7,110.1c-0.4,0-0.8,0-0.9,0.1l0,4.2c0.2,0.2,0.8,0.3,1.4,0.3c0.3,0,0.6,0,0.9-0.2c0.5-0.3,0.7-1,0.7-1.9
						C173.8,111,173,110.1,171.7,110.1z"/>
					<path class="st6" d="M171.8,109.6c0.8,0,1.8,0.1,2.4,0.6c0.3,0.2,0.9,0.9,0.9,1.8c0,1-0.4,1.9-1.6,2.9c1.1,1.4,2,2.5,2.7,3.3
						c0.7,0.7,1.1,0.8,1.5,0.9c0.3,0,0.4,0,0.5,0c0.1,0,0.1,0.1,0.1,0.1c0,0.1-0.1,0.1-0.3,0.1h-0.8c-0.7,0-1.1-0.1-1.4-0.3
						c-0.6-0.3-1-0.9-1.8-1.9c-0.6-0.7-1.1-1.5-1.4-1.9c-0.1-0.1-0.1-0.1-0.2-0.1l-1.7,0c-0.1,0-0.1,0-0.1,0.1v0.3
						c0,1.2,0,2.2,0.1,2.8c0,0.4,0.1,0.6,0.5,0.7c0.2,0,0.5,0.1,0.6,0.1c0.1,0,0.1,0.1,0.1,0.1c0,0.1-0.1,0.1-0.2,0.1
						c-0.7,0-1.5,0-1.6,0c0,0-0.9,0-1.3,0c-0.1,0-0.2,0-0.2-0.1c0,0,0-0.1,0.1-0.1c0.1,0,0.3,0,0.4-0.1c0.3-0.1,0.3-0.3,0.3-0.7
						c0.1-0.5,0.1-1.5,0.1-2.8v-2.3c0-2,0-2.4,0-2.8c0-0.4-0.1-0.7-0.5-0.7c-0.1,0-0.3,0-0.4,0c0,0-0.1-0.1-0.1-0.1
						c0-0.1,0.1-0.1,0.2-0.1c0.6,0,1.5,0,1.5,0C170.3,109.6,171.4,109.6,171.8,109.6 M172.1,114.8c0.3,0,0.7,0,1-0.2
						c0.4-0.3,0.8-1,0.8-2c0-1.6-0.9-2.5-2.3-2.5c-0.4,0-0.8,0-0.9,0.1c-0.1,0-0.1,0.1-0.1,0.2v4.1c0,0.1,0,0.1,0.1,0.2
						C170.9,114.7,171.6,114.8,172.1,114.8 M171.8,109.4c-0.3,0-0.8,0-1.2,0c-0.2,0-0.4,0-0.4,0c0,0-0.1,0-0.2,0c-0.3,0-0.9,0-1.4,0
						c-0.4,0-0.4,0.2-0.4,0.3c0,0.2,0.2,0.3,0.3,0.3c0.1,0,0.3,0,0.4,0c0.3,0,0.3,0.1,0.4,0.5c0,0.4,0,0.8,0,2.8v2.3
						c0,1.2,0,2.2-0.1,2.8c-0.1,0.4-0.1,0.5-0.2,0.5c-0.1,0-0.3,0.1-0.4,0.1c-0.2,0-0.3,0.2-0.3,0.3c0,0.1,0,0.3,0.4,0.3
						c0.3,0,1,0,1.2,0l0.1,0l0.1,0c0.3,0,0.9,0,1.5,0c0.4,0,0.4-0.3,0.4-0.3c0-0.2-0.1-0.3-0.3-0.3c-0.1,0-0.4,0-0.5-0.1
						c-0.2,0-0.3-0.1-0.3-0.5c-0.1-0.5-0.1-1.5-0.1-2.8v-0.2l1.5,0c0.1,0.2,0.3,0.4,0.5,0.7c0.3,0.4,0.6,0.8,0.9,1.2
						c0.8,1,1.2,1.6,1.9,2c0.4,0.2,0.8,0.3,1.5,0.3h0.8c0.2,0,0.5,0,0.5-0.3c0-0.2-0.1-0.3-0.3-0.3c-0.1,0-0.2,0-0.4,0
						c-0.2,0-0.6-0.1-1.3-0.8c-0.7-0.7-1.6-1.8-2.5-3.1l-0.1-0.1c1.1-1,1.5-1.9,1.5-3c0-1.1-0.8-1.8-1-1.9
						C173.6,109.4,172.6,109.4,171.8,109.4L171.8,109.4z M170.8,110.3c0.2,0,0.5-0.1,0.8-0.1c1.3,0,2,0.8,2,2.3
						c0,0.8-0.3,1.5-0.7,1.8c-0.3,0.2-0.6,0.2-0.9,0.2c-0.6,0-1.2-0.1-1.3-0.2L170.8,110.3L170.8,110.3z"/>
				</g>
				<g>
					<path class="st2" d="M183.4,119.4c-0.5,0-1.2,0-1.4,0l-0.2,0l-0.2,0c-0.3,0-0.9,0-1.1,0c-0.2,0-0.3-0.1-0.3-0.2
						c0-0.1,0.1-0.2,0.2-0.2c0.1,0,0.2,0,0.4-0.1c0.2,0,0.3-0.2,0.3-0.6c0.1-0.5,0.1-1.5,0.1-2.8v-5.3l-1.8,0
						c-0.8,0-1.1,0.1-1.2,0.4c-0.1,0.2-0.1,0.2-0.2,0.3c-0.1,0.2-0.1,0.3-0.3,0.3c-0.1,0-0.2-0.1-0.2-0.2c0-0.1,0.1-0.5,0.2-1
						c0-0.2,0.1-0.4,0.1-0.4c0.1-0.2,0.1-0.3,0.2-0.3c0.1,0,0.1,0,0.2,0c0.1,0,0.2,0.1,0.4,0.1c0.4,0,0.9,0.1,1,0.1h4.9
						c0.3,0,0.6,0,0.9-0.1l0.2,0c0.1,0,0.1,0,0.2,0c0.2,0,0.2,0.2,0.2,0.3c0,0.2,0,0.7,0,1c0,0.2,0,0.4,0,0.4c0,0.2-0.1,0.3-0.2,0.3
						c-0.2,0-0.2-0.2-0.2-0.3l0-0.1c0-0.3-0.2-0.6-1.5-0.6l-1.5,0v5.3c0,1.3,0,2.3,0.1,2.8c0,0.4,0.1,0.5,0.4,0.6
						c0.2,0,0.5,0.1,0.6,0.1c0.1,0,0.2,0.1,0.2,0.2C183.7,119.3,183.7,119.4,183.4,119.4z"/>
					<path class="st6" d="M177.9,109.4c0.1,0,0.2,0.1,0.6,0.2c0.4,0,0.9,0.1,1,0.1h4.9c0.4,0,0.7,0,0.9-0.1c0.2,0,0.3-0.1,0.4-0.1
						c0.1,0,0.1,0.1,0.1,0.2c0,0.4,0,1.3,0,1.5c0,0.1-0.1,0.2-0.1,0.2c-0.1,0-0.1,0-0.1-0.2l0-0.1c0-0.4-0.3-0.7-1.6-0.7l-1.6,0v5.4
						c0,1.2,0,2.3,0.1,2.8c0,0.4,0.1,0.6,0.5,0.7c0.2,0,0.5,0.1,0.6,0.1c0.1,0,0.1,0.1,0.1,0.1c0,0.1-0.1,0.1-0.2,0.1
						c-0.7,0-1.5,0-1.6,0c-0.1,0-1,0-1.4,0c-0.1,0-0.2,0-0.2-0.1c0,0,0-0.1,0.1-0.1c0.1,0,0.3,0,0.4-0.1c0.3-0.1,0.3-0.3,0.4-0.7
						c0.1-0.5,0.1-1.5,0.1-2.8v-5.4l-1.9,0c-0.8,0-1.1,0.1-1.3,0.4c-0.1,0.2-0.2,0.3-0.2,0.4c0,0.1-0.1,0.1-0.1,0.1
						c0,0-0.1,0-0.1-0.1c0-0.1,0.3-1.3,0.3-1.4C177.8,109.6,177.9,109.4,177.9,109.4 M177.9,109.2c-0.2,0-0.3,0.2-0.3,0.4l0,0l0,0
						c0,0,0,0.2-0.1,0.4c-0.1,0.6-0.2,0.9-0.2,1c0,0.2,0.2,0.3,0.3,0.3c0.1,0,0.3,0,0.3-0.3c0,0,0,0,0,0c0,0,0,0,0-0.1
						c0-0.1,0.1-0.1,0.2-0.3c0.1-0.2,0.3-0.3,1.1-0.3l1.7,0v5.2c0,1.2,0,2.3-0.1,2.8c0,0.4-0.1,0.5-0.2,0.5c-0.1,0-0.3,0.1-0.3,0.1
						c-0.2,0-0.3,0.1-0.3,0.3c0,0.1,0,0.3,0.4,0.3c0.3,0,0.8,0,1.1,0c0.1,0,0.2,0,0.2,0c0,0,0.1,0,0.2,0c0.3,0,0.9,0,1.5,0
						c0.4,0,0.4-0.3,0.4-0.3c0-0.2-0.1-0.3-0.3-0.3c-0.1,0-0.4,0-0.6-0.1c-0.2,0-0.3-0.1-0.3-0.5c-0.1-0.5-0.1-1.6-0.1-2.8v-5.2
						l1.4,0c1.3,0,1.3,0.4,1.4,0.5l0,0.1c0,0.1,0,0.4,0.3,0.4c0.2,0,0.3-0.1,0.3-0.4c0-0.1,0-0.2,0-0.4c0-0.3,0-0.8,0-1
						c0-0.3-0.2-0.4-0.3-0.4c0,0-0.1,0-0.2,0c-0.1,0-0.1,0-0.2,0c-0.3,0-0.6,0.1-0.9,0.1h-4.9c-0.1,0-0.6,0-1-0.1
						c-0.2,0-0.3-0.1-0.4-0.1C178,109.2,178,109.2,177.9,109.2L177.9,109.2z"/>
				</g>
				<g>
					<path class="st2" d="M195.8,119.4c-0.2,0-1.2,0-2.1,0l-0.1,0c-0.3,0-0.5,0-0.5-0.2v-0.1l0.1-0.1c0.1,0,0.1,0,0.1-0.1
						c0,0,0-0.1,0-0.1l-1.2-3l-3,0l-0.8,2.1c-0.1,0.3-0.2,0.6-0.2,0.8c0,0.2,0.2,0.2,0.3,0.2h0.1c0.2,0,0.2,0.2,0.2,0.2
						c0,0.1,0,0.2-0.3,0.2c-0.2,0-0.5,0-0.8,0c-0.2,0-0.3,0-0.4,0c0,0-0.1,0-0.3,0c-0.3,0-0.7,0-1,0c-0.2,0-0.4-0.1-0.4-0.2
						c0-0.1,0.1-0.2,0.2-0.2c0.1,0,0.3,0,0.4,0c0.5-0.1,0.8-0.4,1-1.1l3.1-8.1c0.2-0.4,0.2-0.6,0.4-0.6c0.2,0,0.2,0.2,0.3,0.4
						l0.1,0.2c0.1,0.3,0.7,1.6,1.3,3.2c0.7,1.7,1.5,3.7,1.9,4.7c0.5,1.2,0.8,1.3,1,1.4c0.2,0.1,0.4,0.1,0.5,0.1
						c0.2,0,0.3,0.1,0.3,0.2C196.2,119.3,196.2,119.4,195.8,119.4z M189.4,115.1l2.6-0.1l-1.4-3.5l0,0L189.4,115.1z"/>
					<path class="st6" d="M190.9,109.3c0.1,0,0.2,0.2,0.3,0.5c0.2,0.5,2.3,5.9,3.1,7.8c0.5,1.2,0.8,1.3,1.1,1.4
						c0.2,0.1,0.4,0.1,0.5,0.1c0.1,0,0.2,0,0.2,0.1s-0.1,0.1-0.3,0.1c-0.2,0-1.2,0-2.1,0c-0.3,0-0.5,0-0.5-0.1c0-0.1,0-0.1,0.1-0.1
						c0.1,0,0.2-0.1,0.1-0.3l-1.2-3c0-0.1,0-0.1-0.1-0.1h-3c-0.1,0-0.1,0-0.1,0.1l-0.7,2.1c-0.1,0.3-0.2,0.6-0.2,0.9
						c0,0.3,0.2,0.3,0.4,0.3h0.1c0.1,0,0.1,0,0.1,0.1c0,0.1-0.1,0.1-0.2,0.1c-0.3,0-1,0-1.2,0c-0.1,0-0.8,0-1.3,0
						c-0.2,0-0.3,0-0.3-0.1c0-0.1,0.1-0.1,0.1-0.1c0.1,0,0.3,0,0.4,0c0.6-0.1,0.8-0.5,1.1-1.2l3.1-8.1
						C190.7,109.4,190.8,109.3,190.9,109.3 M189.4,115.2h2.7c0.1,0,0.1,0,0-0.1l-1.3-3.5c0-0.1-0.1-0.1-0.1-0.1c0,0-0.1,0-0.1,0.1
						L189.4,115.2C189.3,115.2,189.3,115.2,189.4,115.2 M190.9,109.1c-0.3,0-0.4,0.2-0.5,0.6l-3.1,8.1c-0.3,0.6-0.5,1-0.9,1
						c-0.1,0-0.3,0-0.4,0c-0.2,0-0.3,0.1-0.3,0.3c0,0.1,0.1,0.3,0.5,0.3c0.4,0,0.8,0,1.1,0c0.1,0,0.2,0,0.3,0c0.1,0,0.2,0,0.4,0
						c0.3,0,0.6,0,0.8,0c0.4,0,0.4-0.3,0.4-0.3c0-0.2-0.1-0.3-0.3-0.3h-0.1c-0.2,0-0.2,0-0.2-0.1c0-0.2,0.1-0.5,0.2-0.8l0.7-2h2.9
						l1.2,2.9c0,0.1,0,0.1,0,0.1c-0.1,0-0.2,0.1-0.2,0.3c0,0.3,0.3,0.3,0.6,0.3l0.1,0c0.6,0,1.3,0,2.1,0c0.5,0,0.5-0.2,0.5-0.3
						c0-0.2-0.2-0.3-0.4-0.3c-0.1,0-0.3,0-0.5-0.1c-0.2-0.1-0.5-0.2-1-1.3c-0.4-1-1.2-2.9-1.9-4.6c-0.6-1.6-1.2-2.9-1.3-3.2
						l-0.1-0.2C191.2,109.3,191.1,109.1,190.9,109.1L190.9,109.1z M189.6,115l1.1-3.1l1.1,3.1H189.6L189.6,115z"/>
				</g>
				<g>
					<path class="st2" d="M205.5,119.4c-0.4,0-0.6,0-0.9,0c-0.7-0.1-1-0.3-1.6-0.8c-0.6-0.5-3.1-3.2-3.9-4.1v1c0,1.3,0,2.3,0.1,2.8
						c0,0.4,0.1,0.5,0.4,0.6c0.2,0,0.4,0.1,0.5,0.1c0.1,0,0.2,0.1,0.2,0.2c0,0.1,0,0.2-0.3,0.2c-0.5,0-1,0-1.3,0c-0.1,0-0.2,0-0.2,0
						c0,0-0.1,0-0.3,0c-0.3,0-0.7,0-1,0c-0.3,0-0.3-0.1-0.3-0.2c0-0.1,0.1-0.2,0.2-0.2c0.1,0,0.3,0,0.4-0.1c0.2,0,0.2-0.2,0.3-0.6
						c0.1-0.6,0.1-1.6,0.1-2.8v-2.3c0-2,0-2.4,0-2.8c0-0.4-0.1-0.6-0.4-0.6c-0.1,0-0.3,0-0.4,0c-0.1,0-0.2-0.1-0.2-0.2
						c0-0.2,0.2-0.2,0.3-0.2c0.4,0,1,0,1.3,0l0.2,0c0,0,0.2,0,0.3,0c0.3,0,0.7,0,1,0c0.2,0,0.3,0.1,0.3,0.2c0,0.1-0.1,0.2-0.2,0.2
						c-0.1,0-0.2,0-0.3,0c-0.3,0.1-0.3,0.2-0.4,0.6c0,0.4,0,0.8,0,2.8v0.6c0.3-0.3,0.9-1,1.6-1.6c0.6-0.6,1.1-1.1,1.3-1.3
						c0.4-0.4,0.7-0.7,0.7-0.9c0-0.1,0-0.1-0.1-0.2c-0.1,0-0.2-0.1-0.2-0.2c0-0.1,0.1-0.2,0.3-0.2c0.1,0,0.3,0,0.5,0
						c0.2,0,0.4,0,0.5,0l0.3,0c0.3,0,0.8,0,1,0c0.2,0,0.3,0.1,0.3,0.2c0,0.1,0,0.2-0.2,0.2c-0.2,0-0.4,0.1-0.7,0.2
						c-0.4,0.2-0.7,0.4-1.1,0.9l-0.2,0.2c-0.3,0.3-2.3,2.2-2.8,2.7c0.5,0.6,3,3.1,3.5,3.6l0.3,0.2c0.9,0.8,1,0.9,1.6,1.2
						c0.3,0.1,0.7,0.2,0.8,0.2c0.2,0,0.3,0.1,0.3,0.2c0,0.2-0.3,0.2-0.4,0.2H205.5z"/>
					<path class="st6" d="M204.9,109.6c0.1,0,0.2,0,0.2,0.1c0,0.1,0,0.1-0.1,0.1c-0.2,0-0.5,0.1-0.7,0.2c-0.5,0.2-0.8,0.5-1.4,1.1
						c-0.3,0.3-2.6,2.5-2.8,2.8c0.3,0.4,3.1,3.2,3.6,3.7c1.1,1,1.3,1.2,1.9,1.4c0.3,0.1,0.7,0.2,0.8,0.2c0.1,0,0.2,0,0.2,0.1
						c0,0.1-0.1,0.1-0.3,0.1h-0.7c-0.4,0-0.6,0-0.9,0c-0.7-0.1-1-0.3-1.6-0.8c-0.6-0.5-3.3-3.4-4-4.2H199v1.3c0,1.2,0,2.3,0.1,2.8
						c0,0.4,0.1,0.6,0.5,0.7c0.2,0,0.4,0.1,0.5,0.1c0.1,0,0.1,0.1,0.1,0.1c0,0.1-0.1,0.1-0.2,0.1c-0.6,0-1.4,0-1.5,0
						c-0.1,0-0.9,0-1.3,0c-0.1,0-0.2,0-0.2-0.1c0,0,0-0.1,0.1-0.1c0.1,0,0.3,0,0.4-0.1c0.3-0.1,0.3-0.3,0.3-0.7
						c0.1-0.5,0.1-1.5,0.1-2.8v-2.3c0-2,0-2.4,0-2.8c0-0.4-0.1-0.7-0.5-0.7c-0.1,0-0.3,0-0.4,0c0,0-0.1-0.1-0.1-0.1
						c0-0.1,0.1-0.1,0.2-0.1c0.6,0,1.4,0,1.5,0c0.1,0,0.9,0,1.3,0c0.1,0,0.2,0,0.2,0.1c0,0,0,0.1-0.1,0.1c-0.1,0-0.2,0-0.3,0
						c-0.3,0.1-0.4,0.3-0.5,0.7c0,0.4,0,0.8,0,2.8v0.8h0.1c0.2-0.2,2.5-2.6,3-3.1c0.4-0.4,0.7-0.7,0.7-0.9c0-0.2-0.1-0.2-0.2-0.3
						c-0.1,0-0.1-0.1-0.1-0.1c0-0.1,0.1-0.1,0.1-0.1c0.3,0,0.7,0,1,0C203.7,109.6,204.6,109.6,204.9,109.6 M204.9,109.4
						c-0.2,0-0.7,0-1,0c-0.1,0-0.2,0-0.3,0c-0.2,0-0.3,0-0.5,0c-0.2,0-0.3,0-0.5,0c-0.3,0-0.4,0.2-0.4,0.3c0,0.2,0.1,0.3,0.3,0.3
						c0,0,0,0,0,0c0,0.1-0.4,0.5-0.6,0.7l-0.1,0.1c-0.2,0.2-0.8,0.8-1.3,1.3c-0.5,0.5-1.1,1.1-1.4,1.4v-0.3c0-2,0-2.4,0-2.8
						c0-0.4,0.1-0.5,0.3-0.5c0.1,0,0.2,0,0.3,0c0.2,0,0.3-0.2,0.3-0.3c0-0.1,0-0.3-0.4-0.3c-0.3,0-0.7,0-1,0c-0.2,0-0.3,0-0.3,0
						c0,0-0.1,0-0.2,0c-0.3,0-0.8,0-1.3,0c-0.4,0-0.4,0.2-0.4,0.3c0,0.2,0.2,0.3,0.3,0.3c0.1,0,0.3,0,0.4,0c0.3,0,0.3,0.1,0.4,0.5
						c0,0.4,0,0.8,0,2.8v2.3c0,1.2,0,2.2-0.1,2.8c-0.1,0.4-0.1,0.5-0.2,0.5c-0.1,0-0.3,0.1-0.4,0.1c-0.2,0-0.3,0.2-0.3,0.3
						c0,0.1,0,0.3,0.4,0.3c0.3,0,0.7,0,1,0c0.1,0,0.3,0,0.3,0c0,0,0.1,0,0.2,0c0.3,0,0.8,0,1.3,0c0.4,0,0.4-0.3,0.4-0.3
						c0-0.2-0.1-0.3-0.3-0.3c0,0-0.2,0-0.5-0.1c-0.2,0-0.3-0.1-0.3-0.5c-0.1-0.5-0.1-1.6-0.1-2.8v-0.7c1,1.1,3.1,3.4,3.7,3.8
						l0.1,0.1c0.5,0.4,0.9,0.7,1.6,0.8c0.3,0,0.6,0,0.9,0h0.7c0.4,0,0.5-0.2,0.5-0.3c0-0.2-0.2-0.3-0.4-0.3c-0.1,0-0.4,0-0.7-0.2
						c-0.5-0.2-0.7-0.4-1.5-1.1l-0.3-0.3c-0.5-0.5-2.8-2.8-3.5-3.5c0.6-0.6,2.4-2.4,2.7-2.7l0.2-0.2c0.4-0.4,0.7-0.7,1.1-0.9
						c0.2-0.1,0.5-0.2,0.6-0.2c0.2,0,0.3-0.2,0.3-0.3C205.3,109.6,205.3,109.4,204.9,109.4L204.9,109.4z"/>
				</g>
				<g>
					<path class="st2" d="M212,119.5c-0.9,0-1.7,0-2.3,0l-0.4,0c-0.4,0-0.7,0-1,0l0,0c-0.1,0-0.3,0-0.5,0c-0.3,0-0.6,0-0.8,0
						c-0.3,0-0.3-0.1-0.3-0.2c0-0.1,0.1-0.2,0.2-0.2c0.1,0,0.3,0,0.4-0.1c0.2,0,0.2-0.2,0.3-0.6c0.1-0.6,0.1-1.6,0.1-2.8v-2.3
						c0-2,0-2.4,0-2.8c0-0.4-0.1-0.6-0.4-0.6c-0.1,0-0.3,0-0.4,0c-0.1,0-0.2-0.1-0.2-0.2c0-0.1,0.1-0.2,0.3-0.2c0.4,0,1,0,1.3,0
						l0.2,0l0.2,0c0.3,0,0.9,0,1.2,0c0.3,0,0.3,0.1,0.3,0.2c0,0.1-0.1,0.2-0.2,0.2c-0.1,0-0.3,0-0.4,0c-0.3,0.1-0.4,0.2-0.4,0.6
						c0,0.4,0,0.8,0,2.8v2.3c0,1.6,0,2.6,0.2,2.8c0.2,0.2,0.7,0.3,1.7,0.3c0.7,0,1.2,0,1.5-0.4c0.1-0.2,0.2-0.4,0.3-0.7
						c0-0.2,0.1-0.3,0.2-0.3c0.1,0,0.2,0.1,0.2,0.3c0,0.1-0.1,0.9-0.2,1.3C212.9,119.4,212.7,119.5,212,119.5z"/>
					<path class="st6" d="M209.8,109.6c0.1,0,0.2,0,0.2,0.1c0,0-0.1,0.1-0.1,0.1c-0.1,0-0.3,0-0.4,0c-0.4,0.1-0.5,0.3-0.5,0.7
						c0,0.4,0,0.8,0,2.8v2.3c0,1.9,0,2.7,0.3,2.9c0.2,0.2,0.7,0.3,1.7,0.3c0.7,0,1.3,0,1.6-0.4c0.2-0.2,0.3-0.5,0.3-0.7
						c0-0.1,0.1-0.2,0.1-0.2c0.1,0,0.1,0.1,0.1,0.2c0,0.1-0.1,0.9-0.2,1.3c-0.1,0.3-0.1,0.3-0.8,0.3c-0.9,0-1.7,0-2.3,0
						c-0.6,0-1,0-1.4,0c-0.1,0-0.3,0-0.5,0c-0.3,0-0.6,0-0.8,0c-0.1,0-0.2,0-0.2-0.1c0,0,0-0.1,0.1-0.1c0.1,0,0.3,0,0.4-0.1
						c0.3-0.1,0.3-0.3,0.3-0.7c0.1-0.5,0.1-1.5,0.1-2.8v-2.3c0-2,0-2.4,0-2.8c0-0.4-0.1-0.7-0.5-0.7c-0.1,0-0.3,0-0.4,0
						c0,0-0.1-0.1-0.1-0.1c0-0.1,0.1-0.1,0.2-0.1c0.6,0,1.4,0,1.5,0C208.4,109.6,209.4,109.6,209.8,109.6 M209.8,109.4
						c-0.3,0-0.9,0-1.2,0c-0.1,0-0.2,0-0.2,0c0,0-0.1,0-0.2,0c-0.3,0-0.9,0-1.3,0c-0.4,0-0.4,0.2-0.4,0.3c0,0.2,0.2,0.3,0.3,0.3
						c0.1,0,0.3,0,0.4,0c0.3,0,0.3,0.1,0.4,0.5c0,0.4,0,0.8,0,2.8v2.3c0,1.2,0,2.2-0.1,2.8c-0.1,0.4-0.1,0.5-0.2,0.5
						c-0.1,0-0.3,0.1-0.4,0.1c-0.2,0-0.3,0.2-0.3,0.3c0,0.1,0,0.3,0.4,0.3c0.2,0,0.5,0,0.8,0c0.3,0,0.5,0,0.5,0c0.3,0,0.6,0,1,0
						l0.4,0c0.6,0,1.4,0,2.3,0c0.7,0,0.9,0,1-0.5c0.1-0.4,0.2-1.2,0.2-1.4c0-0.4-0.2-0.4-0.3-0.4c-0.2,0-0.3,0.1-0.3,0.3
						c0,0.2-0.1,0.5-0.3,0.6c-0.2,0.3-0.7,0.3-1.4,0.3c-0.6,0-1.4,0-1.6-0.2c-0.2-0.2-0.2-1.3-0.2-2.7v-2.3c0-2,0-2.4,0-2.8
						c0-0.4,0.1-0.5,0.3-0.5c0.1,0,0.3,0,0.4,0c0.2,0,0.3-0.1,0.3-0.3C210.2,109.6,210.2,109.4,209.8,109.4L209.8,109.4z"/>
				</g>
				<g>
					<path class="st2" d="M217.9,119.4c-0.6,0-1.2,0-1.5,0l-0.1,0c0,0-0.1,0-0.2,0c-0.3,0-0.8,0-1.1,0c-0.3,0-0.3-0.1-0.3-0.2
						c0-0.1,0.1-0.2,0.2-0.2c0.1,0,0.3,0,0.4-0.1c0.2,0,0.2-0.2,0.3-0.6c0.1-0.6,0.1-1.7,0.1-2.8v-2.3c0-2,0-2.4,0-2.8
						c0-0.5-0.1-0.6-0.3-0.6c-0.1,0-0.3,0-0.4,0c-0.1,0-0.2-0.1-0.2-0.2c0-0.1,0.1-0.2,0.3-0.2c0.3,0,0.8,0,1.1,0l0.2,0l0.2,0
						c0.3,0,0.8,0,1.1,0c0.2,0,0.3,0.1,0.3,0.2c0,0.1-0.1,0.2-0.2,0.2c0,0,0,0,0,0c-0.1,0-0.2,0-0.3,0c-0.3,0.1-0.3,0.2-0.4,0.6
						c0,0.4,0,0.8,0,2.8v2.3c0,1.3,0,2.3,0.1,2.8c0,0.4,0.1,0.5,0.4,0.6c0.2,0,0.5,0.1,0.6,0.1c0.1,0,0.2,0.1,0.2,0.2
						C218.2,119.3,218.2,119.4,217.9,119.4z"/>
					<path class="st6" d="M217.6,109.6c0.1,0,0.2,0,0.2,0.1c0,0-0.1,0.1-0.1,0.1c-0.1,0-0.2,0-0.3,0c-0.4,0.1-0.4,0.3-0.5,0.7
						c0,0.4,0,0.8,0,2.8v2.3c0,1.2,0,2.3,0.1,2.8c0,0.4,0.1,0.6,0.5,0.7c0.2,0,0.5,0.1,0.6,0.1c0.1,0,0.1,0.1,0.1,0.1
						c0,0.1-0.1,0.1-0.2,0.1c-0.7,0-1.6,0-1.6,0c-0.1,0-0.9,0-1.3,0c-0.1,0-0.2,0-0.2-0.1c0,0,0-0.1,0.1-0.1c0.1,0,0.3,0,0.4-0.1
						c0.3-0.1,0.3-0.3,0.3-0.7c0.1-0.5,0.1-1.5,0.1-2.8v-2.3c0-2,0-2.4,0-2.8c0-0.4-0.1-0.6-0.4-0.7c-0.1,0-0.3,0-0.4,0
						c-0.1,0-0.1-0.1-0.1-0.1c0-0.1,0.1-0.1,0.2-0.1c0.4,0,1.3,0,1.3,0C216.3,109.6,217.2,109.6,217.6,109.6 M217.6,109.4
						c-0.3,0-0.8,0-1.1,0c-0.1,0-0.2,0-0.2,0c0,0-0.1,0-0.2,0c-0.3,0-0.8,0-1.1,0c-0.4,0-0.4,0.2-0.4,0.3c0,0.2,0.1,0.3,0.3,0.3
						c0.1,0,0.2,0,0.4,0c0.1,0,0.2,0,0.2,0.5c0,0.4,0,0.8,0,2.8v2.3c0,1,0,2.2-0.1,2.8c0,0.4-0.1,0.5-0.2,0.5
						c-0.1,0-0.3,0.1-0.4,0.1c-0.2,0-0.3,0.2-0.3,0.3c0,0.1,0,0.3,0.4,0.3c0.3,0,0.8,0,1.1,0c0.1,0,0.2,0,0.2,0l0.1,0
						c0.3,0,0.9,0,1.5,0c0.4,0,0.4-0.3,0.4-0.3c0-0.2-0.1-0.3-0.3-0.3c-0.1,0-0.4,0-0.6-0.1c-0.2,0-0.2-0.1-0.3-0.5
						c-0.1-0.5-0.1-1.6-0.1-2.8v-2.3c0-2,0-2.4,0-2.8c0-0.4,0.1-0.5,0.3-0.5c0.1,0,0.2,0,0.3,0c0,0,0,0,0,0c0.2,0,0.3-0.2,0.3-0.3
						C218,109.6,218,109.4,217.6,109.4L217.6,109.4z"/>
				</g>
				<g>
					<path class="st2" d="M225.9,119.6c-1.8,0-3.3-0.5-4.4-1.4c-0.7-0.6-1.6-2-1.6-3.8c0-1.8,0.8-3.5,2.2-4.3
						c1.2-0.7,2.5-0.8,3.5-0.8c0.9,0,1.8,0.2,2,0.2c0.3,0.1,0.7,0.1,1,0.1c0.3,0,0.3,0.2,0.3,0.2c0,0.1,0,0.1,0,0.2
						c0,0.2-0.1,0.7-0.1,1.6c0,0.3-0.1,0.4-0.3,0.4c-0.2,0-0.2-0.2-0.2-0.3c0-0.2-0.1-0.5-0.3-0.8c-0.3-0.4-1.2-1-2.9-1
						c-0.8,0-1.7,0.1-2.7,0.8c-0.8,0.6-1.3,1.8-1.3,3.2c0,1.7,0.8,3,1.4,3.5c1,0.9,2,1.3,3.3,1.3c0.6,0,1.1-0.1,1.4-0.2
						c0.2-0.1,0.2-0.1,0.2-0.3V116c0-1.1,0-1.1-0.5-1.2c-0.1,0-0.3,0-0.4,0c-0.1,0-0.2-0.1-0.2-0.2c0-0.2,0.2-0.2,0.3-0.2
						c0.4,0,1,0,1.3,0l0.2,0l0.2,0c0.3,0,0.8,0,1.1,0c0.1,0,0.3,0,0.3,0.2c0,0.1-0.1,0.2-0.2,0.2c0,0,0,0,0,0c-0.1,0-0.2,0-0.3,0
						c-0.3,0-0.4,0.2-0.4,0.6c0,0.4,0,0.8,0,1.3v1.4c0,0.6,0,0.7-0.2,0.8C227.9,119.5,226.7,119.6,225.9,119.6z M224.9,108.5
						c-0.5,0-1-0.2-1.4-0.5c-0.2-0.2-0.6-0.5-0.6-0.6c0-0.1,0.1-0.2,0.1-0.2l0.5-0.4c0.1-0.1,0.1-0.1,0.2-0.1c0.1,0,0.2,0.1,0.2,0.2
						c0,0,0,0.1,0.1,0.1c0.5,0.6,1.1,0.7,1.3,0.7c0.5,0,0.9-0.1,1.2-0.4c0.2-0.2,0.3-0.3,0.4-0.4c0.1-0.1,0.2-0.2,0.3-0.2
						c0.1,0,0.2,0.1,0.2,0.2c0,0.2-0.7,0.9-1,1.1C226,108.4,225.6,108.5,224.9,108.5z"/>
					<path class="st6" d="M223.7,106.9c0.1,0,0.1,0.1,0.2,0.2c0.5,0.7,1.2,0.7,1.4,0.7c0.6,0,1-0.2,1.3-0.4c0.4-0.3,0.5-0.5,0.6-0.5
						c0.1,0,0.1,0,0.1,0.1c0,0.2-0.6,0.8-0.9,1c-0.5,0.3-0.9,0.4-1.5,0.4c-0.5,0-1-0.2-1.4-0.4c-0.2-0.2-0.5-0.4-0.5-0.5
						c0-0.1,0.1-0.1,0.1-0.1l0.5-0.4C223.6,106.9,223.6,106.9,223.7,106.9 M225.7,109.4c0.8,0,1.8,0.2,2,0.2
						c0.3,0.1,0.7,0.1,1.1,0.1c0.1,0,0.2,0.1,0.2,0.1c0,0.2-0.1,0.5-0.1,1.8c0,0.2-0.1,0.3-0.1,0.3c-0.1,0-0.1-0.1-0.1-0.2
						c0-0.2-0.1-0.5-0.3-0.9c-0.3-0.5-1.3-1-3-1c-0.8,0-1.7,0.1-2.7,0.8c-0.8,0.6-1.3,1.7-1.3,3.3c0,1.8,0.9,3.1,1.4,3.6
						c1,1,2.1,1.4,3.3,1.4c0.5,0,1.1,0,1.4-0.2c0.2-0.1,0.3-0.2,0.3-0.4V116c0-1,0-1.2-0.6-1.3c-0.1,0-0.3,0-0.4,0
						c0,0-0.1-0.1-0.1-0.1c0-0.1,0.1-0.1,0.2-0.1c0.6,0,1.5,0,1.5,0c0.1,0,0.9,0,1.3,0c0.1,0,0.2,0,0.2,0.1c0,0-0.1,0.1-0.1,0.1
						c-0.1,0-0.2,0-0.3,0c-0.4,0.1-0.5,0.3-0.5,0.7c0,0.4,0,0.8,0,1.3v1.4c0,0.6,0,0.6-0.2,0.7c-0.8,0.4-2,0.6-2.8,0.6
						c-1,0-2.9-0.1-4.3-1.4c-0.8-0.7-1.6-2.1-1.6-3.7c0-2.1,1-3.5,2.2-4.2C223.4,109.5,224.7,109.4,225.7,109.4 M223.7,106.7
						c-0.1,0-0.2,0.1-0.2,0.1l-0.5,0.4c-0.1,0-0.2,0.1-0.2,0.3c0,0.1,0,0.3,0.6,0.7c0.4,0.3,1,0.5,1.5,0.5c0.7,0,1.2-0.2,1.6-0.5
						c0.2-0.2,1-0.8,1-1.2c0-0.2-0.1-0.3-0.3-0.3c-0.1,0-0.2,0.1-0.3,0.2c-0.1,0.1-0.2,0.2-0.4,0.3c-0.3,0.3-0.7,0.4-1.2,0.4
						c-0.2,0-0.8,0-1.2-0.6c0,0,0-0.1-0.1-0.1C223.9,106.8,223.8,106.7,223.7,106.7L223.7,106.7z M225.7,109.2c-1,0-2.4,0.1-3.6,0.9
						c-1.4,0.9-2.3,2.5-2.3,4.4c0,1.8,0.9,3.2,1.6,3.8c1.1,1,2.6,1.4,4.5,1.4c0.8,0,2-0.2,2.9-0.6c0.3-0.2,0.3-0.3,0.3-0.9v-1.4
						c0-0.5,0-0.9,0-1.3c0-0.4,0.1-0.5,0.3-0.5c0.1,0,0.2,0,0.3,0c0,0,0,0,0,0c0.2,0,0.3-0.2,0.3-0.3c0-0.2-0.1-0.3-0.4-0.3
						c-0.3,0-0.8,0-1.1,0c-0.1,0-0.2,0-0.2,0c0,0-0.1,0-0.2,0c-0.3,0-0.9,0-1.4,0c-0.3,0-0.4,0.1-0.4,0.3c0,0.2,0.2,0.3,0.3,0.3
						c0.1,0,0.3,0,0.4,0c0.4,0.1,0.4,0.1,0.4,1.1v2.2c0,0.1,0,0.1-0.2,0.2c-0.2,0.1-0.7,0.2-1.3,0.2c-1.3,0-2.3-0.4-3.2-1.3
						c-0.5-0.4-1.3-1.7-1.3-3.4c0-1.3,0.5-2.5,1.2-3.1c0.9-0.7,1.8-0.8,2.6-0.8c1.5,0,2.5,0.5,2.8,0.9c0.2,0.3,0.2,0.6,0.3,0.7
						c0,0.3,0.2,0.4,0.3,0.4c0.1,0,0.4,0,0.4-0.5c0-0.9,0-1.4,0.1-1.6c0-0.1,0-0.2,0-0.2c0-0.2-0.1-0.3-0.4-0.3
						c-0.3,0-0.7-0.1-1-0.1C227.5,109.3,226.5,109.2,225.7,109.2L225.7,109.2z"/>
				</g>
				<g>
					<path class="st2" d="M235,119.4c-0.6,0-1.2,0-1.5,0l-0.1,0c0,0-0.1,0-0.2,0c-0.3,0-0.8,0-1.1,0c-0.3,0-0.3-0.1-0.3-0.2
						c0-0.1,0.1-0.2,0.2-0.2c0.1,0,0.3,0,0.4-0.1c0.2,0,0.2-0.2,0.3-0.6c0.1-0.5,0.1-1.3,0.1-2.8v-2.3c0-2,0-2.4,0-2.8
						c0-0.5-0.1-0.6-0.3-0.6c-0.1,0-0.3,0-0.4,0c-0.1,0-0.2-0.1-0.2-0.2c0-0.1,0.1-0.2,0.3-0.2c0.3,0,0.8,0,1.1,0l0.2,0l0.2,0
						c0.3,0,0.8,0,1.1,0c0.2,0,0.3,0.1,0.3,0.2c0,0.1-0.1,0.2-0.2,0.2c0,0,0,0,0,0c-0.1,0-0.2,0-0.3,0c-0.3,0.1-0.3,0.2-0.4,0.6
						c0,0.4,0,0.8,0,2.8v2.3c0,1.3,0,2.3,0.1,2.8c0,0.4,0.1,0.5,0.4,0.6c0.2,0,0.5,0.1,0.6,0.1c0.1,0,0.2,0.1,0.2,0.2
						C235.3,119.3,235.3,119.4,235,119.4z"/>
					<path class="st6" d="M234.7,109.6c0.1,0,0.2,0,0.2,0.1c0,0-0.1,0.1-0.1,0.1c-0.1,0-0.2,0-0.3,0c-0.4,0.1-0.4,0.3-0.5,0.7
						c0,0.4,0,0.8,0,2.8v2.3c0,1.2,0,2.3,0.1,2.8c0,0.4,0.1,0.6,0.5,0.7c0.2,0,0.5,0.1,0.6,0.1c0.1,0,0.1,0.1,0.1,0.1
						c0,0.1-0.1,0.1-0.2,0.1c-0.7,0-1.6,0-1.6,0c-0.1,0-0.9,0-1.3,0c-0.1,0-0.2,0-0.2-0.1c0,0,0-0.1,0.1-0.1c0.1,0,0.3,0,0.4-0.1
						c0.3-0.1,0.3-0.3,0.3-0.7c0.1-0.5,0.1-1.5,0.1-2.8v-2.3c0-2,0-2.4,0-2.8c0-0.4-0.1-0.6-0.4-0.7c-0.1,0-0.3,0-0.4,0
						c-0.1,0-0.1-0.1-0.1-0.1c0-0.1,0.1-0.1,0.2-0.1c0.4,0,1.3,0,1.3,0C233.4,109.6,234.3,109.6,234.7,109.6 M234.7,109.4
						c-0.3,0-0.8,0-1.1,0c-0.1,0-0.2,0-0.2,0c0,0-0.1,0-0.2,0c-0.3,0-0.8,0-1.1,0c-0.4,0-0.4,0.2-0.4,0.3c0,0.2,0.1,0.3,0.3,0.3
						c0.1,0,0.2,0,0.4,0c0.1,0,0.2,0,0.2,0.5c0,0.4,0,0.8,0,2.8v2.3c0,1,0,2.2-0.1,2.8c0,0.4-0.1,0.5-0.2,0.5
						c-0.1,0-0.3,0.1-0.4,0.1c-0.2,0-0.3,0.2-0.3,0.3c0,0.1,0,0.3,0.4,0.3c0.3,0,0.8,0,1.1,0c0.1,0,0.2,0,0.2,0l0.1,0
						c0.3,0,0.9,0,1.5,0c0.4,0,0.4-0.3,0.4-0.3c0-0.2-0.1-0.3-0.3-0.3c-0.1,0-0.4,0-0.6-0.1c-0.2,0-0.2-0.1-0.3-0.5
						c-0.1-0.5-0.1-1.6-0.1-2.8v-2.3c0-2,0-2.4,0-2.8c0-0.4,0.1-0.5,0.3-0.5c0.1,0,0.2,0,0.3,0c0,0,0,0,0,0c0.2,0,0.3-0.2,0.3-0.3
						C235.1,109.6,235.1,109.4,234.7,109.4L234.7,109.4z"/>
				</g>
			</g>
		</g>
	</g>
</g>
</svg>
